M48
; DRILL file {KiCad 7.0.7-2.fc38} date Thursday 05 October 2023 03:26:10 PM
; FORMAT={-:-/ absolute / inch / decimal}
; #@! TF.CreationDate,2023-10-05T15:26:10+05:30
; #@! TF.GenerationSoftware,Kicad,Pcbnew,7.0.7-2.fc38
; #@! TF.FileFunction,NonPlated,1,2,NPTH
FMAT,2
INCH
; #@! TA.AperFunction,NonPlated,NPTH,ComponentDrill
T1C0.0197
; #@! TA.AperFunction,NonPlated,NPTH,ComponentDrill
T2C0.0295
; #@! TA.AperFunction,NonPlated,NPTH,ComponentDrill
T3C0.0315
; #@! TA.AperFunction,NonPlated,NPTH,ComponentDrill
T4C0.0354
; #@! TA.AperFunction,NonPlated,NPTH,ComponentDrill
T5C0.1339
%
G90
G05
T1
X5.9352Y-2.3889
X5.9352Y-2.4289
X5.9352Y-2.4689
X5.9352Y-2.5089
X5.9352Y-2.5489
X5.9352Y-3.2157
X5.9352Y-3.2557
X5.9352Y-3.2957
X5.9352Y-3.3357
X5.9352Y-3.3757
X6.0152Y-2.3889
X6.0152Y-2.4289
X6.0152Y-2.4689
X6.0152Y-2.5089
X6.0152Y-2.5489
X6.0152Y-3.2157
X6.0152Y-3.2557
X6.0152Y-3.2957
X6.0152Y-3.3357
X6.0152Y-3.3757
T2
X1.4592Y-4.1429
X1.5674Y-4.1429
X10.3835Y-4.1504
X10.4918Y-4.1504
T3
X1.5064Y-3.8201
X1.782Y-3.8201
X10.1601Y-3.8204
X10.4357Y-3.8204
T4
X1.7438Y-2.2761
X1.8619Y-2.2761
X10.0888Y-2.2761
X10.2069Y-2.2761
T5
X1.1359Y-4.6069
X1.8043Y-4.5934
X2.5294Y-4.1828
X2.5475Y-2.1805
X2.5475Y-1.4042
X2.5475Y-2.9305
X3.2975Y-1.3058
X4.0475Y-3.4236
X4.0475Y-1.8262
X4.0475Y-2.5762
X4.7975Y-1.2861
X4.9963Y-3.7386
X5.5475Y-3.2849
X5.5475Y-1.7585
X5.5475Y-2.5349
X6.4031Y-2.5349
X6.4031Y-1.7585
X6.4031Y-3.2849
X6.9543Y-3.7386
X7.1531Y-1.2861
X7.9031Y-2.5762
X7.9031Y-1.8262
X7.9031Y-3.4236
X8.6531Y-1.3058
X9.4031Y-2.1805
X9.4031Y-2.9305
X9.4031Y-1.4042
X9.4212Y-4.1828
X10.1463Y-4.5933
X10.8147Y-4.6069
T0
M30
