M48
; DRILL file {KiCad 7.0.7-2.fc38} date Thursday 05 October 2023 03:26:10 PM
; FORMAT={-:-/ absolute / inch / decimal}
; #@! TF.CreationDate,2023-10-05T15:26:10+05:30
; #@! TF.GenerationSoftware,Kicad,Pcbnew,7.0.7-2.fc38
; #@! TF.FileFunction,Plated,1,2,PTH
FMAT,2
INCH
; #@! TA.AperFunction,Plated,PTH,ViaDrill
T1C0.0157
; #@! TA.AperFunction,Plated,PTH,ComponentDrill
T2C0.0354
; #@! TA.AperFunction,Plated,PTH,ComponentDrill
T3C0.0430
; #@! TA.AperFunction,Plated,PTH,ComponentDrill
T4C0.0866
%
G90
G05
T1
X1.4788Y-4.8555
X1.5369Y-4.9122
X1.5507Y-3.9382
X1.6027Y-2.7769
X1.6028Y-3.1626
X1.6113Y-3.7949
X1.652Y-3.5248
X1.6554Y-2.8769
X1.7028Y-3.202
X1.7063Y-3.0807
X1.7555Y-2.8083
X1.7555Y-3.5268
X1.7749Y-2.3215
X1.8028Y-2.6765
X1.8626Y-2.9756
X1.9169Y-3.3648
X1.9228Y-2.8083
X1.9228Y-2.6955
X1.9442Y-2.3766
X1.9661Y-2.6955
X1.972Y-3.1626
X2.0111Y-2.5774
X2.0212Y-3.202
X2.14Y-4.3549
X2.161Y-2.2762
X2.1794Y-4.4231
X2.346Y-3.6154
X2.446Y-3.6154
X2.466Y-4.0289
X2.546Y-3.6154
X2.5475Y-3.2661
X2.5475Y-3.3449
X2.5475Y-1.7661
X2.5475Y-1.8449
X2.5475Y-2.5161
X2.5475Y-2.5949
X2.646Y-3.6154
X2.746Y-3.6154
X2.846Y-3.6154
X2.8691Y-2.4587
X2.8691Y-3.2067
X2.8691Y-2.3799
X2.8691Y-3.128
X2.9269Y-4.0289
X2.946Y-3.6154
X2.9473Y-4.105
X2.9479Y-3.128
X2.9479Y-2.3799
X2.9479Y-2.4587
X2.9479Y-3.2067
X3.046Y-3.6154
X3.146Y-3.6154
X3.246Y-3.6154
X3.2975Y-1.6677
X3.2975Y-1.7465
X3.2975Y-2.4177
X3.2975Y-2.4965
X3.2975Y-3.1677
X3.2975Y-3.2465
X3.2976Y-3.95
X3.2976Y-4.0288
X3.309Y-4.2126
X3.346Y-3.6154
X3.409Y-4.2126
X3.4157Y-4.0288
X3.4157Y-3.95
X3.446Y-3.6154
X3.509Y-4.2126
X3.526Y-3.95
X3.546Y-3.6154
X3.5567Y-3.9894
X3.5665Y-3.7697
X3.609Y-4.2126
X3.6172Y-2.2008
X3.6172Y-2.9512
X3.6172Y-2.1221
X3.6172Y-2.8725
X3.646Y-3.6154
X3.6959Y-2.1221
X3.6959Y-2.2008
X3.6959Y-2.8725
X3.6959Y-2.9512
X3.709Y-4.2126
X3.724Y-4.0355
X3.746Y-3.6154
X3.809Y-4.2126
X3.846Y-3.6154
X3.8834Y-3.7615
X3.909Y-4.2126
X3.911Y-3.9387
X3.946Y-3.6154
X4.009Y-4.2126
X4.0324Y-3.8914
X4.0409Y-3.8284
X4.046Y-3.6154
X4.0475Y-2.9906
X4.0475Y-2.1618
X4.0475Y-2.9118
X4.0475Y-1.4118
X4.0475Y-2.2406
X4.0475Y-1.4906
X4.109Y-4.2126
X4.1115Y-4.1109
X4.123Y-3.8435
X4.1314Y-4.0135
X4.146Y-3.6154
X4.209Y-4.2126
X4.2102Y-4.0135
X4.2377Y-3.8324
X4.246Y-3.6154
X4.2889Y-4.0135
X4.309Y-4.2126
X4.3134Y-3.6646
X4.3648Y-2.1225
X4.3648Y-2.2012
X4.3652Y-2.8721
X4.3652Y-2.9508
X4.3677Y-4.0135
X4.4117Y-4.1916
X4.4386Y-3.6965
X4.4436Y-2.1225
X4.4436Y-2.2012
X4.4439Y-2.9508
X4.4439Y-2.8721
X4.4897Y-4.0135
X4.537Y-4.045
X4.6086Y-3.6965
X4.712Y-4.1784
X4.7327Y-3.9344
X4.7406Y-4.0958
X4.7416Y-4.0101
X4.7762Y-3.8332
X4.777Y-4.1942
X4.7785Y-3.6965
X4.779Y-3.9196
X4.7975Y-2.3981
X4.7975Y-3.1481
X4.7975Y-3.2268
X4.7975Y-2.4768
X4.7975Y-1.6481
X4.7975Y-1.7268
X4.8223Y-3.9353
X4.8262Y-4.1765
X4.8302Y-4.0918
X4.8311Y-4.0082
X4.8833Y-4.0643
X4.8863Y-4.1932
X4.9253Y-4.096
X4.9341Y-4.0281
X4.9463Y-4.1745
X4.9492Y-3.8743
X5.0772Y-4.0259
X5.1231Y-3.1087
X5.1231Y-3.1874
X5.125Y-2.3603
X5.125Y-2.439
X5.2038Y-2.439
X5.2038Y-2.3603
X5.2215Y-3.1087
X5.2215Y-3.1874
X5.2538Y-2.4913
X5.2631Y-3.233
X5.3095Y-2.547
X5.3095Y-2.4356
X5.3188Y-3.2886
X5.3188Y-3.1773
X5.3652Y-2.4913
X5.3744Y-3.233
X5.5475Y-2.8705
X5.5475Y-3.6992
X5.5475Y-2.9492
X5.5475Y-3.6205
X5.5475Y-2.1205
X5.5475Y-2.1992
X6.4031Y-2.1205
X6.4031Y-2.1992
X6.4031Y-2.8705
X6.4031Y-2.9492
X6.4031Y-3.6205
X6.4031Y-3.6992
X6.5774Y-3.2339
X6.5851Y-2.4941
X6.6331Y-3.1782
X6.6331Y-3.2896
X6.6408Y-2.5498
X6.6408Y-2.4384
X6.6888Y-3.2339
X6.6964Y-2.4941
X6.729Y-3.1087
X6.729Y-3.1874
X6.7502Y-2.437
X6.7502Y-2.3583
X6.8274Y-3.1087
X6.8274Y-3.1874
X6.829Y-2.3583
X6.829Y-2.437
X6.9484Y-4.0315
X7.0837Y-3.8716
X7.1157Y-4.0732
X7.1157Y-4.1519
X7.1531Y-1.6481
X7.1531Y-1.7268
X7.1531Y-2.4768
X7.1531Y-3.1481
X7.1531Y-2.3981
X7.1531Y-3.2268
X7.1747Y-3.6946
X7.1747Y-4.0496
X7.1749Y-4.1679
X7.2338Y-4.0732
X7.2338Y-4.1519
X7.296Y-3.9286
X7.297Y-4.1766
X7.3308Y-4.0724
X7.3373Y-4.2086
X7.3421Y-3.6946
X7.4373Y-4.2086
X7.4878Y-4.0174
X7.5069Y-2.8721
X7.5069Y-2.124
X7.5069Y-2.2028
X7.5069Y-2.9508
X7.512Y-3.6946
X7.5373Y-4.2086
X7.5665Y-4.0173
X7.5857Y-2.8721
X7.5857Y-2.124
X7.5857Y-2.2028
X7.5857Y-2.9508
X7.6373Y-4.2085
X7.6413Y-3.7637
X7.6453Y-4.0173
X7.65Y-3.6449
X7.724Y-4.0173
X7.7358Y-3.6035
X7.7373Y-4.2086
X7.7577Y-3.7664
X7.789Y-4.1185
X7.8027Y-4.0173
X7.8358Y-3.6035
X7.8373Y-4.2086
X7.9031Y-1.4118
X7.9031Y-1.4906
X7.9031Y-2.2406
X7.9031Y-2.1618
X7.9031Y-2.9118
X7.9031Y-2.9906
X7.9182Y-3.8954
X7.9358Y-3.6035
X7.9373Y-4.2086
X8.0358Y-3.6035
X8.0373Y-4.2086
X8.0429Y-3.937
X8.0429Y-4.089
X8.0704Y-3.7756
X8.1358Y-3.6035
X8.1373Y-4.2086
X8.2358Y-3.6035
X8.2373Y-4.2086
X8.2546Y-2.2012
X8.2546Y-2.1225
X8.255Y-2.8721
X8.255Y-2.9508
X8.3333Y-2.1225
X8.3333Y-2.2012
X8.3337Y-2.9508
X8.3337Y-2.8721
X8.3358Y-3.6035
X8.3373Y-4.2086
X8.354Y-3.7602
X8.4358Y-3.6035
X8.4373Y-4.2086
X8.4543Y-4.0383
X8.5153Y-4.0072
X8.5153Y-4.0702
X8.5358Y-3.6035
X8.5373Y-4.2086
X8.5941Y-4.0702
X8.5941Y-4.0072
X8.6358Y-3.6035
X8.6531Y-3.2465
X8.6531Y-3.1677
X8.6531Y-1.7465
X8.6531Y-1.6677
X8.6531Y-2.4965
X8.6531Y-2.4177
X8.7358Y-3.6035
X8.8358Y-3.6035
X8.9358Y-3.6035
X9.003Y-3.128
X9.003Y-3.2067
X9.003Y-2.3799
X9.003Y-2.4587
X9.0033Y-4.105
X9.0237Y-4.0289
X9.0358Y-3.6035
X9.0817Y-3.128
X9.0817Y-3.2067
X9.0817Y-2.3799
X9.0817Y-2.4587
X9.1358Y-3.6035
X9.2358Y-3.6035
X9.3358Y-3.6035
X9.4031Y-1.7661
X9.4031Y-1.8449
X9.4031Y-2.5949
X9.4031Y-3.2661
X9.4031Y-2.5161
X9.4031Y-3.3449
X9.4358Y-3.6035
X9.4846Y-4.0289
X9.5358Y-3.6035
X9.7712Y-4.4231
X9.7909Y-2.2762
X9.8106Y-4.3549
X9.9051Y-2.9146
X9.9051Y-2.7295
X9.9326Y-2.5669
X9.9326Y-2.4881
X9.9478Y-2.7782
X10.0389Y-2.4881
X10.0429Y-2.5669
X10.0478Y-2.8784
X10.1079Y-2.3232
X10.1981Y-2.7079
X10.2339Y-2.7447
X10.2339Y-3.4534
X10.2437Y-2.563
X10.2437Y-2.6463
X10.2437Y-2.4881
X10.2437Y-2.4101
X10.2791Y-2.3764
X10.2984Y-2.9146
X10.2988Y-3.5275
X10.4116Y-4.9147
X10.472Y-4.8561
T3
X1.5028Y-2.3769
X1.5028Y-2.4769
X1.5028Y-2.5769
X1.5028Y-2.6769
X1.5028Y-2.7769
X1.5028Y-2.8769
X1.5028Y-2.9769
X1.5028Y-3.0769
X1.5028Y-3.1769
X1.5028Y-3.2769
X1.5028Y-3.3769
X1.5028Y-3.4769
X1.6028Y-3.6351
X1.7028Y-3.6351
X1.8028Y-3.6351
X1.9028Y-3.6351
X2.0028Y-3.6351
X2.1028Y-2.3769
X2.1028Y-2.4769
X2.1028Y-2.5769
X2.1028Y-2.6769
X2.1028Y-2.7769
X2.1028Y-2.8769
X2.1028Y-2.9769
X2.1028Y-3.0769
X2.1028Y-3.1769
X2.1028Y-3.2769
X2.1028Y-3.3769
X2.1028Y-3.4769
X9.8478Y-2.3769
X9.8478Y-2.4769
X9.8478Y-2.5769
X9.8478Y-2.6769
X9.8478Y-2.7769
X9.8478Y-2.8769
X9.8478Y-2.9769
X9.8478Y-3.0769
X9.8478Y-3.1769
X9.8478Y-3.2769
X9.8478Y-3.3769
X9.8478Y-3.4769
X9.9478Y-3.6351
X10.0478Y-3.6351
X10.1478Y-3.6351
X10.2478Y-3.6351
X10.3478Y-3.6351
X10.4478Y-2.3769
X10.4478Y-2.4769
X10.4478Y-2.5769
X10.4478Y-2.6769
X10.4478Y-2.7769
X10.4478Y-2.8769
X10.4478Y-2.9769
X10.4478Y-3.0769
X10.4478Y-3.1769
X10.4478Y-3.2769
X10.4478Y-3.3769
X10.4478Y-3.4769
T4
X1.5118Y-2.1449
X2.0938Y-3.8204
X2.0938Y-2.1449
X9.8569Y-2.1449
X9.8569Y-3.8204
X10.4388Y-2.1449
T2
G00X1.5615Y-3.7296
M15
G01X1.5773Y-3.7296
M16
G05
G00X1.6796Y-3.7296
M15
G01X1.6954Y-3.7296
M16
G05
G00X1.8371Y-3.7296
M15
G01X1.8529Y-3.7296
M16
G05
G00X1.8804Y-3.9107
M15
G01X1.8962Y-3.9107
M16
G05
G00X10.0617Y-3.7299
M15
G01X10.0459Y-3.7299
M16
G05
G00X10.105Y-3.911
M15
G01X10.0892Y-3.911
M16
G05
G00X10.2624Y-3.911
M15
G01X10.2467Y-3.911
M16
G05
G00X10.3806Y-3.911
M15
G01X10.3648Y-3.911
M16
G05
T0
M30
