%TF.GenerationSoftware,KiCad,Pcbnew,7.0.7-2.fc38*%
%TF.CreationDate,2023-10-05T15:26:07+05:30*%
%TF.ProjectId,tako,74616b6f-2e6b-4696-9361-645f70636258,rev?*%
%TF.SameCoordinates,Original*%
%TF.FileFunction,Profile,NP*%
%FSLAX46Y46*%
G04 Gerber Fmt 4.6, Leading zero omitted, Abs format (unit mm)*
G04 Created by KiCad (PCBNEW 7.0.7-2.fc38) date 2023-10-05 15:26:07*
%MOMM*%
%LPD*%
G01*
G04 APERTURE LIST*
%TA.AperFunction,Profile*%
%ADD10C,0.050000*%
%TD*%
%TA.AperFunction,Profile*%
%ADD11C,0.100000*%
%TD*%
G04 APERTURE END LIST*
D10*
X150820443Y-60166057D02*
X150430942Y-60166057D01*
D11*
X276294057Y-111364599D02*
X268643644Y-111364387D01*
X34902248Y-111364422D02*
G75*
G03*
X36401834Y-109839598I-25448J1524822D01*
G01*
X277248315Y-126235007D02*
G75*
G03*
X277819057Y-124214599I-3379215J2045407D01*
G01*
D10*
X247788747Y-36379085D02*
G75*
G03*
X202739289Y-26334575I-45050047J-96003415D01*
G01*
X153114941Y-86246058D02*
X153114943Y-101485645D01*
X153114939Y-81166058D02*
X153114941Y-65246057D01*
X36400943Y-94264806D02*
X36400629Y-54480040D01*
X153114940Y-60166058D02*
X152725439Y-60166059D01*
X248364002Y-51980529D02*
X248364002Y-37284666D01*
X153114986Y-101485645D02*
G75*
G03*
X153588342Y-102335003I998414J-155D01*
G01*
X265145268Y-52479935D02*
G75*
G03*
X263145135Y-54479892I-268J-1999865D01*
G01*
D11*
X36401834Y-109839598D02*
X36400943Y-94264806D01*
D10*
X153588342Y-102335002D02*
G75*
G03*
X181689856Y-110035990I28101808J47422902D01*
G01*
X207751735Y-110035651D02*
X181689856Y-110035990D01*
X150430917Y-46085746D02*
G75*
G03*
X150107140Y-45349092I-999117J346D01*
G01*
D11*
X35746711Y-135879352D02*
X26297571Y-126235009D01*
D10*
X35746713Y-135879350D02*
G75*
G03*
X40579026Y-135740784I2340757J2698750D01*
G01*
X153114948Y-46085744D02*
X153114940Y-60166058D01*
X53181941Y-52480354D02*
G75*
G03*
X51181954Y-54480492I-41J-1999946D01*
G01*
X248864006Y-52480527D02*
X250363944Y-52480355D01*
X54681882Y-52480484D02*
G75*
G03*
X55181884Y-51980529I-182J500184D01*
G01*
X252363945Y-54480488D02*
G75*
G03*
X250363944Y-52480355I-1999845J288D01*
G01*
D11*
X25726834Y-124214598D02*
X25726834Y-112889598D01*
D10*
X40400885Y-55729819D02*
G75*
G03*
X40900935Y-56229815I500215J219D01*
G01*
X40400754Y-54479892D02*
X40400928Y-55729819D01*
X150107143Y-45349089D02*
G75*
G03*
X100806597Y-26334574I-49300483J-54405431D01*
G01*
X150430947Y-101485646D02*
X150430939Y-86246058D01*
X121856035Y-110035978D02*
G75*
G03*
X149957548Y-102335002I-135J55123378D01*
G01*
X252864111Y-56230419D02*
X262644956Y-56229817D01*
D11*
X277819101Y-112889599D02*
G75*
G03*
X276294057Y-111364599I-1525001J-1D01*
G01*
D10*
X262966844Y-135740807D02*
G75*
G03*
X267799180Y-135879352I2491556J2560207D01*
G01*
X153438732Y-45349074D02*
G75*
G03*
X153114948Y-46085744I676268J-736726D01*
G01*
X149957548Y-102335003D02*
G75*
G03*
X150430947Y-101485646I-525148J849303D01*
G01*
X121856035Y-110035989D02*
X95794156Y-110035649D01*
X152725371Y-65246086D02*
G75*
G03*
X150820441Y-65246057I-952471J-381114D01*
G01*
X267145259Y-54480041D02*
X267144942Y-94264804D01*
X95794156Y-110035647D02*
G75*
G03*
X40579028Y-135740785I232684J-72653953D01*
G01*
X100806597Y-26334573D02*
G75*
G03*
X55757144Y-36379092I503J-106047427D01*
G01*
X248363973Y-51980529D02*
G75*
G03*
X248864006Y-52480527I500027J29D01*
G01*
X150820439Y-81166058D02*
X150430940Y-81166057D01*
X150820372Y-60166086D02*
G75*
G03*
X152725438Y-60166059I952528J380786D01*
G01*
X40900935Y-56229815D02*
X50681774Y-56230421D01*
X252363931Y-54480488D02*
X252364104Y-55730421D01*
D11*
X25726831Y-124214598D02*
G75*
G03*
X26297572Y-126235009I3949969J24998D01*
G01*
D10*
X55181887Y-37284664D02*
X55181884Y-51980529D01*
X153114941Y-65246057D02*
X152725441Y-65246057D01*
X262644956Y-56229860D02*
G75*
G03*
X263144960Y-55729820I-156J500160D01*
G01*
D11*
X267144948Y-94264807D02*
X267144057Y-109839599D01*
D10*
X262966860Y-135740789D02*
G75*
G03*
X207751735Y-110035652I-55447800J-46948791D01*
G01*
X150820440Y-65246057D02*
X150430942Y-65246058D01*
X51181785Y-55730423D02*
X51181954Y-54480492D01*
X252364181Y-55730421D02*
G75*
G03*
X252864111Y-56230419I499919J-79D01*
G01*
X150820439Y-86246058D02*
X150430939Y-86246058D01*
X152725369Y-86246087D02*
G75*
G03*
X150820442Y-86246058I-952469J-381013D01*
G01*
X150430942Y-60166057D02*
X150430939Y-46085746D01*
D11*
X27251834Y-111364634D02*
G75*
G03*
X25726834Y-112889598I-34J-1524966D01*
G01*
D10*
X150820373Y-81166085D02*
G75*
G03*
X152725437Y-81166060I952527J380885D01*
G01*
X202739289Y-26334578D02*
G75*
G03*
X153438748Y-45349091I-89J-73419872D01*
G01*
X40400698Y-54479892D02*
G75*
G03*
X38400617Y-52479902I-1999898J92D01*
G01*
X248363971Y-37284666D02*
G75*
G03*
X247788744Y-36379091I-1000171J166D01*
G01*
X267145296Y-54480041D02*
G75*
G03*
X265145268Y-52479904I-2000296J-159D01*
G01*
X263144960Y-55729820D02*
X263145135Y-54479892D01*
X55757142Y-36379088D02*
G75*
G03*
X55181887Y-37284664I425058J-905512D01*
G01*
X153114939Y-81166058D02*
X152725439Y-81166055D01*
X150430942Y-65246058D02*
X150430940Y-81166057D01*
D11*
X267144101Y-109839599D02*
G75*
G03*
X268643644Y-111364387I1524999J-1D01*
G01*
D10*
X53181941Y-52480355D02*
X54681882Y-52480529D01*
X38400617Y-52479929D02*
G75*
G03*
X36400629Y-54480040I283J-2000271D01*
G01*
X153114941Y-86246058D02*
X152725442Y-86246056D01*
D11*
X277248320Y-126235010D02*
X267799180Y-135879353D01*
X277819057Y-112889599D02*
X277819057Y-124214599D01*
X34902247Y-111364386D02*
X27251834Y-111364598D01*
D10*
X50681774Y-56230385D02*
G75*
G03*
X51181785Y-55730423I26J499985D01*
G01*
M02*
