%TF.GenerationSoftware,KiCad,Pcbnew,7.0.7-2.fc38*%
%TF.CreationDate,2023-10-05T15:26:06+05:30*%
%TF.ProjectId,tako,74616b6f-2e6b-4696-9361-645f70636258,rev?*%
%TF.SameCoordinates,Original*%
%TF.FileFunction,Legend,Bot*%
%TF.FilePolarity,Positive*%
%FSLAX46Y46*%
G04 Gerber Fmt 4.6, Leading zero omitted, Abs format (unit mm)*
G04 Created by KiCad (PCBNEW 7.0.7-2.fc38) date 2023-10-05 15:26:06*
%MOMM*%
%LPD*%
G01*
G04 APERTURE LIST*
G04 Aperture macros list*
%AMRoundRect*
0 Rectangle with rounded corners*
0 $1 Rounding radius*
0 $2 $3 $4 $5 $6 $7 $8 $9 X,Y pos of 4 corners*
0 Add a 4 corners polygon primitive as box body*
4,1,4,$2,$3,$4,$5,$6,$7,$8,$9,$2,$3,0*
0 Add four circle primitives for the rounded corners*
1,1,$1+$1,$2,$3*
1,1,$1+$1,$4,$5*
1,1,$1+$1,$6,$7*
1,1,$1+$1,$8,$9*
0 Add four rect primitives between the rounded corners*
20,1,$1+$1,$2,$3,$4,$5,0*
20,1,$1+$1,$4,$5,$6,$7,0*
20,1,$1+$1,$6,$7,$8,$9,0*
20,1,$1+$1,$8,$9,$2,$3,0*%
G04 Aperture macros list end*
%ADD10C,0.150000*%
%ADD11C,0.100000*%
%ADD12C,0.200000*%
%ADD13C,0.120000*%
%ADD14R,1.752600X1.752600*%
%ADD15C,1.752600*%
%ADD16RoundRect,0.312500X-0.312500X-0.312500X0.312500X-0.312500X0.312500X0.312500X-0.312500X0.312500X0*%
%ADD17C,3.400000*%
%ADD18C,0.750000*%
%ADD19C,0.500000*%
%ADD20C,3.500000*%
%ADD21C,0.800000*%
%ADD22O,2.000000X1.600000*%
%ADD23RoundRect,0.312500X0.312500X0.312500X-0.312500X0.312500X-0.312500X-0.312500X0.312500X-0.312500X0*%
%ADD24RoundRect,0.120000X-0.480000X-0.280000X0.480000X-0.280000X0.480000X0.280000X-0.480000X0.280000X0*%
%ADD25C,0.900000*%
%ADD26RoundRect,0.105000X-0.245000X-0.645000X0.245000X-0.645000X0.245000X0.645000X-0.245000X0.645000X0*%
%ADD27RoundRect,0.250000X0.350000X0.450000X-0.350000X0.450000X-0.350000X-0.450000X0.350000X-0.450000X0*%
%ADD28RoundRect,0.250000X-0.350000X-0.450000X0.350000X-0.450000X0.350000X0.450000X-0.350000X0.450000X0*%
G04 APERTURE END LIST*
D10*
X43418610Y-62763754D02*
X43685277Y-62382801D01*
X43875753Y-62763754D02*
X43875753Y-61963754D01*
X43875753Y-61963754D02*
X43570991Y-61963754D01*
X43570991Y-61963754D02*
X43494801Y-62001849D01*
X43494801Y-62001849D02*
X43456706Y-62039944D01*
X43456706Y-62039944D02*
X43418610Y-62116135D01*
X43418610Y-62116135D02*
X43418610Y-62230420D01*
X43418610Y-62230420D02*
X43456706Y-62306611D01*
X43456706Y-62306611D02*
X43494801Y-62344706D01*
X43494801Y-62344706D02*
X43570991Y-62382801D01*
X43570991Y-62382801D02*
X43875753Y-62382801D01*
X42656706Y-62763754D02*
X43113849Y-62763754D01*
X42885277Y-62763754D02*
X42885277Y-61963754D01*
X42885277Y-61963754D02*
X42961468Y-62078039D01*
X42961468Y-62078039D02*
X43037658Y-62154230D01*
X43037658Y-62154230D02*
X43113849Y-62192325D01*
X42161467Y-61963754D02*
X42085277Y-61963754D01*
X42085277Y-61963754D02*
X42009086Y-62001849D01*
X42009086Y-62001849D02*
X41970991Y-62039944D01*
X41970991Y-62039944D02*
X41932896Y-62116135D01*
X41932896Y-62116135D02*
X41894801Y-62268516D01*
X41894801Y-62268516D02*
X41894801Y-62458992D01*
X41894801Y-62458992D02*
X41932896Y-62611373D01*
X41932896Y-62611373D02*
X41970991Y-62687563D01*
X41970991Y-62687563D02*
X42009086Y-62725659D01*
X42009086Y-62725659D02*
X42085277Y-62763754D01*
X42085277Y-62763754D02*
X42161467Y-62763754D01*
X42161467Y-62763754D02*
X42237658Y-62725659D01*
X42237658Y-62725659D02*
X42275753Y-62687563D01*
X42275753Y-62687563D02*
X42313848Y-62611373D01*
X42313848Y-62611373D02*
X42351944Y-62458992D01*
X42351944Y-62458992D02*
X42351944Y-62268516D01*
X42351944Y-62268516D02*
X42313848Y-62116135D01*
X42313848Y-62116135D02*
X42275753Y-62039944D01*
X42275753Y-62039944D02*
X42237658Y-62001849D01*
X42237658Y-62001849D02*
X42161467Y-61963754D01*
X41132896Y-62763754D02*
X41590039Y-62763754D01*
X41361467Y-62763754D02*
X41361467Y-61963754D01*
X41361467Y-61963754D02*
X41437658Y-62078039D01*
X41437658Y-62078039D02*
X41513848Y-62154230D01*
X41513848Y-62154230D02*
X41590039Y-62192325D01*
X43418609Y-64578352D02*
X43685276Y-64197399D01*
X43875752Y-64578352D02*
X43875752Y-63778352D01*
X43875752Y-63778352D02*
X43570990Y-63778352D01*
X43570990Y-63778352D02*
X43494800Y-63816447D01*
X43494800Y-63816447D02*
X43456705Y-63854542D01*
X43456705Y-63854542D02*
X43418609Y-63930733D01*
X43418609Y-63930733D02*
X43418609Y-64045018D01*
X43418609Y-64045018D02*
X43456705Y-64121209D01*
X43456705Y-64121209D02*
X43494800Y-64159304D01*
X43494800Y-64159304D02*
X43570990Y-64197399D01*
X43570990Y-64197399D02*
X43875752Y-64197399D01*
X42656705Y-64578352D02*
X43113848Y-64578352D01*
X42885276Y-64578352D02*
X42885276Y-63778352D01*
X42885276Y-63778352D02*
X42961467Y-63892637D01*
X42961467Y-63892637D02*
X43037657Y-63968828D01*
X43037657Y-63968828D02*
X43113848Y-64006923D01*
X42161466Y-63778352D02*
X42085276Y-63778352D01*
X42085276Y-63778352D02*
X42009085Y-63816447D01*
X42009085Y-63816447D02*
X41970990Y-63854542D01*
X41970990Y-63854542D02*
X41932895Y-63930733D01*
X41932895Y-63930733D02*
X41894800Y-64083114D01*
X41894800Y-64083114D02*
X41894800Y-64273590D01*
X41894800Y-64273590D02*
X41932895Y-64425971D01*
X41932895Y-64425971D02*
X41970990Y-64502161D01*
X41970990Y-64502161D02*
X42009085Y-64540257D01*
X42009085Y-64540257D02*
X42085276Y-64578352D01*
X42085276Y-64578352D02*
X42161466Y-64578352D01*
X42161466Y-64578352D02*
X42237657Y-64540257D01*
X42237657Y-64540257D02*
X42275752Y-64502161D01*
X42275752Y-64502161D02*
X42313847Y-64425971D01*
X42313847Y-64425971D02*
X42351943Y-64273590D01*
X42351943Y-64273590D02*
X42351943Y-64083114D01*
X42351943Y-64083114D02*
X42313847Y-63930733D01*
X42313847Y-63930733D02*
X42275752Y-63854542D01*
X42275752Y-63854542D02*
X42237657Y-63816447D01*
X42237657Y-63816447D02*
X42161466Y-63778352D01*
X41590038Y-63854542D02*
X41551942Y-63816447D01*
X41551942Y-63816447D02*
X41475752Y-63778352D01*
X41475752Y-63778352D02*
X41285276Y-63778352D01*
X41285276Y-63778352D02*
X41209085Y-63816447D01*
X41209085Y-63816447D02*
X41170990Y-63854542D01*
X41170990Y-63854542D02*
X41132895Y-63930733D01*
X41132895Y-63930733D02*
X41132895Y-64006923D01*
X41132895Y-64006923D02*
X41170990Y-64121209D01*
X41170990Y-64121209D02*
X41628133Y-64578352D01*
X41628133Y-64578352D02*
X41132895Y-64578352D01*
X263492669Y-59898478D02*
X262921241Y-59898478D01*
X263206955Y-60898478D02*
X263206955Y-59898478D01*
X262683145Y-59898478D02*
X262016479Y-60898478D01*
X262016479Y-59898478D02*
X262683145Y-60898478D01*
X261445050Y-59898478D02*
X261349812Y-59898478D01*
X261349812Y-59898478D02*
X261254574Y-59946097D01*
X261254574Y-59946097D02*
X261206955Y-59993716D01*
X261206955Y-59993716D02*
X261159336Y-60088954D01*
X261159336Y-60088954D02*
X261111717Y-60279430D01*
X261111717Y-60279430D02*
X261111717Y-60517525D01*
X261111717Y-60517525D02*
X261159336Y-60708001D01*
X261159336Y-60708001D02*
X261206955Y-60803239D01*
X261206955Y-60803239D02*
X261254574Y-60850859D01*
X261254574Y-60850859D02*
X261349812Y-60898478D01*
X261349812Y-60898478D02*
X261445050Y-60898478D01*
X261445050Y-60898478D02*
X261540288Y-60850859D01*
X261540288Y-60850859D02*
X261587907Y-60803239D01*
X261587907Y-60803239D02*
X261635526Y-60708001D01*
X261635526Y-60708001D02*
X261683145Y-60517525D01*
X261683145Y-60517525D02*
X261683145Y-60279430D01*
X261683145Y-60279430D02*
X261635526Y-60088954D01*
X261635526Y-60088954D02*
X261587907Y-59993716D01*
X261587907Y-59993716D02*
X261540288Y-59946097D01*
X261540288Y-59946097D02*
X261445050Y-59898478D01*
X253845051Y-60898478D02*
X254178384Y-60422287D01*
X254416479Y-60898478D02*
X254416479Y-59898478D01*
X254416479Y-59898478D02*
X254035527Y-59898478D01*
X254035527Y-59898478D02*
X253940289Y-59946097D01*
X253940289Y-59946097D02*
X253892670Y-59993716D01*
X253892670Y-59993716D02*
X253845051Y-60088954D01*
X253845051Y-60088954D02*
X253845051Y-60231811D01*
X253845051Y-60231811D02*
X253892670Y-60327049D01*
X253892670Y-60327049D02*
X253940289Y-60374668D01*
X253940289Y-60374668D02*
X254035527Y-60422287D01*
X254035527Y-60422287D02*
X254416479Y-60422287D01*
X253464098Y-60612763D02*
X252987908Y-60612763D01*
X253559336Y-60898478D02*
X253226003Y-59898478D01*
X253226003Y-59898478D02*
X252892670Y-60898478D01*
X252654574Y-59898478D02*
X252416479Y-60898478D01*
X252416479Y-60898478D02*
X252226003Y-60184192D01*
X252226003Y-60184192D02*
X252035527Y-60898478D01*
X252035527Y-60898478D02*
X251797432Y-59898478D01*
X255356706Y-66463752D02*
X255623373Y-66082799D01*
X255813849Y-66463752D02*
X255813849Y-65663752D01*
X255813849Y-65663752D02*
X255509087Y-65663752D01*
X255509087Y-65663752D02*
X255432897Y-65701847D01*
X255432897Y-65701847D02*
X255394802Y-65739942D01*
X255394802Y-65739942D02*
X255356706Y-65816133D01*
X255356706Y-65816133D02*
X255356706Y-65930418D01*
X255356706Y-65930418D02*
X255394802Y-66006609D01*
X255394802Y-66006609D02*
X255432897Y-66044704D01*
X255432897Y-66044704D02*
X255509087Y-66082799D01*
X255509087Y-66082799D02*
X255813849Y-66082799D01*
X255090040Y-65663752D02*
X254594802Y-65663752D01*
X254594802Y-65663752D02*
X254861468Y-65968514D01*
X254861468Y-65968514D02*
X254747183Y-65968514D01*
X254747183Y-65968514D02*
X254670992Y-66006609D01*
X254670992Y-66006609D02*
X254632897Y-66044704D01*
X254632897Y-66044704D02*
X254594802Y-66120895D01*
X254594802Y-66120895D02*
X254594802Y-66311371D01*
X254594802Y-66311371D02*
X254632897Y-66387561D01*
X254632897Y-66387561D02*
X254670992Y-66425657D01*
X254670992Y-66425657D02*
X254747183Y-66463752D01*
X254747183Y-66463752D02*
X254975754Y-66463752D01*
X254975754Y-66463752D02*
X255051945Y-66425657D01*
X255051945Y-66425657D02*
X255090040Y-66387561D01*
X51529405Y-59898477D02*
X50957977Y-59898477D01*
X51243691Y-60898477D02*
X51243691Y-59898477D01*
X50719881Y-59898477D02*
X50053215Y-60898477D01*
X50053215Y-59898477D02*
X50719881Y-60898477D01*
X49481786Y-59898477D02*
X49386548Y-59898477D01*
X49386548Y-59898477D02*
X49291310Y-59946096D01*
X49291310Y-59946096D02*
X49243691Y-59993715D01*
X49243691Y-59993715D02*
X49196072Y-60088953D01*
X49196072Y-60088953D02*
X49148453Y-60279429D01*
X49148453Y-60279429D02*
X49148453Y-60517524D01*
X49148453Y-60517524D02*
X49196072Y-60708000D01*
X49196072Y-60708000D02*
X49243691Y-60803238D01*
X49243691Y-60803238D02*
X49291310Y-60850858D01*
X49291310Y-60850858D02*
X49386548Y-60898477D01*
X49386548Y-60898477D02*
X49481786Y-60898477D01*
X49481786Y-60898477D02*
X49577024Y-60850858D01*
X49577024Y-60850858D02*
X49624643Y-60803238D01*
X49624643Y-60803238D02*
X49672262Y-60708000D01*
X49672262Y-60708000D02*
X49719881Y-60517524D01*
X49719881Y-60517524D02*
X49719881Y-60279429D01*
X49719881Y-60279429D02*
X49672262Y-60088953D01*
X49672262Y-60088953D02*
X49624643Y-59993715D01*
X49624643Y-59993715D02*
X49577024Y-59946096D01*
X49577024Y-59946096D02*
X49481786Y-59898477D01*
X41881787Y-60898477D02*
X42215120Y-60422286D01*
X42453215Y-60898477D02*
X42453215Y-59898477D01*
X42453215Y-59898477D02*
X42072263Y-59898477D01*
X42072263Y-59898477D02*
X41977025Y-59946096D01*
X41977025Y-59946096D02*
X41929406Y-59993715D01*
X41929406Y-59993715D02*
X41881787Y-60088953D01*
X41881787Y-60088953D02*
X41881787Y-60231810D01*
X41881787Y-60231810D02*
X41929406Y-60327048D01*
X41929406Y-60327048D02*
X41977025Y-60374667D01*
X41977025Y-60374667D02*
X42072263Y-60422286D01*
X42072263Y-60422286D02*
X42453215Y-60422286D01*
X41500834Y-60612762D02*
X41024644Y-60612762D01*
X41596072Y-60898477D02*
X41262739Y-59898477D01*
X41262739Y-59898477D02*
X40929406Y-60898477D01*
X40691310Y-59898477D02*
X40453215Y-60898477D01*
X40453215Y-60898477D02*
X40262739Y-60184191D01*
X40262739Y-60184191D02*
X40072263Y-60898477D01*
X40072263Y-60898477D02*
X39834168Y-59898477D01*
X255356703Y-64563753D02*
X255623370Y-64182800D01*
X255813846Y-64563753D02*
X255813846Y-63763753D01*
X255813846Y-63763753D02*
X255509084Y-63763753D01*
X255509084Y-63763753D02*
X255432894Y-63801848D01*
X255432894Y-63801848D02*
X255394799Y-63839943D01*
X255394799Y-63839943D02*
X255356703Y-63916134D01*
X255356703Y-63916134D02*
X255356703Y-64030419D01*
X255356703Y-64030419D02*
X255394799Y-64106610D01*
X255394799Y-64106610D02*
X255432894Y-64144705D01*
X255432894Y-64144705D02*
X255509084Y-64182800D01*
X255509084Y-64182800D02*
X255813846Y-64182800D01*
X255051942Y-63839943D02*
X255013846Y-63801848D01*
X255013846Y-63801848D02*
X254937656Y-63763753D01*
X254937656Y-63763753D02*
X254747180Y-63763753D01*
X254747180Y-63763753D02*
X254670989Y-63801848D01*
X254670989Y-63801848D02*
X254632894Y-63839943D01*
X254632894Y-63839943D02*
X254594799Y-63916134D01*
X254594799Y-63916134D02*
X254594799Y-63992324D01*
X254594799Y-63992324D02*
X254632894Y-64106610D01*
X254632894Y-64106610D02*
X255090037Y-64563753D01*
X255090037Y-64563753D02*
X254594799Y-64563753D01*
X255356703Y-62578353D02*
X255623370Y-62197400D01*
X255813846Y-62578353D02*
X255813846Y-61778353D01*
X255813846Y-61778353D02*
X255509084Y-61778353D01*
X255509084Y-61778353D02*
X255432894Y-61816448D01*
X255432894Y-61816448D02*
X255394799Y-61854543D01*
X255394799Y-61854543D02*
X255356703Y-61930734D01*
X255356703Y-61930734D02*
X255356703Y-62045019D01*
X255356703Y-62045019D02*
X255394799Y-62121210D01*
X255394799Y-62121210D02*
X255432894Y-62159305D01*
X255432894Y-62159305D02*
X255509084Y-62197400D01*
X255509084Y-62197400D02*
X255813846Y-62197400D01*
X254594799Y-62578353D02*
X255051942Y-62578353D01*
X254823370Y-62578353D02*
X254823370Y-61778353D01*
X254823370Y-61778353D02*
X254899561Y-61892638D01*
X254899561Y-61892638D02*
X254975751Y-61968829D01*
X254975751Y-61968829D02*
X255051942Y-62006924D01*
X43418611Y-66463752D02*
X43685278Y-66082799D01*
X43875754Y-66463752D02*
X43875754Y-65663752D01*
X43875754Y-65663752D02*
X43570992Y-65663752D01*
X43570992Y-65663752D02*
X43494802Y-65701847D01*
X43494802Y-65701847D02*
X43456707Y-65739942D01*
X43456707Y-65739942D02*
X43418611Y-65816133D01*
X43418611Y-65816133D02*
X43418611Y-65930418D01*
X43418611Y-65930418D02*
X43456707Y-66006609D01*
X43456707Y-66006609D02*
X43494802Y-66044704D01*
X43494802Y-66044704D02*
X43570992Y-66082799D01*
X43570992Y-66082799D02*
X43875754Y-66082799D01*
X42656707Y-66463752D02*
X43113850Y-66463752D01*
X42885278Y-66463752D02*
X42885278Y-65663752D01*
X42885278Y-65663752D02*
X42961469Y-65778037D01*
X42961469Y-65778037D02*
X43037659Y-65854228D01*
X43037659Y-65854228D02*
X43113850Y-65892323D01*
X42161468Y-65663752D02*
X42085278Y-65663752D01*
X42085278Y-65663752D02*
X42009087Y-65701847D01*
X42009087Y-65701847D02*
X41970992Y-65739942D01*
X41970992Y-65739942D02*
X41932897Y-65816133D01*
X41932897Y-65816133D02*
X41894802Y-65968514D01*
X41894802Y-65968514D02*
X41894802Y-66158990D01*
X41894802Y-66158990D02*
X41932897Y-66311371D01*
X41932897Y-66311371D02*
X41970992Y-66387561D01*
X41970992Y-66387561D02*
X42009087Y-66425657D01*
X42009087Y-66425657D02*
X42085278Y-66463752D01*
X42085278Y-66463752D02*
X42161468Y-66463752D01*
X42161468Y-66463752D02*
X42237659Y-66425657D01*
X42237659Y-66425657D02*
X42275754Y-66387561D01*
X42275754Y-66387561D02*
X42313849Y-66311371D01*
X42313849Y-66311371D02*
X42351945Y-66158990D01*
X42351945Y-66158990D02*
X42351945Y-65968514D01*
X42351945Y-65968514D02*
X42313849Y-65816133D01*
X42313849Y-65816133D02*
X42275754Y-65739942D01*
X42275754Y-65739942D02*
X42237659Y-65701847D01*
X42237659Y-65701847D02*
X42161468Y-65663752D01*
X41628135Y-65663752D02*
X41132897Y-65663752D01*
X41132897Y-65663752D02*
X41399563Y-65968514D01*
X41399563Y-65968514D02*
X41285278Y-65968514D01*
X41285278Y-65968514D02*
X41209087Y-66006609D01*
X41209087Y-66006609D02*
X41170992Y-66044704D01*
X41170992Y-66044704D02*
X41132897Y-66120895D01*
X41132897Y-66120895D02*
X41132897Y-66311371D01*
X41132897Y-66311371D02*
X41170992Y-66387561D01*
X41170992Y-66387561D02*
X41209087Y-66425657D01*
X41209087Y-66425657D02*
X41285278Y-66463752D01*
X41285278Y-66463752D02*
X41513849Y-66463752D01*
X41513849Y-66463752D02*
X41590040Y-66425657D01*
X41590040Y-66425657D02*
X41628135Y-66387561D01*
D11*
%TO.C,BAT_HOLE-101*%
X37405480Y-58169423D02*
X37405480Y-57469423D01*
X37805480Y-57069423D02*
X39505480Y-57069423D01*
X39155480Y-57819423D02*
X39655480Y-57819423D01*
X39505480Y-58569423D02*
X37805480Y-58569423D01*
X39905480Y-57469423D02*
X39905480Y-58169423D01*
X37805480Y-57069423D02*
G75*
G03*
X37405480Y-57469423I-1J-399999D01*
G01*
X37405480Y-58169423D02*
G75*
G03*
X37805480Y-58569423I399999J-1D01*
G01*
X39905480Y-57469423D02*
G75*
G03*
X39505480Y-57069423I-400000J0D01*
G01*
X39505480Y-58569423D02*
G75*
G03*
X39905480Y-58169423I0J400000D01*
G01*
%TO.C,BAT_HOLE+1*%
X249366908Y-58169421D02*
X249366908Y-57469421D01*
X249766908Y-57069421D02*
X251466908Y-57069421D01*
X251116908Y-57819421D02*
X251616908Y-57819421D01*
X251366908Y-57569421D02*
X251366908Y-58069421D01*
X251466908Y-58569421D02*
X249766908Y-58569421D01*
X251866908Y-57469421D02*
X251866908Y-58169421D01*
X249766908Y-57069421D02*
G75*
G03*
X249366908Y-57469421I-1J-399999D01*
G01*
X249366908Y-58169421D02*
G75*
G03*
X249766908Y-58569421I399999J-1D01*
G01*
X251866908Y-57469421D02*
G75*
G03*
X251466908Y-57069421I-400000J0D01*
G01*
X251466908Y-58569421D02*
G75*
G03*
X251866908Y-58169421I0J400000D01*
G01*
%TO.C,BAT_HOLE+101*%
X54178978Y-57469423D02*
X54178978Y-58169423D01*
X53778978Y-58569423D02*
X52078978Y-58569423D01*
X52428978Y-57819423D02*
X51928978Y-57819423D01*
X52178978Y-58069423D02*
X52178978Y-57569423D01*
X52078978Y-57069423D02*
X53778978Y-57069423D01*
X51678978Y-58169423D02*
X51678978Y-57469423D01*
X53778978Y-58569423D02*
G75*
G03*
X54178978Y-58169423I1J399999D01*
G01*
X54178978Y-57469423D02*
G75*
G03*
X53778978Y-57069423I-399999J1D01*
G01*
X51678978Y-58169423D02*
G75*
G03*
X52078978Y-58569423I400000J0D01*
G01*
X52078978Y-57069423D02*
G75*
G03*
X51678978Y-57469423I0J-400000D01*
G01*
%TO.C,BAT_HOLE-1*%
X266140409Y-57469423D02*
X266140409Y-58169423D01*
X265740409Y-58569423D02*
X264040409Y-58569423D01*
X264390409Y-57819423D02*
X263890409Y-57819423D01*
X264040409Y-57069423D02*
X265740409Y-57069423D01*
X263640409Y-58169423D02*
X263640409Y-57469423D01*
X265740409Y-58569423D02*
G75*
G03*
X266140409Y-58169423I1J399999D01*
G01*
X266140409Y-57469423D02*
G75*
G03*
X265740409Y-57069423I-399999J1D01*
G01*
X263640409Y-58169423D02*
G75*
G03*
X264040409Y-58569423I400000J0D01*
G01*
X264040409Y-57069423D02*
G75*
G03*
X263640409Y-57469423I0J-400000D01*
G01*
D12*
%TO.C,PSW1*%
X254354580Y-58342138D02*
X254354580Y-57342138D01*
X256054580Y-59262138D02*
X257954580Y-59262138D01*
X259054580Y-59262138D02*
X259454580Y-59262138D01*
X261154580Y-57342138D02*
X261154580Y-58342138D01*
D13*
%TO.C,R101*%
X46000436Y-62977136D02*
X45546308Y-62977136D01*
X46000436Y-61507136D02*
X45546308Y-61507136D01*
D12*
%TO.C,PSW101*%
X42391307Y-58342135D02*
X42391307Y-57342135D01*
X44091307Y-59262135D02*
X45991307Y-59262135D01*
X47091307Y-59262135D02*
X47491307Y-59262135D01*
X49191307Y-57342135D02*
X49191307Y-58342135D01*
D13*
%TO.C,R102*%
X45546310Y-63457135D02*
X46000438Y-63457135D01*
X45546310Y-64927135D02*
X46000438Y-64927135D01*
%TO.C,R3*%
X257999582Y-66877134D02*
X257545454Y-66877134D01*
X257999582Y-65407134D02*
X257545454Y-65407134D01*
%TO.C,R2*%
X257999577Y-64927137D02*
X257545449Y-64927137D01*
X257999577Y-63457137D02*
X257545449Y-63457137D01*
%TO.C,R1*%
X257545450Y-61507136D02*
X257999578Y-61507136D01*
X257545450Y-62977136D02*
X257999578Y-62977136D01*
%TO.C,R103*%
X45546308Y-65407134D02*
X46000436Y-65407134D01*
X45546308Y-66877134D02*
X46000436Y-66877134D01*
%TD*%
D14*
%TO.C,U1*%
X265374575Y-60373659D03*
D15*
X265374575Y-62913659D03*
X265374575Y-65453659D03*
X265374575Y-67993659D03*
X265374575Y-70533659D03*
X265374575Y-73073659D03*
X265374575Y-75613659D03*
X265374575Y-78153659D03*
X265374575Y-80693659D03*
X265374575Y-83233659D03*
X265374575Y-85773659D03*
X265374575Y-88313659D03*
X250134575Y-88313659D03*
X250134575Y-85773659D03*
X250134575Y-83233659D03*
X250134575Y-80693659D03*
X250134575Y-78153659D03*
X250134575Y-75613659D03*
X250134575Y-73073659D03*
X250134575Y-70533659D03*
X250134575Y-67993659D03*
X250134575Y-65453659D03*
X250134575Y-62913659D03*
X250134575Y-60373659D03*
%TD*%
D14*
%TO.C,U101*%
X53411311Y-60373658D03*
D15*
X53411311Y-62913658D03*
X53411311Y-65453658D03*
X53411311Y-67993658D03*
X53411311Y-70533658D03*
X53411311Y-73073658D03*
X53411311Y-75613658D03*
X53411311Y-78153658D03*
X53411311Y-80693658D03*
X53411311Y-83233658D03*
X53411311Y-85773658D03*
X53411311Y-88313658D03*
X38171311Y-88313658D03*
X38171311Y-85773658D03*
X38171311Y-83233658D03*
X38171311Y-80693658D03*
X38171311Y-78153658D03*
X38171311Y-75613658D03*
X38171311Y-73073658D03*
X38171311Y-70533658D03*
X38171311Y-67993658D03*
X38171311Y-65453658D03*
X38171311Y-62913658D03*
X38171311Y-60373658D03*
%TD*%
%LPC*%
D16*
%TO.C,BAT_HOLE-101*%
X38155480Y-57819423D03*
%TD*%
D17*
%TO.C,H103*%
X140906339Y-83435489D03*
%TD*%
%TO.C,H1*%
X162639543Y-44666058D03*
%TD*%
%TO.C,H102*%
X140906350Y-64385490D03*
%TD*%
D18*
%TO.C,RSW1*%
X266490971Y-105420627D03*
X263740971Y-105420627D03*
%TD*%
D17*
%TO.C,H18*%
X45829990Y-116671093D03*
%TD*%
D19*
%TO.C,mouse-bite-2mm-slot*%
X150753549Y-60678491D03*
X150753549Y-61694491D03*
X150753549Y-62710491D03*
X150753549Y-63726491D03*
X150753549Y-64742491D03*
X152785549Y-60678491D03*
X152785549Y-61694491D03*
X152785549Y-62710491D03*
X152785549Y-63726491D03*
X152785549Y-64742491D03*
%TD*%
D16*
%TO.C,BAT_HOLE+1*%
X250116908Y-57819421D03*
%TD*%
D17*
%TO.C,H9*%
X219789549Y-33166058D03*
%TD*%
%TO.C,H110*%
X64706339Y-35666056D03*
%TD*%
D20*
%TO.C,H115*%
X53181889Y-54480531D03*
%TD*%
D17*
%TO.C,H108*%
X102806338Y-86959989D03*
%TD*%
%TO.C,H10*%
X238839551Y-35666058D03*
%TD*%
D20*
%TO.C,H17*%
X250364002Y-97039421D03*
%TD*%
D17*
%TO.C,H105*%
X126906338Y-94960499D03*
%TD*%
%TO.C,H13*%
X239297894Y-106243092D03*
%TD*%
%TO.C,H2*%
X162639541Y-64385492D03*
%TD*%
%TO.C,H112*%
X64706342Y-74434994D03*
%TD*%
%TO.C,H5*%
X176639550Y-94960499D03*
%TD*%
%TO.C,H113*%
X64247990Y-106243093D03*
%TD*%
D20*
%TO.C,H116*%
X38400564Y-54480077D03*
%TD*%
D17*
%TO.C,H104*%
X121856340Y-32666056D03*
%TD*%
%TO.C,H107*%
X102806347Y-65434996D03*
%TD*%
D20*
%TO.C,H15*%
X250364001Y-54480531D03*
%TD*%
D21*
%TO.C,J1*%
X265065975Y-97039423D03*
X258065975Y-97039423D03*
D22*
X255365975Y-94739423D03*
X263465975Y-99339423D03*
X260465975Y-99339423D03*
X256465975Y-99339423D03*
%TD*%
D17*
%TO.C,H14*%
X274694073Y-117014750D03*
%TD*%
%TO.C,H114*%
X28851834Y-117014598D03*
%TD*%
D20*
%TO.C,H117*%
X53181888Y-97039423D03*
%TD*%
D17*
%TO.C,H12*%
X238839549Y-74434995D03*
%TD*%
%TO.C,H6*%
X200739542Y-46384998D03*
%TD*%
D19*
%TO.C,mouse-bite-2mm-slot*%
X150753551Y-81678492D03*
X150753551Y-82694492D03*
X150753551Y-83710492D03*
X150753551Y-84726492D03*
X150753551Y-85742492D03*
X152785551Y-81678492D03*
X152785551Y-82694492D03*
X152785551Y-83710492D03*
X152785551Y-84726492D03*
X152785551Y-85742492D03*
%TD*%
D17*
%TO.C,H101*%
X140906345Y-44666058D03*
%TD*%
D23*
%TO.C,BAT_HOLE+101*%
X53428978Y-57819423D03*
%TD*%
D17*
%TO.C,H4*%
X181689545Y-32666057D03*
%TD*%
%TO.C,H11*%
X238839549Y-55384995D03*
%TD*%
D15*
%TO.C,DISP1*%
X252674330Y-92332635D03*
X255214330Y-92332635D03*
X257754330Y-92332635D03*
X260294330Y-92332635D03*
X262834330Y-92332635D03*
%TD*%
%TO.C,DISP101*%
X40711557Y-92332635D03*
X43251557Y-92332635D03*
X45791557Y-92332635D03*
X48331557Y-92332635D03*
X50871557Y-92332635D03*
%TD*%
D17*
%TO.C,H109*%
X83756337Y-33166058D03*
%TD*%
D20*
%TO.C,H16*%
X265145326Y-54480079D03*
%TD*%
D17*
%TO.C,H7*%
X200739541Y-65434995D03*
%TD*%
D23*
%TO.C,BAT_HOLE-1*%
X265390409Y-57819423D03*
%TD*%
D21*
%TO.C,J101*%
X38262468Y-97030596D03*
X45262468Y-97030596D03*
D22*
X47962468Y-99330596D03*
X39862468Y-94730596D03*
X42862468Y-94730596D03*
X46862468Y-94730596D03*
%TD*%
D18*
%TO.C,RSW101*%
X37062468Y-105230596D03*
X39812468Y-105230596D03*
%TD*%
D17*
%TO.C,H111*%
X64706336Y-55384996D03*
%TD*%
%TO.C,H3*%
X162639550Y-83435488D03*
%TD*%
%TO.C,H19*%
X257715972Y-116670626D03*
%TD*%
%TO.C,H8*%
X200739548Y-86959992D03*
%TD*%
%TO.C,H106*%
X102806346Y-46384994D03*
%TD*%
D24*
%TO.C,PSW1*%
X254004580Y-56712138D03*
X254004580Y-58922138D03*
D25*
X256254580Y-57812138D03*
X259254580Y-57812138D03*
D24*
X261504580Y-56712138D03*
X261504580Y-58922138D03*
D26*
X255504580Y-59572138D03*
X258504580Y-59572138D03*
X260004580Y-59572138D03*
%TD*%
D27*
%TO.C,R101*%
X46773372Y-62242136D03*
X44773372Y-62242136D03*
%TD*%
D24*
%TO.C,PSW101*%
X42041307Y-56712135D03*
X42041307Y-58922135D03*
D25*
X44291307Y-57812135D03*
X47291307Y-57812135D03*
D24*
X49541307Y-56712135D03*
X49541307Y-58922135D03*
D26*
X43541307Y-59572135D03*
X46541307Y-59572135D03*
X48041307Y-59572135D03*
%TD*%
D28*
%TO.C,R102*%
X44773374Y-64192135D03*
X46773374Y-64192135D03*
%TD*%
D14*
%TO.C,U1*%
X265374575Y-60373659D03*
D15*
X265374575Y-62913659D03*
X265374575Y-65453659D03*
X265374575Y-67993659D03*
X265374575Y-70533659D03*
X265374575Y-73073659D03*
X265374575Y-75613659D03*
X265374575Y-78153659D03*
X265374575Y-80693659D03*
X265374575Y-83233659D03*
X265374575Y-85773659D03*
X265374575Y-88313659D03*
X250134575Y-88313659D03*
X250134575Y-85773659D03*
X250134575Y-83233659D03*
X250134575Y-80693659D03*
X250134575Y-78153659D03*
X250134575Y-75613659D03*
X250134575Y-73073659D03*
X250134575Y-70533659D03*
X250134575Y-67993659D03*
X250134575Y-65453659D03*
X250134575Y-62913659D03*
X250134575Y-60373659D03*
%TD*%
D27*
%TO.C,R3*%
X258772518Y-66142134D03*
X256772518Y-66142134D03*
%TD*%
D14*
%TO.C,U101*%
X53411311Y-60373658D03*
D15*
X53411311Y-62913658D03*
X53411311Y-65453658D03*
X53411311Y-67993658D03*
X53411311Y-70533658D03*
X53411311Y-73073658D03*
X53411311Y-75613658D03*
X53411311Y-78153658D03*
X53411311Y-80693658D03*
X53411311Y-83233658D03*
X53411311Y-85773658D03*
X53411311Y-88313658D03*
X38171311Y-88313658D03*
X38171311Y-85773658D03*
X38171311Y-83233658D03*
X38171311Y-80693658D03*
X38171311Y-78153658D03*
X38171311Y-75613658D03*
X38171311Y-73073658D03*
X38171311Y-70533658D03*
X38171311Y-67993658D03*
X38171311Y-65453658D03*
X38171311Y-62913658D03*
X38171311Y-60373658D03*
%TD*%
D27*
%TO.C,R2*%
X258772513Y-64192137D03*
X256772513Y-64192137D03*
%TD*%
D28*
%TO.C,R1*%
X256772514Y-62242136D03*
X258772514Y-62242136D03*
%TD*%
%TO.C,R103*%
X44773372Y-66142134D03*
X46773372Y-66142134D03*
%TD*%
%LPD*%
M02*
