%TF.GenerationSoftware,KiCad,Pcbnew,7.0.7-2.fc38*%
%TF.CreationDate,2023-10-05T15:26:06+05:30*%
%TF.ProjectId,tako,74616b6f-2e6b-4696-9361-645f70636258,rev?*%
%TF.SameCoordinates,Original*%
%TF.FileFunction,Legend,Top*%
%TF.FilePolarity,Positive*%
%FSLAX46Y46*%
G04 Gerber Fmt 4.6, Leading zero omitted, Abs format (unit mm)*
G04 Created by KiCad (PCBNEW 7.0.7-2.fc38) date 2023-10-05 15:26:06*
%MOMM*%
%LPD*%
G01*
G04 APERTURE LIST*
G04 Aperture macros list*
%AMRoundRect*
0 Rectangle with rounded corners*
0 $1 Rounding radius*
0 $2 $3 $4 $5 $6 $7 $8 $9 X,Y pos of 4 corners*
0 Add a 4 corners polygon primitive as box body*
4,1,4,$2,$3,$4,$5,$6,$7,$8,$9,$2,$3,0*
0 Add four circle primitives for the rounded corners*
1,1,$1+$1,$2,$3*
1,1,$1+$1,$4,$5*
1,1,$1+$1,$6,$7*
1,1,$1+$1,$8,$9*
0 Add four rect primitives between the rounded corners*
20,1,$1+$1,$2,$3,$4,$5,0*
20,1,$1+$1,$4,$5,$6,$7,0*
20,1,$1+$1,$6,$7,$8,$9,0*
20,1,$1+$1,$8,$9,$2,$3,0*%
G04 Aperture macros list end*
%ADD10C,0.150000*%
%ADD11C,0.100000*%
%ADD12C,0.120000*%
%ADD13C,0.900000*%
%ADD14C,0.381000*%
%ADD15R,1.752600X1.752600*%
%ADD16C,1.752600*%
%ADD17RoundRect,0.312500X-0.312500X-0.312500X0.312500X-0.312500X0.312500X0.312500X-0.312500X0.312500X0*%
%ADD18C,3.400000*%
%ADD19RoundRect,0.250000X0.350000X0.450000X-0.350000X0.450000X-0.350000X-0.450000X0.350000X-0.450000X0*%
%ADD20RoundRect,0.250000X0.337500X0.475000X-0.337500X0.475000X-0.337500X-0.475000X0.337500X-0.475000X0*%
%ADD21RoundRect,0.250000X-0.450000X0.350000X-0.450000X-0.350000X0.450000X-0.350000X0.450000X0.350000X0*%
%ADD22RoundRect,0.250000X-0.350000X-0.450000X0.350000X-0.450000X0.350000X0.450000X-0.350000X0.450000X0*%
%ADD23C,0.750000*%
%ADD24R,1.000000X1.550000*%
%ADD25RoundRect,0.150000X0.825000X0.150000X-0.825000X0.150000X-0.825000X-0.150000X0.825000X-0.150000X0*%
%ADD26C,0.500000*%
%ADD27RoundRect,0.150000X-0.825000X-0.150000X0.825000X-0.150000X0.825000X0.150000X-0.825000X0.150000X0*%
%ADD28C,3.500000*%
%ADD29RoundRect,0.250000X0.450000X-0.350000X0.450000X0.350000X-0.450000X0.350000X-0.450000X-0.350000X0*%
%ADD30RoundRect,0.250000X0.475000X-0.337500X0.475000X0.337500X-0.475000X0.337500X-0.475000X-0.337500X0*%
%ADD31RoundRect,0.250000X-0.337500X-0.475000X0.337500X-0.475000X0.337500X0.475000X-0.337500X0.475000X0*%
%ADD32C,0.800000*%
%ADD33O,2.000000X1.600000*%
%ADD34RoundRect,0.150000X0.150000X-0.825000X0.150000X0.825000X-0.150000X0.825000X-0.150000X-0.825000X0*%
%ADD35RoundRect,0.312500X0.312500X0.312500X-0.312500X0.312500X-0.312500X-0.312500X0.312500X-0.312500X0*%
%ADD36RoundRect,0.150000X-0.150000X0.825000X-0.150000X-0.825000X0.150000X-0.825000X0.150000X0.825000X0*%
%ADD37C,0.900000*%
G04 APERTURE END LIST*
D10*
X91244801Y-95154431D02*
X91244801Y-95725859D01*
X91244801Y-95725859D02*
X91206706Y-95840145D01*
X91206706Y-95840145D02*
X91130515Y-95916336D01*
X91130515Y-95916336D02*
X91016230Y-95954431D01*
X91016230Y-95954431D02*
X90940039Y-95954431D01*
X91625754Y-95954431D02*
X91625754Y-95154431D01*
X91625754Y-95154431D02*
X91930516Y-95154431D01*
X91930516Y-95154431D02*
X92006706Y-95192526D01*
X92006706Y-95192526D02*
X92044801Y-95230621D01*
X92044801Y-95230621D02*
X92082897Y-95306812D01*
X92082897Y-95306812D02*
X92082897Y-95421097D01*
X92082897Y-95421097D02*
X92044801Y-95497288D01*
X92044801Y-95497288D02*
X92006706Y-95535383D01*
X92006706Y-95535383D02*
X91930516Y-95573478D01*
X91930516Y-95573478D02*
X91625754Y-95573478D01*
X92844801Y-95954431D02*
X92387658Y-95954431D01*
X92616230Y-95954431D02*
X92616230Y-95154431D01*
X92616230Y-95154431D02*
X92540039Y-95268716D01*
X92540039Y-95268716D02*
X92463849Y-95344907D01*
X92463849Y-95344907D02*
X92387658Y-95383002D01*
X93340040Y-95154431D02*
X93416230Y-95154431D01*
X93416230Y-95154431D02*
X93492421Y-95192526D01*
X93492421Y-95192526D02*
X93530516Y-95230621D01*
X93530516Y-95230621D02*
X93568611Y-95306812D01*
X93568611Y-95306812D02*
X93606706Y-95459193D01*
X93606706Y-95459193D02*
X93606706Y-95649669D01*
X93606706Y-95649669D02*
X93568611Y-95802050D01*
X93568611Y-95802050D02*
X93530516Y-95878240D01*
X93530516Y-95878240D02*
X93492421Y-95916336D01*
X93492421Y-95916336D02*
X93416230Y-95954431D01*
X93416230Y-95954431D02*
X93340040Y-95954431D01*
X93340040Y-95954431D02*
X93263849Y-95916336D01*
X93263849Y-95916336D02*
X93225754Y-95878240D01*
X93225754Y-95878240D02*
X93187659Y-95802050D01*
X93187659Y-95802050D02*
X93149563Y-95649669D01*
X93149563Y-95649669D02*
X93149563Y-95459193D01*
X93149563Y-95459193D02*
X93187659Y-95306812D01*
X93187659Y-95306812D02*
X93225754Y-95230621D01*
X93225754Y-95230621D02*
X93263849Y-95192526D01*
X93263849Y-95192526D02*
X93340040Y-95154431D01*
X94368611Y-95954431D02*
X93911468Y-95954431D01*
X94140040Y-95954431D02*
X94140040Y-95154431D01*
X94140040Y-95154431D02*
X94063849Y-95268716D01*
X94063849Y-95268716D02*
X93987659Y-95344907D01*
X93987659Y-95344907D02*
X93911468Y-95383002D01*
X213902503Y-96197594D02*
X213864407Y-96235690D01*
X213864407Y-96235690D02*
X213750122Y-96273785D01*
X213750122Y-96273785D02*
X213673931Y-96273785D01*
X213673931Y-96273785D02*
X213559645Y-96235690D01*
X213559645Y-96235690D02*
X213483455Y-96159499D01*
X213483455Y-96159499D02*
X213445360Y-96083309D01*
X213445360Y-96083309D02*
X213407264Y-95930928D01*
X213407264Y-95930928D02*
X213407264Y-95816642D01*
X213407264Y-95816642D02*
X213445360Y-95664261D01*
X213445360Y-95664261D02*
X213483455Y-95588070D01*
X213483455Y-95588070D02*
X213559645Y-95511880D01*
X213559645Y-95511880D02*
X213673931Y-95473785D01*
X213673931Y-95473785D02*
X213750122Y-95473785D01*
X213750122Y-95473785D02*
X213864407Y-95511880D01*
X213864407Y-95511880D02*
X213902503Y-95549975D01*
X214169169Y-95473785D02*
X214664407Y-95473785D01*
X214664407Y-95473785D02*
X214397741Y-95778547D01*
X214397741Y-95778547D02*
X214512026Y-95778547D01*
X214512026Y-95778547D02*
X214588217Y-95816642D01*
X214588217Y-95816642D02*
X214626312Y-95854737D01*
X214626312Y-95854737D02*
X214664407Y-95930928D01*
X214664407Y-95930928D02*
X214664407Y-96121404D01*
X214664407Y-96121404D02*
X214626312Y-96197594D01*
X214626312Y-96197594D02*
X214588217Y-96235690D01*
X214588217Y-96235690D02*
X214512026Y-96273785D01*
X214512026Y-96273785D02*
X214283455Y-96273785D01*
X214283455Y-96273785D02*
X214207264Y-96235690D01*
X214207264Y-96235690D02*
X214169169Y-96197594D01*
X243785665Y-101480342D02*
X243404712Y-101747009D01*
X243785665Y-101937485D02*
X242985665Y-101937485D01*
X242985665Y-101937485D02*
X242985665Y-101632723D01*
X242985665Y-101632723D02*
X243023760Y-101556533D01*
X243023760Y-101556533D02*
X243061855Y-101518438D01*
X243061855Y-101518438D02*
X243138046Y-101480342D01*
X243138046Y-101480342D02*
X243252331Y-101480342D01*
X243252331Y-101480342D02*
X243328522Y-101518438D01*
X243328522Y-101518438D02*
X243366617Y-101556533D01*
X243366617Y-101556533D02*
X243404712Y-101632723D01*
X243404712Y-101632723D02*
X243404712Y-101937485D01*
X243785665Y-100718438D02*
X243785665Y-101175581D01*
X243785665Y-100947009D02*
X242985665Y-100947009D01*
X242985665Y-100947009D02*
X243099950Y-101023200D01*
X243099950Y-101023200D02*
X243176141Y-101099390D01*
X243176141Y-101099390D02*
X243214236Y-101175581D01*
X243061855Y-100413676D02*
X243023760Y-100375580D01*
X243023760Y-100375580D02*
X242985665Y-100299390D01*
X242985665Y-100299390D02*
X242985665Y-100108914D01*
X242985665Y-100108914D02*
X243023760Y-100032723D01*
X243023760Y-100032723D02*
X243061855Y-99994628D01*
X243061855Y-99994628D02*
X243138046Y-99956533D01*
X243138046Y-99956533D02*
X243214236Y-99956533D01*
X243214236Y-99956533D02*
X243328522Y-99994628D01*
X243328522Y-99994628D02*
X243785665Y-100451771D01*
X243785665Y-100451771D02*
X243785665Y-99956533D01*
X110846167Y-97528353D02*
X110579500Y-97147400D01*
X110389024Y-97528353D02*
X110389024Y-96728353D01*
X110389024Y-96728353D02*
X110693786Y-96728353D01*
X110693786Y-96728353D02*
X110769976Y-96766448D01*
X110769976Y-96766448D02*
X110808071Y-96804543D01*
X110808071Y-96804543D02*
X110846167Y-96880734D01*
X110846167Y-96880734D02*
X110846167Y-96995019D01*
X110846167Y-96995019D02*
X110808071Y-97071210D01*
X110808071Y-97071210D02*
X110769976Y-97109305D01*
X110769976Y-97109305D02*
X110693786Y-97147400D01*
X110693786Y-97147400D02*
X110389024Y-97147400D01*
X111608071Y-97528353D02*
X111150928Y-97528353D01*
X111379500Y-97528353D02*
X111379500Y-96728353D01*
X111379500Y-96728353D02*
X111303309Y-96842638D01*
X111303309Y-96842638D02*
X111227119Y-96918829D01*
X111227119Y-96918829D02*
X111150928Y-96956924D01*
X112103310Y-96728353D02*
X112179500Y-96728353D01*
X112179500Y-96728353D02*
X112255691Y-96766448D01*
X112255691Y-96766448D02*
X112293786Y-96804543D01*
X112293786Y-96804543D02*
X112331881Y-96880734D01*
X112331881Y-96880734D02*
X112369976Y-97033115D01*
X112369976Y-97033115D02*
X112369976Y-97223591D01*
X112369976Y-97223591D02*
X112331881Y-97375972D01*
X112331881Y-97375972D02*
X112293786Y-97452162D01*
X112293786Y-97452162D02*
X112255691Y-97490258D01*
X112255691Y-97490258D02*
X112179500Y-97528353D01*
X112179500Y-97528353D02*
X112103310Y-97528353D01*
X112103310Y-97528353D02*
X112027119Y-97490258D01*
X112027119Y-97490258D02*
X111989024Y-97452162D01*
X111989024Y-97452162D02*
X111950929Y-97375972D01*
X111950929Y-97375972D02*
X111912833Y-97223591D01*
X111912833Y-97223591D02*
X111912833Y-97033115D01*
X111912833Y-97033115D02*
X111950929Y-96880734D01*
X111950929Y-96880734D02*
X111989024Y-96804543D01*
X111989024Y-96804543D02*
X112027119Y-96766448D01*
X112027119Y-96766448D02*
X112103310Y-96728353D01*
X112636643Y-96728353D02*
X113169977Y-96728353D01*
X113169977Y-96728353D02*
X112827119Y-97528353D01*
X94485666Y-103306275D02*
X95133285Y-103306275D01*
X95133285Y-103306275D02*
X95209475Y-103268180D01*
X95209475Y-103268180D02*
X95247571Y-103230085D01*
X95247571Y-103230085D02*
X95285666Y-103153894D01*
X95285666Y-103153894D02*
X95285666Y-103001513D01*
X95285666Y-103001513D02*
X95247571Y-102925323D01*
X95247571Y-102925323D02*
X95209475Y-102887228D01*
X95209475Y-102887228D02*
X95133285Y-102849132D01*
X95133285Y-102849132D02*
X94485666Y-102849132D01*
X95285666Y-102049133D02*
X95285666Y-102506276D01*
X95285666Y-102277704D02*
X94485666Y-102277704D01*
X94485666Y-102277704D02*
X94599951Y-102353895D01*
X94599951Y-102353895D02*
X94676142Y-102430085D01*
X94676142Y-102430085D02*
X94714237Y-102506276D01*
X94485666Y-101553894D02*
X94485666Y-101477704D01*
X94485666Y-101477704D02*
X94523761Y-101401513D01*
X94523761Y-101401513D02*
X94561856Y-101363418D01*
X94561856Y-101363418D02*
X94638047Y-101325323D01*
X94638047Y-101325323D02*
X94790428Y-101287228D01*
X94790428Y-101287228D02*
X94980904Y-101287228D01*
X94980904Y-101287228D02*
X95133285Y-101325323D01*
X95133285Y-101325323D02*
X95209475Y-101363418D01*
X95209475Y-101363418D02*
X95247571Y-101401513D01*
X95247571Y-101401513D02*
X95285666Y-101477704D01*
X95285666Y-101477704D02*
X95285666Y-101553894D01*
X95285666Y-101553894D02*
X95247571Y-101630085D01*
X95247571Y-101630085D02*
X95209475Y-101668180D01*
X95209475Y-101668180D02*
X95133285Y-101706275D01*
X95133285Y-101706275D02*
X94980904Y-101744371D01*
X94980904Y-101744371D02*
X94790428Y-101744371D01*
X94790428Y-101744371D02*
X94638047Y-101706275D01*
X94638047Y-101706275D02*
X94561856Y-101668180D01*
X94561856Y-101668180D02*
X94523761Y-101630085D01*
X94523761Y-101630085D02*
X94485666Y-101553894D01*
X94485666Y-101020561D02*
X94485666Y-100525323D01*
X94485666Y-100525323D02*
X94790428Y-100791989D01*
X94790428Y-100791989D02*
X94790428Y-100677704D01*
X94790428Y-100677704D02*
X94828523Y-100601513D01*
X94828523Y-100601513D02*
X94866618Y-100563418D01*
X94866618Y-100563418D02*
X94942809Y-100525323D01*
X94942809Y-100525323D02*
X95133285Y-100525323D01*
X95133285Y-100525323D02*
X95209475Y-100563418D01*
X95209475Y-100563418D02*
X95247571Y-100601513D01*
X95247571Y-100601513D02*
X95285666Y-100677704D01*
X95285666Y-100677704D02*
X95285666Y-100906275D01*
X95285666Y-100906275D02*
X95247571Y-100982466D01*
X95247571Y-100982466D02*
X95209475Y-101020561D01*
X44591895Y-113925912D02*
X44591895Y-112925912D01*
X44591895Y-113402102D02*
X45163323Y-113402102D01*
X45163323Y-113925912D02*
X45163323Y-112925912D01*
X46163323Y-113925912D02*
X45591895Y-113925912D01*
X45877609Y-113925912D02*
X45877609Y-112925912D01*
X45877609Y-112925912D02*
X45782371Y-113068769D01*
X45782371Y-113068769D02*
X45687133Y-113164007D01*
X45687133Y-113164007D02*
X45591895Y-113211626D01*
X46734752Y-113354483D02*
X46639514Y-113306864D01*
X46639514Y-113306864D02*
X46591895Y-113259245D01*
X46591895Y-113259245D02*
X46544276Y-113164007D01*
X46544276Y-113164007D02*
X46544276Y-113116388D01*
X46544276Y-113116388D02*
X46591895Y-113021150D01*
X46591895Y-113021150D02*
X46639514Y-112973531D01*
X46639514Y-112973531D02*
X46734752Y-112925912D01*
X46734752Y-112925912D02*
X46925228Y-112925912D01*
X46925228Y-112925912D02*
X47020466Y-112973531D01*
X47020466Y-112973531D02*
X47068085Y-113021150D01*
X47068085Y-113021150D02*
X47115704Y-113116388D01*
X47115704Y-113116388D02*
X47115704Y-113164007D01*
X47115704Y-113164007D02*
X47068085Y-113259245D01*
X47068085Y-113259245D02*
X47020466Y-113306864D01*
X47020466Y-113306864D02*
X46925228Y-113354483D01*
X46925228Y-113354483D02*
X46734752Y-113354483D01*
X46734752Y-113354483D02*
X46639514Y-113402102D01*
X46639514Y-113402102D02*
X46591895Y-113449721D01*
X46591895Y-113449721D02*
X46544276Y-113544959D01*
X46544276Y-113544959D02*
X46544276Y-113735435D01*
X46544276Y-113735435D02*
X46591895Y-113830673D01*
X46591895Y-113830673D02*
X46639514Y-113878293D01*
X46639514Y-113878293D02*
X46734752Y-113925912D01*
X46734752Y-113925912D02*
X46925228Y-113925912D01*
X46925228Y-113925912D02*
X47020466Y-113878293D01*
X47020466Y-113878293D02*
X47068085Y-113830673D01*
X47068085Y-113830673D02*
X47115704Y-113735435D01*
X47115704Y-113735435D02*
X47115704Y-113544959D01*
X47115704Y-113544959D02*
X47068085Y-113449721D01*
X47068085Y-113449721D02*
X47020466Y-113402102D01*
X47020466Y-113402102D02*
X46925228Y-113354483D01*
X115102500Y-97528353D02*
X114835833Y-97147400D01*
X114645357Y-97528353D02*
X114645357Y-96728353D01*
X114645357Y-96728353D02*
X114950119Y-96728353D01*
X114950119Y-96728353D02*
X115026309Y-96766448D01*
X115026309Y-96766448D02*
X115064404Y-96804543D01*
X115064404Y-96804543D02*
X115102500Y-96880734D01*
X115102500Y-96880734D02*
X115102500Y-96995019D01*
X115102500Y-96995019D02*
X115064404Y-97071210D01*
X115064404Y-97071210D02*
X115026309Y-97109305D01*
X115026309Y-97109305D02*
X114950119Y-97147400D01*
X114950119Y-97147400D02*
X114645357Y-97147400D01*
X115864404Y-97528353D02*
X115407261Y-97528353D01*
X115635833Y-97528353D02*
X115635833Y-96728353D01*
X115635833Y-96728353D02*
X115559642Y-96842638D01*
X115559642Y-96842638D02*
X115483452Y-96918829D01*
X115483452Y-96918829D02*
X115407261Y-96956924D01*
X116359643Y-96728353D02*
X116435833Y-96728353D01*
X116435833Y-96728353D02*
X116512024Y-96766448D01*
X116512024Y-96766448D02*
X116550119Y-96804543D01*
X116550119Y-96804543D02*
X116588214Y-96880734D01*
X116588214Y-96880734D02*
X116626309Y-97033115D01*
X116626309Y-97033115D02*
X116626309Y-97223591D01*
X116626309Y-97223591D02*
X116588214Y-97375972D01*
X116588214Y-97375972D02*
X116550119Y-97452162D01*
X116550119Y-97452162D02*
X116512024Y-97490258D01*
X116512024Y-97490258D02*
X116435833Y-97528353D01*
X116435833Y-97528353D02*
X116359643Y-97528353D01*
X116359643Y-97528353D02*
X116283452Y-97490258D01*
X116283452Y-97490258D02*
X116245357Y-97452162D01*
X116245357Y-97452162D02*
X116207262Y-97375972D01*
X116207262Y-97375972D02*
X116169166Y-97223591D01*
X116169166Y-97223591D02*
X116169166Y-97033115D01*
X116169166Y-97033115D02*
X116207262Y-96880734D01*
X116207262Y-96880734D02*
X116245357Y-96804543D01*
X116245357Y-96804543D02*
X116283452Y-96766448D01*
X116283452Y-96766448D02*
X116359643Y-96728353D01*
X117007262Y-97528353D02*
X117159643Y-97528353D01*
X117159643Y-97528353D02*
X117235833Y-97490258D01*
X117235833Y-97490258D02*
X117273929Y-97452162D01*
X117273929Y-97452162D02*
X117350119Y-97337877D01*
X117350119Y-97337877D02*
X117388214Y-97185496D01*
X117388214Y-97185496D02*
X117388214Y-96880734D01*
X117388214Y-96880734D02*
X117350119Y-96804543D01*
X117350119Y-96804543D02*
X117312024Y-96766448D01*
X117312024Y-96766448D02*
X117235833Y-96728353D01*
X117235833Y-96728353D02*
X117083452Y-96728353D01*
X117083452Y-96728353D02*
X117007262Y-96766448D01*
X117007262Y-96766448D02*
X116969167Y-96804543D01*
X116969167Y-96804543D02*
X116931071Y-96880734D01*
X116931071Y-96880734D02*
X116931071Y-97071210D01*
X116931071Y-97071210D02*
X116969167Y-97147400D01*
X116969167Y-97147400D02*
X117007262Y-97185496D01*
X117007262Y-97185496D02*
X117083452Y-97223591D01*
X117083452Y-97223591D02*
X117235833Y-97223591D01*
X117235833Y-97223591D02*
X117312024Y-97185496D01*
X117312024Y-97185496D02*
X117350119Y-97147400D01*
X117350119Y-97147400D02*
X117388214Y-97071210D01*
X191671153Y-97604428D02*
X191404486Y-97223475D01*
X191214010Y-97604428D02*
X191214010Y-96804428D01*
X191214010Y-96804428D02*
X191518772Y-96804428D01*
X191518772Y-96804428D02*
X191594962Y-96842523D01*
X191594962Y-96842523D02*
X191633057Y-96880618D01*
X191633057Y-96880618D02*
X191671153Y-96956809D01*
X191671153Y-96956809D02*
X191671153Y-97071094D01*
X191671153Y-97071094D02*
X191633057Y-97147285D01*
X191633057Y-97147285D02*
X191594962Y-97185380D01*
X191594962Y-97185380D02*
X191518772Y-97223475D01*
X191518772Y-97223475D02*
X191214010Y-97223475D01*
X191937819Y-96804428D02*
X192471153Y-96804428D01*
X192471153Y-96804428D02*
X192128295Y-97604428D01*
X208184809Y-102548946D02*
X208832428Y-102548946D01*
X208832428Y-102548946D02*
X208908618Y-102510851D01*
X208908618Y-102510851D02*
X208946714Y-102472756D01*
X208946714Y-102472756D02*
X208984809Y-102396565D01*
X208984809Y-102396565D02*
X208984809Y-102244184D01*
X208984809Y-102244184D02*
X208946714Y-102167994D01*
X208946714Y-102167994D02*
X208908618Y-102129899D01*
X208908618Y-102129899D02*
X208832428Y-102091803D01*
X208832428Y-102091803D02*
X208184809Y-102091803D01*
X208184809Y-101787042D02*
X208184809Y-101291804D01*
X208184809Y-101291804D02*
X208489571Y-101558470D01*
X208489571Y-101558470D02*
X208489571Y-101444185D01*
X208489571Y-101444185D02*
X208527666Y-101367994D01*
X208527666Y-101367994D02*
X208565761Y-101329899D01*
X208565761Y-101329899D02*
X208641952Y-101291804D01*
X208641952Y-101291804D02*
X208832428Y-101291804D01*
X208832428Y-101291804D02*
X208908618Y-101329899D01*
X208908618Y-101329899D02*
X208946714Y-101367994D01*
X208946714Y-101367994D02*
X208984809Y-101444185D01*
X208984809Y-101444185D02*
X208984809Y-101672756D01*
X208984809Y-101672756D02*
X208946714Y-101748947D01*
X208946714Y-101748947D02*
X208908618Y-101787042D01*
X126123191Y-104852816D02*
X125742238Y-105119483D01*
X126123191Y-105309959D02*
X125323191Y-105309959D01*
X125323191Y-105309959D02*
X125323191Y-105005197D01*
X125323191Y-105005197D02*
X125361286Y-104929007D01*
X125361286Y-104929007D02*
X125399381Y-104890912D01*
X125399381Y-104890912D02*
X125475572Y-104852816D01*
X125475572Y-104852816D02*
X125589857Y-104852816D01*
X125589857Y-104852816D02*
X125666048Y-104890912D01*
X125666048Y-104890912D02*
X125704143Y-104929007D01*
X125704143Y-104929007D02*
X125742238Y-105005197D01*
X125742238Y-105005197D02*
X125742238Y-105309959D01*
X126123191Y-104090912D02*
X126123191Y-104548055D01*
X126123191Y-104319483D02*
X125323191Y-104319483D01*
X125323191Y-104319483D02*
X125437476Y-104395674D01*
X125437476Y-104395674D02*
X125513667Y-104471864D01*
X125513667Y-104471864D02*
X125551762Y-104548055D01*
X125323191Y-103595673D02*
X125323191Y-103519483D01*
X125323191Y-103519483D02*
X125361286Y-103443292D01*
X125361286Y-103443292D02*
X125399381Y-103405197D01*
X125399381Y-103405197D02*
X125475572Y-103367102D01*
X125475572Y-103367102D02*
X125627953Y-103329007D01*
X125627953Y-103329007D02*
X125818429Y-103329007D01*
X125818429Y-103329007D02*
X125970810Y-103367102D01*
X125970810Y-103367102D02*
X126047000Y-103405197D01*
X126047000Y-103405197D02*
X126085096Y-103443292D01*
X126085096Y-103443292D02*
X126123191Y-103519483D01*
X126123191Y-103519483D02*
X126123191Y-103595673D01*
X126123191Y-103595673D02*
X126085096Y-103671864D01*
X126085096Y-103671864D02*
X126047000Y-103709959D01*
X126047000Y-103709959D02*
X125970810Y-103748054D01*
X125970810Y-103748054D02*
X125818429Y-103786150D01*
X125818429Y-103786150D02*
X125627953Y-103786150D01*
X125627953Y-103786150D02*
X125475572Y-103748054D01*
X125475572Y-103748054D02*
X125399381Y-103709959D01*
X125399381Y-103709959D02*
X125361286Y-103671864D01*
X125361286Y-103671864D02*
X125323191Y-103595673D01*
X125323191Y-102605197D02*
X125323191Y-102986149D01*
X125323191Y-102986149D02*
X125704143Y-103024245D01*
X125704143Y-103024245D02*
X125666048Y-102986149D01*
X125666048Y-102986149D02*
X125627953Y-102909959D01*
X125627953Y-102909959D02*
X125627953Y-102719483D01*
X125627953Y-102719483D02*
X125666048Y-102643292D01*
X125666048Y-102643292D02*
X125704143Y-102605197D01*
X125704143Y-102605197D02*
X125780334Y-102567102D01*
X125780334Y-102567102D02*
X125970810Y-102567102D01*
X125970810Y-102567102D02*
X126047000Y-102605197D01*
X126047000Y-102605197D02*
X126085096Y-102643292D01*
X126085096Y-102643292D02*
X126123191Y-102719483D01*
X126123191Y-102719483D02*
X126123191Y-102909959D01*
X126123191Y-102909959D02*
X126085096Y-102986149D01*
X126085096Y-102986149D02*
X126047000Y-103024245D01*
X91942893Y-97954431D02*
X91676226Y-97573478D01*
X91485750Y-97954431D02*
X91485750Y-97154431D01*
X91485750Y-97154431D02*
X91790512Y-97154431D01*
X91790512Y-97154431D02*
X91866702Y-97192526D01*
X91866702Y-97192526D02*
X91904797Y-97230621D01*
X91904797Y-97230621D02*
X91942893Y-97306812D01*
X91942893Y-97306812D02*
X91942893Y-97421097D01*
X91942893Y-97421097D02*
X91904797Y-97497288D01*
X91904797Y-97497288D02*
X91866702Y-97535383D01*
X91866702Y-97535383D02*
X91790512Y-97573478D01*
X91790512Y-97573478D02*
X91485750Y-97573478D01*
X92704797Y-97954431D02*
X92247654Y-97954431D01*
X92476226Y-97954431D02*
X92476226Y-97154431D01*
X92476226Y-97154431D02*
X92400035Y-97268716D01*
X92400035Y-97268716D02*
X92323845Y-97344907D01*
X92323845Y-97344907D02*
X92247654Y-97383002D01*
X93466702Y-97954431D02*
X93009559Y-97954431D01*
X93238131Y-97954431D02*
X93238131Y-97154431D01*
X93238131Y-97154431D02*
X93161940Y-97268716D01*
X93161940Y-97268716D02*
X93085750Y-97344907D01*
X93085750Y-97344907D02*
X93009559Y-97383002D01*
X93961941Y-97154431D02*
X94038131Y-97154431D01*
X94038131Y-97154431D02*
X94114322Y-97192526D01*
X94114322Y-97192526D02*
X94152417Y-97230621D01*
X94152417Y-97230621D02*
X94190512Y-97306812D01*
X94190512Y-97306812D02*
X94228607Y-97459193D01*
X94228607Y-97459193D02*
X94228607Y-97649669D01*
X94228607Y-97649669D02*
X94190512Y-97802050D01*
X94190512Y-97802050D02*
X94152417Y-97878240D01*
X94152417Y-97878240D02*
X94114322Y-97916336D01*
X94114322Y-97916336D02*
X94038131Y-97954431D01*
X94038131Y-97954431D02*
X93961941Y-97954431D01*
X93961941Y-97954431D02*
X93885750Y-97916336D01*
X93885750Y-97916336D02*
X93847655Y-97878240D01*
X93847655Y-97878240D02*
X93809560Y-97802050D01*
X93809560Y-97802050D02*
X93771464Y-97649669D01*
X93771464Y-97649669D02*
X93771464Y-97459193D01*
X93771464Y-97459193D02*
X93809560Y-97306812D01*
X93809560Y-97306812D02*
X93847655Y-97230621D01*
X93847655Y-97230621D02*
X93885750Y-97192526D01*
X93885750Y-97192526D02*
X93961941Y-97154431D01*
X101509475Y-102437371D02*
X101547571Y-102475467D01*
X101547571Y-102475467D02*
X101585666Y-102589752D01*
X101585666Y-102589752D02*
X101585666Y-102665943D01*
X101585666Y-102665943D02*
X101547571Y-102780229D01*
X101547571Y-102780229D02*
X101471380Y-102856419D01*
X101471380Y-102856419D02*
X101395190Y-102894514D01*
X101395190Y-102894514D02*
X101242809Y-102932610D01*
X101242809Y-102932610D02*
X101128523Y-102932610D01*
X101128523Y-102932610D02*
X100976142Y-102894514D01*
X100976142Y-102894514D02*
X100899951Y-102856419D01*
X100899951Y-102856419D02*
X100823761Y-102780229D01*
X100823761Y-102780229D02*
X100785666Y-102665943D01*
X100785666Y-102665943D02*
X100785666Y-102589752D01*
X100785666Y-102589752D02*
X100823761Y-102475467D01*
X100823761Y-102475467D02*
X100861856Y-102437371D01*
X101585666Y-101675467D02*
X101585666Y-102132610D01*
X101585666Y-101904038D02*
X100785666Y-101904038D01*
X100785666Y-101904038D02*
X100899951Y-101980229D01*
X100899951Y-101980229D02*
X100976142Y-102056419D01*
X100976142Y-102056419D02*
X101014237Y-102132610D01*
X100785666Y-101180228D02*
X100785666Y-101104038D01*
X100785666Y-101104038D02*
X100823761Y-101027847D01*
X100823761Y-101027847D02*
X100861856Y-100989752D01*
X100861856Y-100989752D02*
X100938047Y-100951657D01*
X100938047Y-100951657D02*
X101090428Y-100913562D01*
X101090428Y-100913562D02*
X101280904Y-100913562D01*
X101280904Y-100913562D02*
X101433285Y-100951657D01*
X101433285Y-100951657D02*
X101509475Y-100989752D01*
X101509475Y-100989752D02*
X101547571Y-101027847D01*
X101547571Y-101027847D02*
X101585666Y-101104038D01*
X101585666Y-101104038D02*
X101585666Y-101180228D01*
X101585666Y-101180228D02*
X101547571Y-101256419D01*
X101547571Y-101256419D02*
X101509475Y-101294514D01*
X101509475Y-101294514D02*
X101433285Y-101332609D01*
X101433285Y-101332609D02*
X101280904Y-101370705D01*
X101280904Y-101370705D02*
X101090428Y-101370705D01*
X101090428Y-101370705D02*
X100938047Y-101332609D01*
X100938047Y-101332609D02*
X100861856Y-101294514D01*
X100861856Y-101294514D02*
X100823761Y-101256419D01*
X100823761Y-101256419D02*
X100785666Y-101180228D01*
X100861856Y-100608800D02*
X100823761Y-100570704D01*
X100823761Y-100570704D02*
X100785666Y-100494514D01*
X100785666Y-100494514D02*
X100785666Y-100304038D01*
X100785666Y-100304038D02*
X100823761Y-100227847D01*
X100823761Y-100227847D02*
X100861856Y-100189752D01*
X100861856Y-100189752D02*
X100938047Y-100151657D01*
X100938047Y-100151657D02*
X101014237Y-100151657D01*
X101014237Y-100151657D02*
X101128523Y-100189752D01*
X101128523Y-100189752D02*
X101585666Y-100646895D01*
X101585666Y-100646895D02*
X101585666Y-100151657D01*
X199726681Y-97787562D02*
X199688585Y-97825658D01*
X199688585Y-97825658D02*
X199574300Y-97863753D01*
X199574300Y-97863753D02*
X199498109Y-97863753D01*
X199498109Y-97863753D02*
X199383823Y-97825658D01*
X199383823Y-97825658D02*
X199307633Y-97749467D01*
X199307633Y-97749467D02*
X199269538Y-97673277D01*
X199269538Y-97673277D02*
X199231442Y-97520896D01*
X199231442Y-97520896D02*
X199231442Y-97406610D01*
X199231442Y-97406610D02*
X199269538Y-97254229D01*
X199269538Y-97254229D02*
X199307633Y-97178038D01*
X199307633Y-97178038D02*
X199383823Y-97101848D01*
X199383823Y-97101848D02*
X199498109Y-97063753D01*
X199498109Y-97063753D02*
X199574300Y-97063753D01*
X199574300Y-97063753D02*
X199688585Y-97101848D01*
X199688585Y-97101848D02*
X199726681Y-97139943D01*
X200488585Y-97863753D02*
X200031442Y-97863753D01*
X200260014Y-97863753D02*
X200260014Y-97063753D01*
X200260014Y-97063753D02*
X200183823Y-97178038D01*
X200183823Y-97178038D02*
X200107633Y-97254229D01*
X200107633Y-97254229D02*
X200031442Y-97292324D01*
X119478040Y-97577995D02*
X119211373Y-97197042D01*
X119020897Y-97577995D02*
X119020897Y-96777995D01*
X119020897Y-96777995D02*
X119325659Y-96777995D01*
X119325659Y-96777995D02*
X119401849Y-96816090D01*
X119401849Y-96816090D02*
X119439944Y-96854185D01*
X119439944Y-96854185D02*
X119478040Y-96930376D01*
X119478040Y-96930376D02*
X119478040Y-97044661D01*
X119478040Y-97044661D02*
X119439944Y-97120852D01*
X119439944Y-97120852D02*
X119401849Y-97158947D01*
X119401849Y-97158947D02*
X119325659Y-97197042D01*
X119325659Y-97197042D02*
X119020897Y-97197042D01*
X120239944Y-97577995D02*
X119782801Y-97577995D01*
X120011373Y-97577995D02*
X120011373Y-96777995D01*
X120011373Y-96777995D02*
X119935182Y-96892280D01*
X119935182Y-96892280D02*
X119858992Y-96968471D01*
X119858992Y-96968471D02*
X119782801Y-97006566D01*
X120735183Y-96777995D02*
X120811373Y-96777995D01*
X120811373Y-96777995D02*
X120887564Y-96816090D01*
X120887564Y-96816090D02*
X120925659Y-96854185D01*
X120925659Y-96854185D02*
X120963754Y-96930376D01*
X120963754Y-96930376D02*
X121001849Y-97082757D01*
X121001849Y-97082757D02*
X121001849Y-97273233D01*
X121001849Y-97273233D02*
X120963754Y-97425614D01*
X120963754Y-97425614D02*
X120925659Y-97501804D01*
X120925659Y-97501804D02*
X120887564Y-97539900D01*
X120887564Y-97539900D02*
X120811373Y-97577995D01*
X120811373Y-97577995D02*
X120735183Y-97577995D01*
X120735183Y-97577995D02*
X120658992Y-97539900D01*
X120658992Y-97539900D02*
X120620897Y-97501804D01*
X120620897Y-97501804D02*
X120582802Y-97425614D01*
X120582802Y-97425614D02*
X120544706Y-97273233D01*
X120544706Y-97273233D02*
X120544706Y-97082757D01*
X120544706Y-97082757D02*
X120582802Y-96930376D01*
X120582802Y-96930376D02*
X120620897Y-96854185D01*
X120620897Y-96854185D02*
X120658992Y-96816090D01*
X120658992Y-96816090D02*
X120735183Y-96777995D01*
X121458992Y-97120852D02*
X121382802Y-97082757D01*
X121382802Y-97082757D02*
X121344707Y-97044661D01*
X121344707Y-97044661D02*
X121306611Y-96968471D01*
X121306611Y-96968471D02*
X121306611Y-96930376D01*
X121306611Y-96930376D02*
X121344707Y-96854185D01*
X121344707Y-96854185D02*
X121382802Y-96816090D01*
X121382802Y-96816090D02*
X121458992Y-96777995D01*
X121458992Y-96777995D02*
X121611373Y-96777995D01*
X121611373Y-96777995D02*
X121687564Y-96816090D01*
X121687564Y-96816090D02*
X121725659Y-96854185D01*
X121725659Y-96854185D02*
X121763754Y-96930376D01*
X121763754Y-96930376D02*
X121763754Y-96968471D01*
X121763754Y-96968471D02*
X121725659Y-97044661D01*
X121725659Y-97044661D02*
X121687564Y-97082757D01*
X121687564Y-97082757D02*
X121611373Y-97120852D01*
X121611373Y-97120852D02*
X121458992Y-97120852D01*
X121458992Y-97120852D02*
X121382802Y-97158947D01*
X121382802Y-97158947D02*
X121344707Y-97197042D01*
X121344707Y-97197042D02*
X121306611Y-97273233D01*
X121306611Y-97273233D02*
X121306611Y-97425614D01*
X121306611Y-97425614D02*
X121344707Y-97501804D01*
X121344707Y-97501804D02*
X121382802Y-97539900D01*
X121382802Y-97539900D02*
X121458992Y-97577995D01*
X121458992Y-97577995D02*
X121611373Y-97577995D01*
X121611373Y-97577995D02*
X121687564Y-97539900D01*
X121687564Y-97539900D02*
X121725659Y-97501804D01*
X121725659Y-97501804D02*
X121763754Y-97425614D01*
X121763754Y-97425614D02*
X121763754Y-97273233D01*
X121763754Y-97273233D02*
X121725659Y-97197042D01*
X121725659Y-97197042D02*
X121687564Y-97158947D01*
X121687564Y-97158947D02*
X121611373Y-97120852D01*
X184355402Y-99782322D02*
X183974449Y-100048989D01*
X184355402Y-100239465D02*
X183555402Y-100239465D01*
X183555402Y-100239465D02*
X183555402Y-99934703D01*
X183555402Y-99934703D02*
X183593497Y-99858513D01*
X183593497Y-99858513D02*
X183631592Y-99820418D01*
X183631592Y-99820418D02*
X183707783Y-99782322D01*
X183707783Y-99782322D02*
X183822068Y-99782322D01*
X183822068Y-99782322D02*
X183898259Y-99820418D01*
X183898259Y-99820418D02*
X183936354Y-99858513D01*
X183936354Y-99858513D02*
X183974449Y-99934703D01*
X183974449Y-99934703D02*
X183974449Y-100239465D01*
X184355402Y-99401370D02*
X184355402Y-99248989D01*
X184355402Y-99248989D02*
X184317307Y-99172799D01*
X184317307Y-99172799D02*
X184279211Y-99134703D01*
X184279211Y-99134703D02*
X184164926Y-99058513D01*
X184164926Y-99058513D02*
X184012545Y-99020418D01*
X184012545Y-99020418D02*
X183707783Y-99020418D01*
X183707783Y-99020418D02*
X183631592Y-99058513D01*
X183631592Y-99058513D02*
X183593497Y-99096608D01*
X183593497Y-99096608D02*
X183555402Y-99172799D01*
X183555402Y-99172799D02*
X183555402Y-99325180D01*
X183555402Y-99325180D02*
X183593497Y-99401370D01*
X183593497Y-99401370D02*
X183631592Y-99439465D01*
X183631592Y-99439465D02*
X183707783Y-99477561D01*
X183707783Y-99477561D02*
X183898259Y-99477561D01*
X183898259Y-99477561D02*
X183974449Y-99439465D01*
X183974449Y-99439465D02*
X184012545Y-99401370D01*
X184012545Y-99401370D02*
X184050640Y-99325180D01*
X184050640Y-99325180D02*
X184050640Y-99172799D01*
X184050640Y-99172799D02*
X184012545Y-99096608D01*
X184012545Y-99096608D02*
X183974449Y-99058513D01*
X183974449Y-99058513D02*
X183898259Y-99020418D01*
X183105214Y-97554787D02*
X182838547Y-97173834D01*
X182648071Y-97554787D02*
X182648071Y-96754787D01*
X182648071Y-96754787D02*
X182952833Y-96754787D01*
X182952833Y-96754787D02*
X183029023Y-96792882D01*
X183029023Y-96792882D02*
X183067118Y-96830977D01*
X183067118Y-96830977D02*
X183105214Y-96907168D01*
X183105214Y-96907168D02*
X183105214Y-97021453D01*
X183105214Y-97021453D02*
X183067118Y-97097644D01*
X183067118Y-97097644D02*
X183029023Y-97135739D01*
X183029023Y-97135739D02*
X182952833Y-97173834D01*
X182952833Y-97173834D02*
X182648071Y-97173834D01*
X183790928Y-96754787D02*
X183638547Y-96754787D01*
X183638547Y-96754787D02*
X183562356Y-96792882D01*
X183562356Y-96792882D02*
X183524261Y-96830977D01*
X183524261Y-96830977D02*
X183448071Y-96945263D01*
X183448071Y-96945263D02*
X183409975Y-97097644D01*
X183409975Y-97097644D02*
X183409975Y-97402406D01*
X183409975Y-97402406D02*
X183448071Y-97478596D01*
X183448071Y-97478596D02*
X183486166Y-97516692D01*
X183486166Y-97516692D02*
X183562356Y-97554787D01*
X183562356Y-97554787D02*
X183714737Y-97554787D01*
X183714737Y-97554787D02*
X183790928Y-97516692D01*
X183790928Y-97516692D02*
X183829023Y-97478596D01*
X183829023Y-97478596D02*
X183867118Y-97402406D01*
X183867118Y-97402406D02*
X183867118Y-97211930D01*
X183867118Y-97211930D02*
X183829023Y-97135739D01*
X183829023Y-97135739D02*
X183790928Y-97097644D01*
X183790928Y-97097644D02*
X183714737Y-97059549D01*
X183714737Y-97059549D02*
X183562356Y-97059549D01*
X183562356Y-97059549D02*
X183486166Y-97097644D01*
X183486166Y-97097644D02*
X183448071Y-97135739D01*
X183448071Y-97135739D02*
X183409975Y-97211930D01*
X199809477Y-101634790D02*
X199847573Y-101672886D01*
X199847573Y-101672886D02*
X199885668Y-101787171D01*
X199885668Y-101787171D02*
X199885668Y-101863362D01*
X199885668Y-101863362D02*
X199847573Y-101977648D01*
X199847573Y-101977648D02*
X199771382Y-102053838D01*
X199771382Y-102053838D02*
X199695192Y-102091933D01*
X199695192Y-102091933D02*
X199542811Y-102130029D01*
X199542811Y-102130029D02*
X199428525Y-102130029D01*
X199428525Y-102130029D02*
X199276144Y-102091933D01*
X199276144Y-102091933D02*
X199199953Y-102053838D01*
X199199953Y-102053838D02*
X199123763Y-101977648D01*
X199123763Y-101977648D02*
X199085668Y-101863362D01*
X199085668Y-101863362D02*
X199085668Y-101787171D01*
X199085668Y-101787171D02*
X199123763Y-101672886D01*
X199123763Y-101672886D02*
X199161858Y-101634790D01*
X199161858Y-101330029D02*
X199123763Y-101291933D01*
X199123763Y-101291933D02*
X199085668Y-101215743D01*
X199085668Y-101215743D02*
X199085668Y-101025267D01*
X199085668Y-101025267D02*
X199123763Y-100949076D01*
X199123763Y-100949076D02*
X199161858Y-100910981D01*
X199161858Y-100910981D02*
X199238049Y-100872886D01*
X199238049Y-100872886D02*
X199314239Y-100872886D01*
X199314239Y-100872886D02*
X199428525Y-100910981D01*
X199428525Y-100910981D02*
X199885668Y-101368124D01*
X199885668Y-101368124D02*
X199885668Y-100872886D01*
X187355215Y-97604431D02*
X187088548Y-97223478D01*
X186898072Y-97604431D02*
X186898072Y-96804431D01*
X186898072Y-96804431D02*
X187202834Y-96804431D01*
X187202834Y-96804431D02*
X187279024Y-96842526D01*
X187279024Y-96842526D02*
X187317119Y-96880621D01*
X187317119Y-96880621D02*
X187355215Y-96956812D01*
X187355215Y-96956812D02*
X187355215Y-97071097D01*
X187355215Y-97071097D02*
X187317119Y-97147288D01*
X187317119Y-97147288D02*
X187279024Y-97185383D01*
X187279024Y-97185383D02*
X187202834Y-97223478D01*
X187202834Y-97223478D02*
X186898072Y-97223478D01*
X188079024Y-96804431D02*
X187698072Y-96804431D01*
X187698072Y-96804431D02*
X187659976Y-97185383D01*
X187659976Y-97185383D02*
X187698072Y-97147288D01*
X187698072Y-97147288D02*
X187774262Y-97109193D01*
X187774262Y-97109193D02*
X187964738Y-97109193D01*
X187964738Y-97109193D02*
X188040929Y-97147288D01*
X188040929Y-97147288D02*
X188079024Y-97185383D01*
X188079024Y-97185383D02*
X188117119Y-97261574D01*
X188117119Y-97261574D02*
X188117119Y-97452050D01*
X188117119Y-97452050D02*
X188079024Y-97528240D01*
X188079024Y-97528240D02*
X188040929Y-97566336D01*
X188040929Y-97566336D02*
X187964738Y-97604431D01*
X187964738Y-97604431D02*
X187774262Y-97604431D01*
X187774262Y-97604431D02*
X187698072Y-97566336D01*
X187698072Y-97566336D02*
X187659976Y-97528240D01*
X210009086Y-98268141D02*
X209742419Y-97887188D01*
X209551943Y-98268141D02*
X209551943Y-97468141D01*
X209551943Y-97468141D02*
X209856705Y-97468141D01*
X209856705Y-97468141D02*
X209932895Y-97506236D01*
X209932895Y-97506236D02*
X209970990Y-97544331D01*
X209970990Y-97544331D02*
X210009086Y-97620522D01*
X210009086Y-97620522D02*
X210009086Y-97734807D01*
X210009086Y-97734807D02*
X209970990Y-97810998D01*
X209970990Y-97810998D02*
X209932895Y-97849093D01*
X209932895Y-97849093D02*
X209856705Y-97887188D01*
X209856705Y-97887188D02*
X209551943Y-97887188D01*
X210770990Y-98268141D02*
X210313847Y-98268141D01*
X210542419Y-98268141D02*
X210542419Y-97468141D01*
X210542419Y-97468141D02*
X210466228Y-97582426D01*
X210466228Y-97582426D02*
X210390038Y-97658617D01*
X210390038Y-97658617D02*
X210313847Y-97696712D01*
X211266229Y-97468141D02*
X211342419Y-97468141D01*
X211342419Y-97468141D02*
X211418610Y-97506236D01*
X211418610Y-97506236D02*
X211456705Y-97544331D01*
X211456705Y-97544331D02*
X211494800Y-97620522D01*
X211494800Y-97620522D02*
X211532895Y-97772903D01*
X211532895Y-97772903D02*
X211532895Y-97963379D01*
X211532895Y-97963379D02*
X211494800Y-98115760D01*
X211494800Y-98115760D02*
X211456705Y-98191950D01*
X211456705Y-98191950D02*
X211418610Y-98230046D01*
X211418610Y-98230046D02*
X211342419Y-98268141D01*
X211342419Y-98268141D02*
X211266229Y-98268141D01*
X211266229Y-98268141D02*
X211190038Y-98230046D01*
X211190038Y-98230046D02*
X211151943Y-98191950D01*
X211151943Y-98191950D02*
X211113848Y-98115760D01*
X211113848Y-98115760D02*
X211075752Y-97963379D01*
X211075752Y-97963379D02*
X211075752Y-97772903D01*
X211075752Y-97772903D02*
X211113848Y-97620522D01*
X211113848Y-97620522D02*
X211151943Y-97544331D01*
X211151943Y-97544331D02*
X211190038Y-97506236D01*
X211190038Y-97506236D02*
X211266229Y-97468141D01*
X99144096Y-97461295D02*
X98763143Y-97727962D01*
X99144096Y-97918438D02*
X98344096Y-97918438D01*
X98344096Y-97918438D02*
X98344096Y-97613676D01*
X98344096Y-97613676D02*
X98382191Y-97537486D01*
X98382191Y-97537486D02*
X98420286Y-97499391D01*
X98420286Y-97499391D02*
X98496477Y-97461295D01*
X98496477Y-97461295D02*
X98610762Y-97461295D01*
X98610762Y-97461295D02*
X98686953Y-97499391D01*
X98686953Y-97499391D02*
X98725048Y-97537486D01*
X98725048Y-97537486D02*
X98763143Y-97613676D01*
X98763143Y-97613676D02*
X98763143Y-97918438D01*
X99144096Y-96699391D02*
X99144096Y-97156534D01*
X99144096Y-96927962D02*
X98344096Y-96927962D01*
X98344096Y-96927962D02*
X98458381Y-97004153D01*
X98458381Y-97004153D02*
X98534572Y-97080343D01*
X98534572Y-97080343D02*
X98572667Y-97156534D01*
X99144096Y-95937486D02*
X99144096Y-96394629D01*
X99144096Y-96166057D02*
X98344096Y-96166057D01*
X98344096Y-96166057D02*
X98458381Y-96242248D01*
X98458381Y-96242248D02*
X98534572Y-96318438D01*
X98534572Y-96318438D02*
X98572667Y-96394629D01*
X99144096Y-95175581D02*
X99144096Y-95632724D01*
X99144096Y-95404152D02*
X98344096Y-95404152D01*
X98344096Y-95404152D02*
X98458381Y-95480343D01*
X98458381Y-95480343D02*
X98534572Y-95556533D01*
X98534572Y-95556533D02*
X98572667Y-95632724D01*
X180407260Y-103592756D02*
X180026307Y-103859423D01*
X180407260Y-104049899D02*
X179607260Y-104049899D01*
X179607260Y-104049899D02*
X179607260Y-103745137D01*
X179607260Y-103745137D02*
X179645355Y-103668947D01*
X179645355Y-103668947D02*
X179683450Y-103630852D01*
X179683450Y-103630852D02*
X179759641Y-103592756D01*
X179759641Y-103592756D02*
X179873926Y-103592756D01*
X179873926Y-103592756D02*
X179950117Y-103630852D01*
X179950117Y-103630852D02*
X179988212Y-103668947D01*
X179988212Y-103668947D02*
X180026307Y-103745137D01*
X180026307Y-103745137D02*
X180026307Y-104049899D01*
X179950117Y-103135614D02*
X179912022Y-103211804D01*
X179912022Y-103211804D02*
X179873926Y-103249899D01*
X179873926Y-103249899D02*
X179797736Y-103287995D01*
X179797736Y-103287995D02*
X179759641Y-103287995D01*
X179759641Y-103287995D02*
X179683450Y-103249899D01*
X179683450Y-103249899D02*
X179645355Y-103211804D01*
X179645355Y-103211804D02*
X179607260Y-103135614D01*
X179607260Y-103135614D02*
X179607260Y-102983233D01*
X179607260Y-102983233D02*
X179645355Y-102907042D01*
X179645355Y-102907042D02*
X179683450Y-102868947D01*
X179683450Y-102868947D02*
X179759641Y-102830852D01*
X179759641Y-102830852D02*
X179797736Y-102830852D01*
X179797736Y-102830852D02*
X179873926Y-102868947D01*
X179873926Y-102868947D02*
X179912022Y-102907042D01*
X179912022Y-102907042D02*
X179950117Y-102983233D01*
X179950117Y-102983233D02*
X179950117Y-103135614D01*
X179950117Y-103135614D02*
X179988212Y-103211804D01*
X179988212Y-103211804D02*
X180026307Y-103249899D01*
X180026307Y-103249899D02*
X180102498Y-103287995D01*
X180102498Y-103287995D02*
X180254879Y-103287995D01*
X180254879Y-103287995D02*
X180331069Y-103249899D01*
X180331069Y-103249899D02*
X180369165Y-103211804D01*
X180369165Y-103211804D02*
X180407260Y-103135614D01*
X180407260Y-103135614D02*
X180407260Y-102983233D01*
X180407260Y-102983233D02*
X180369165Y-102907042D01*
X180369165Y-102907042D02*
X180331069Y-102868947D01*
X180331069Y-102868947D02*
X180254879Y-102830852D01*
X180254879Y-102830852D02*
X180102498Y-102830852D01*
X180102498Y-102830852D02*
X180026307Y-102868947D01*
X180026307Y-102868947D02*
X179988212Y-102907042D01*
X179988212Y-102907042D02*
X179950117Y-102983233D01*
X191722313Y-102546660D02*
X192369932Y-102546660D01*
X192369932Y-102546660D02*
X192446122Y-102508565D01*
X192446122Y-102508565D02*
X192484218Y-102470470D01*
X192484218Y-102470470D02*
X192522313Y-102394279D01*
X192522313Y-102394279D02*
X192522313Y-102241898D01*
X192522313Y-102241898D02*
X192484218Y-102165708D01*
X192484218Y-102165708D02*
X192446122Y-102127613D01*
X192446122Y-102127613D02*
X192369932Y-102089517D01*
X192369932Y-102089517D02*
X191722313Y-102089517D01*
X191798503Y-101746661D02*
X191760408Y-101708565D01*
X191760408Y-101708565D02*
X191722313Y-101632375D01*
X191722313Y-101632375D02*
X191722313Y-101441899D01*
X191722313Y-101441899D02*
X191760408Y-101365708D01*
X191760408Y-101365708D02*
X191798503Y-101327613D01*
X191798503Y-101327613D02*
X191874694Y-101289518D01*
X191874694Y-101289518D02*
X191950884Y-101289518D01*
X191950884Y-101289518D02*
X192065170Y-101327613D01*
X192065170Y-101327613D02*
X192522313Y-101784756D01*
X192522313Y-101784756D02*
X192522313Y-101289518D01*
X209856708Y-95463754D02*
X209856708Y-96035182D01*
X209856708Y-96035182D02*
X209818613Y-96149468D01*
X209818613Y-96149468D02*
X209742422Y-96225659D01*
X209742422Y-96225659D02*
X209628137Y-96263754D01*
X209628137Y-96263754D02*
X209551946Y-96263754D01*
X210237661Y-96263754D02*
X210237661Y-95463754D01*
X210237661Y-95463754D02*
X210542423Y-95463754D01*
X210542423Y-95463754D02*
X210618613Y-95501849D01*
X210618613Y-95501849D02*
X210656708Y-95539944D01*
X210656708Y-95539944D02*
X210694804Y-95616135D01*
X210694804Y-95616135D02*
X210694804Y-95730420D01*
X210694804Y-95730420D02*
X210656708Y-95806611D01*
X210656708Y-95806611D02*
X210618613Y-95844706D01*
X210618613Y-95844706D02*
X210542423Y-95882801D01*
X210542423Y-95882801D02*
X210237661Y-95882801D01*
X211456708Y-96263754D02*
X210999565Y-96263754D01*
X211228137Y-96263754D02*
X211228137Y-95463754D01*
X211228137Y-95463754D02*
X211151946Y-95578039D01*
X211151946Y-95578039D02*
X211075756Y-95654230D01*
X211075756Y-95654230D02*
X210999565Y-95692325D01*
X102761560Y-94302161D02*
X102723464Y-94340257D01*
X102723464Y-94340257D02*
X102609179Y-94378352D01*
X102609179Y-94378352D02*
X102532988Y-94378352D01*
X102532988Y-94378352D02*
X102418702Y-94340257D01*
X102418702Y-94340257D02*
X102342512Y-94264066D01*
X102342512Y-94264066D02*
X102304417Y-94187876D01*
X102304417Y-94187876D02*
X102266321Y-94035495D01*
X102266321Y-94035495D02*
X102266321Y-93921209D01*
X102266321Y-93921209D02*
X102304417Y-93768828D01*
X102304417Y-93768828D02*
X102342512Y-93692637D01*
X102342512Y-93692637D02*
X102418702Y-93616447D01*
X102418702Y-93616447D02*
X102532988Y-93578352D01*
X102532988Y-93578352D02*
X102609179Y-93578352D01*
X102609179Y-93578352D02*
X102723464Y-93616447D01*
X102723464Y-93616447D02*
X102761560Y-93654542D01*
X103523464Y-94378352D02*
X103066321Y-94378352D01*
X103294893Y-94378352D02*
X103294893Y-93578352D01*
X103294893Y-93578352D02*
X103218702Y-93692637D01*
X103218702Y-93692637D02*
X103142512Y-93768828D01*
X103142512Y-93768828D02*
X103066321Y-93806923D01*
X104018703Y-93578352D02*
X104094893Y-93578352D01*
X104094893Y-93578352D02*
X104171084Y-93616447D01*
X104171084Y-93616447D02*
X104209179Y-93654542D01*
X104209179Y-93654542D02*
X104247274Y-93730733D01*
X104247274Y-93730733D02*
X104285369Y-93883114D01*
X104285369Y-93883114D02*
X104285369Y-94073590D01*
X104285369Y-94073590D02*
X104247274Y-94225971D01*
X104247274Y-94225971D02*
X104209179Y-94302161D01*
X104209179Y-94302161D02*
X104171084Y-94340257D01*
X104171084Y-94340257D02*
X104094893Y-94378352D01*
X104094893Y-94378352D02*
X104018703Y-94378352D01*
X104018703Y-94378352D02*
X103942512Y-94340257D01*
X103942512Y-94340257D02*
X103904417Y-94302161D01*
X103904417Y-94302161D02*
X103866322Y-94225971D01*
X103866322Y-94225971D02*
X103828226Y-94073590D01*
X103828226Y-94073590D02*
X103828226Y-93883114D01*
X103828226Y-93883114D02*
X103866322Y-93730733D01*
X103866322Y-93730733D02*
X103904417Y-93654542D01*
X103904417Y-93654542D02*
X103942512Y-93616447D01*
X103942512Y-93616447D02*
X104018703Y-93578352D01*
X105047274Y-94378352D02*
X104590131Y-94378352D01*
X104818703Y-94378352D02*
X104818703Y-93578352D01*
X104818703Y-93578352D02*
X104742512Y-93692637D01*
X104742512Y-93692637D02*
X104666322Y-93768828D01*
X104666322Y-93768828D02*
X104590131Y-93806923D01*
X88692892Y-99537562D02*
X88654796Y-99575658D01*
X88654796Y-99575658D02*
X88540511Y-99613753D01*
X88540511Y-99613753D02*
X88464320Y-99613753D01*
X88464320Y-99613753D02*
X88350034Y-99575658D01*
X88350034Y-99575658D02*
X88273844Y-99499467D01*
X88273844Y-99499467D02*
X88235749Y-99423277D01*
X88235749Y-99423277D02*
X88197653Y-99270896D01*
X88197653Y-99270896D02*
X88197653Y-99156610D01*
X88197653Y-99156610D02*
X88235749Y-99004229D01*
X88235749Y-99004229D02*
X88273844Y-98928038D01*
X88273844Y-98928038D02*
X88350034Y-98851848D01*
X88350034Y-98851848D02*
X88464320Y-98813753D01*
X88464320Y-98813753D02*
X88540511Y-98813753D01*
X88540511Y-98813753D02*
X88654796Y-98851848D01*
X88654796Y-98851848D02*
X88692892Y-98889943D01*
X89454796Y-99613753D02*
X88997653Y-99613753D01*
X89226225Y-99613753D02*
X89226225Y-98813753D01*
X89226225Y-98813753D02*
X89150034Y-98928038D01*
X89150034Y-98928038D02*
X89073844Y-99004229D01*
X89073844Y-99004229D02*
X88997653Y-99042324D01*
X89950035Y-98813753D02*
X90026225Y-98813753D01*
X90026225Y-98813753D02*
X90102416Y-98851848D01*
X90102416Y-98851848D02*
X90140511Y-98889943D01*
X90140511Y-98889943D02*
X90178606Y-98966134D01*
X90178606Y-98966134D02*
X90216701Y-99118515D01*
X90216701Y-99118515D02*
X90216701Y-99308991D01*
X90216701Y-99308991D02*
X90178606Y-99461372D01*
X90178606Y-99461372D02*
X90140511Y-99537562D01*
X90140511Y-99537562D02*
X90102416Y-99575658D01*
X90102416Y-99575658D02*
X90026225Y-99613753D01*
X90026225Y-99613753D02*
X89950035Y-99613753D01*
X89950035Y-99613753D02*
X89873844Y-99575658D01*
X89873844Y-99575658D02*
X89835749Y-99537562D01*
X89835749Y-99537562D02*
X89797654Y-99461372D01*
X89797654Y-99461372D02*
X89759558Y-99308991D01*
X89759558Y-99308991D02*
X89759558Y-99118515D01*
X89759558Y-99118515D02*
X89797654Y-98966134D01*
X89797654Y-98966134D02*
X89835749Y-98889943D01*
X89835749Y-98889943D02*
X89873844Y-98851848D01*
X89873844Y-98851848D02*
X89950035Y-98813753D01*
X90483368Y-98813753D02*
X90978606Y-98813753D01*
X90978606Y-98813753D02*
X90711940Y-99118515D01*
X90711940Y-99118515D02*
X90826225Y-99118515D01*
X90826225Y-99118515D02*
X90902416Y-99156610D01*
X90902416Y-99156610D02*
X90940511Y-99194705D01*
X90940511Y-99194705D02*
X90978606Y-99270896D01*
X90978606Y-99270896D02*
X90978606Y-99461372D01*
X90978606Y-99461372D02*
X90940511Y-99537562D01*
X90940511Y-99537562D02*
X90902416Y-99575658D01*
X90902416Y-99575658D02*
X90826225Y-99613753D01*
X90826225Y-99613753D02*
X90597654Y-99613753D01*
X90597654Y-99613753D02*
X90521463Y-99575658D01*
X90521463Y-99575658D02*
X90483368Y-99537562D01*
X110014443Y-101499431D02*
X110014443Y-102147050D01*
X110014443Y-102147050D02*
X110052538Y-102223240D01*
X110052538Y-102223240D02*
X110090633Y-102261336D01*
X110090633Y-102261336D02*
X110166824Y-102299431D01*
X110166824Y-102299431D02*
X110319205Y-102299431D01*
X110319205Y-102299431D02*
X110395395Y-102261336D01*
X110395395Y-102261336D02*
X110433490Y-102223240D01*
X110433490Y-102223240D02*
X110471586Y-102147050D01*
X110471586Y-102147050D02*
X110471586Y-101499431D01*
X111271585Y-102299431D02*
X110814442Y-102299431D01*
X111043014Y-102299431D02*
X111043014Y-101499431D01*
X111043014Y-101499431D02*
X110966823Y-101613716D01*
X110966823Y-101613716D02*
X110890633Y-101689907D01*
X110890633Y-101689907D02*
X110814442Y-101728002D01*
X111766824Y-101499431D02*
X111843014Y-101499431D01*
X111843014Y-101499431D02*
X111919205Y-101537526D01*
X111919205Y-101537526D02*
X111957300Y-101575621D01*
X111957300Y-101575621D02*
X111995395Y-101651812D01*
X111995395Y-101651812D02*
X112033490Y-101804193D01*
X112033490Y-101804193D02*
X112033490Y-101994669D01*
X112033490Y-101994669D02*
X111995395Y-102147050D01*
X111995395Y-102147050D02*
X111957300Y-102223240D01*
X111957300Y-102223240D02*
X111919205Y-102261336D01*
X111919205Y-102261336D02*
X111843014Y-102299431D01*
X111843014Y-102299431D02*
X111766824Y-102299431D01*
X111766824Y-102299431D02*
X111690633Y-102261336D01*
X111690633Y-102261336D02*
X111652538Y-102223240D01*
X111652538Y-102223240D02*
X111614443Y-102147050D01*
X111614443Y-102147050D02*
X111576347Y-101994669D01*
X111576347Y-101994669D02*
X111576347Y-101804193D01*
X111576347Y-101804193D02*
X111614443Y-101651812D01*
X111614443Y-101651812D02*
X111652538Y-101575621D01*
X111652538Y-101575621D02*
X111690633Y-101537526D01*
X111690633Y-101537526D02*
X111766824Y-101499431D01*
X112338252Y-101575621D02*
X112376348Y-101537526D01*
X112376348Y-101537526D02*
X112452538Y-101499431D01*
X112452538Y-101499431D02*
X112643014Y-101499431D01*
X112643014Y-101499431D02*
X112719205Y-101537526D01*
X112719205Y-101537526D02*
X112757300Y-101575621D01*
X112757300Y-101575621D02*
X112795395Y-101651812D01*
X112795395Y-101651812D02*
X112795395Y-101728002D01*
X112795395Y-101728002D02*
X112757300Y-101842288D01*
X112757300Y-101842288D02*
X112300157Y-102299431D01*
X112300157Y-102299431D02*
X112795395Y-102299431D01*
X205185668Y-97360562D02*
X204804715Y-97627229D01*
X205185668Y-97817705D02*
X204385668Y-97817705D01*
X204385668Y-97817705D02*
X204385668Y-97512943D01*
X204385668Y-97512943D02*
X204423763Y-97436753D01*
X204423763Y-97436753D02*
X204461858Y-97398658D01*
X204461858Y-97398658D02*
X204538049Y-97360562D01*
X204538049Y-97360562D02*
X204652334Y-97360562D01*
X204652334Y-97360562D02*
X204728525Y-97398658D01*
X204728525Y-97398658D02*
X204766620Y-97436753D01*
X204766620Y-97436753D02*
X204804715Y-97512943D01*
X204804715Y-97512943D02*
X204804715Y-97817705D01*
X205185668Y-96598658D02*
X205185668Y-97055801D01*
X205185668Y-96827229D02*
X204385668Y-96827229D01*
X204385668Y-96827229D02*
X204499953Y-96903420D01*
X204499953Y-96903420D02*
X204576144Y-96979610D01*
X204576144Y-96979610D02*
X204614239Y-97055801D01*
X205185668Y-95836753D02*
X205185668Y-96293896D01*
X205185668Y-96065324D02*
X204385668Y-96065324D01*
X204385668Y-96065324D02*
X204499953Y-96141515D01*
X204499953Y-96141515D02*
X204576144Y-96217705D01*
X204576144Y-96217705D02*
X204614239Y-96293896D01*
X122773190Y-100852817D02*
X122392237Y-101119484D01*
X122773190Y-101309960D02*
X121973190Y-101309960D01*
X121973190Y-101309960D02*
X121973190Y-101005198D01*
X121973190Y-101005198D02*
X122011285Y-100929008D01*
X122011285Y-100929008D02*
X122049380Y-100890913D01*
X122049380Y-100890913D02*
X122125571Y-100852817D01*
X122125571Y-100852817D02*
X122239856Y-100852817D01*
X122239856Y-100852817D02*
X122316047Y-100890913D01*
X122316047Y-100890913D02*
X122354142Y-100929008D01*
X122354142Y-100929008D02*
X122392237Y-101005198D01*
X122392237Y-101005198D02*
X122392237Y-101309960D01*
X122773190Y-100090913D02*
X122773190Y-100548056D01*
X122773190Y-100319484D02*
X121973190Y-100319484D01*
X121973190Y-100319484D02*
X122087475Y-100395675D01*
X122087475Y-100395675D02*
X122163666Y-100471865D01*
X122163666Y-100471865D02*
X122201761Y-100548056D01*
X121973190Y-99595674D02*
X121973190Y-99519484D01*
X121973190Y-99519484D02*
X122011285Y-99443293D01*
X122011285Y-99443293D02*
X122049380Y-99405198D01*
X122049380Y-99405198D02*
X122125571Y-99367103D01*
X122125571Y-99367103D02*
X122277952Y-99329008D01*
X122277952Y-99329008D02*
X122468428Y-99329008D01*
X122468428Y-99329008D02*
X122620809Y-99367103D01*
X122620809Y-99367103D02*
X122696999Y-99405198D01*
X122696999Y-99405198D02*
X122735095Y-99443293D01*
X122735095Y-99443293D02*
X122773190Y-99519484D01*
X122773190Y-99519484D02*
X122773190Y-99595674D01*
X122773190Y-99595674D02*
X122735095Y-99671865D01*
X122735095Y-99671865D02*
X122696999Y-99709960D01*
X122696999Y-99709960D02*
X122620809Y-99748055D01*
X122620809Y-99748055D02*
X122468428Y-99786151D01*
X122468428Y-99786151D02*
X122277952Y-99786151D01*
X122277952Y-99786151D02*
X122125571Y-99748055D01*
X122125571Y-99748055D02*
X122049380Y-99709960D01*
X122049380Y-99709960D02*
X122011285Y-99671865D01*
X122011285Y-99671865D02*
X121973190Y-99595674D01*
X121973190Y-98643293D02*
X121973190Y-98795674D01*
X121973190Y-98795674D02*
X122011285Y-98871865D01*
X122011285Y-98871865D02*
X122049380Y-98909960D01*
X122049380Y-98909960D02*
X122163666Y-98986150D01*
X122163666Y-98986150D02*
X122316047Y-99024246D01*
X122316047Y-99024246D02*
X122620809Y-99024246D01*
X122620809Y-99024246D02*
X122696999Y-98986150D01*
X122696999Y-98986150D02*
X122735095Y-98948055D01*
X122735095Y-98948055D02*
X122773190Y-98871865D01*
X122773190Y-98871865D02*
X122773190Y-98719484D01*
X122773190Y-98719484D02*
X122735095Y-98643293D01*
X122735095Y-98643293D02*
X122696999Y-98605198D01*
X122696999Y-98605198D02*
X122620809Y-98567103D01*
X122620809Y-98567103D02*
X122430333Y-98567103D01*
X122430333Y-98567103D02*
X122354142Y-98605198D01*
X122354142Y-98605198D02*
X122316047Y-98643293D01*
X122316047Y-98643293D02*
X122277952Y-98719484D01*
X122277952Y-98719484D02*
X122277952Y-98871865D01*
X122277952Y-98871865D02*
X122316047Y-98948055D01*
X122316047Y-98948055D02*
X122354142Y-98986150D01*
X122354142Y-98986150D02*
X122430333Y-99024246D01*
X241851844Y-100849386D02*
X241470891Y-101116053D01*
X241851844Y-101306529D02*
X241051844Y-101306529D01*
X241051844Y-101306529D02*
X241051844Y-101001767D01*
X241051844Y-101001767D02*
X241089939Y-100925577D01*
X241089939Y-100925577D02*
X241128034Y-100887482D01*
X241128034Y-100887482D02*
X241204225Y-100849386D01*
X241204225Y-100849386D02*
X241318510Y-100849386D01*
X241318510Y-100849386D02*
X241394701Y-100887482D01*
X241394701Y-100887482D02*
X241432796Y-100925577D01*
X241432796Y-100925577D02*
X241470891Y-101001767D01*
X241470891Y-101001767D02*
X241470891Y-101306529D01*
X241318510Y-100163672D02*
X241851844Y-100163672D01*
X241013749Y-100354148D02*
X241585177Y-100544625D01*
X241585177Y-100544625D02*
X241585177Y-100049386D01*
X256477877Y-113925445D02*
X256477877Y-112925445D01*
X256477877Y-113401635D02*
X257049305Y-113401635D01*
X257049305Y-113925445D02*
X257049305Y-112925445D01*
X258049305Y-113925445D02*
X257477877Y-113925445D01*
X257763591Y-113925445D02*
X257763591Y-112925445D01*
X257763591Y-112925445D02*
X257668353Y-113068302D01*
X257668353Y-113068302D02*
X257573115Y-113163540D01*
X257573115Y-113163540D02*
X257477877Y-113211159D01*
X258525496Y-113925445D02*
X258715972Y-113925445D01*
X258715972Y-113925445D02*
X258811210Y-113877826D01*
X258811210Y-113877826D02*
X258858829Y-113830206D01*
X258858829Y-113830206D02*
X258954067Y-113687349D01*
X258954067Y-113687349D02*
X259001686Y-113496873D01*
X259001686Y-113496873D02*
X259001686Y-113115921D01*
X259001686Y-113115921D02*
X258954067Y-113020683D01*
X258954067Y-113020683D02*
X258906448Y-112973064D01*
X258906448Y-112973064D02*
X258811210Y-112925445D01*
X258811210Y-112925445D02*
X258620734Y-112925445D01*
X258620734Y-112925445D02*
X258525496Y-112973064D01*
X258525496Y-112973064D02*
X258477877Y-113020683D01*
X258477877Y-113020683D02*
X258430258Y-113115921D01*
X258430258Y-113115921D02*
X258430258Y-113354016D01*
X258430258Y-113354016D02*
X258477877Y-113449254D01*
X258477877Y-113449254D02*
X258525496Y-113496873D01*
X258525496Y-113496873D02*
X258620734Y-113544492D01*
X258620734Y-113544492D02*
X258811210Y-113544492D01*
X258811210Y-113544492D02*
X258906448Y-113496873D01*
X258906448Y-113496873D02*
X258954067Y-113449254D01*
X258954067Y-113449254D02*
X259001686Y-113354016D01*
X62489096Y-102396696D02*
X62108143Y-102663363D01*
X62489096Y-102853839D02*
X61689096Y-102853839D01*
X61689096Y-102853839D02*
X61689096Y-102549077D01*
X61689096Y-102549077D02*
X61727191Y-102472887D01*
X61727191Y-102472887D02*
X61765286Y-102434792D01*
X61765286Y-102434792D02*
X61841477Y-102396696D01*
X61841477Y-102396696D02*
X61955762Y-102396696D01*
X61955762Y-102396696D02*
X62031953Y-102434792D01*
X62031953Y-102434792D02*
X62070048Y-102472887D01*
X62070048Y-102472887D02*
X62108143Y-102549077D01*
X62108143Y-102549077D02*
X62108143Y-102853839D01*
X62489096Y-101634792D02*
X62489096Y-102091935D01*
X62489096Y-101863363D02*
X61689096Y-101863363D01*
X61689096Y-101863363D02*
X61803381Y-101939554D01*
X61803381Y-101939554D02*
X61879572Y-102015744D01*
X61879572Y-102015744D02*
X61917667Y-102091935D01*
X61689096Y-101139553D02*
X61689096Y-101063363D01*
X61689096Y-101063363D02*
X61727191Y-100987172D01*
X61727191Y-100987172D02*
X61765286Y-100949077D01*
X61765286Y-100949077D02*
X61841477Y-100910982D01*
X61841477Y-100910982D02*
X61993858Y-100872887D01*
X61993858Y-100872887D02*
X62184334Y-100872887D01*
X62184334Y-100872887D02*
X62336715Y-100910982D01*
X62336715Y-100910982D02*
X62412905Y-100949077D01*
X62412905Y-100949077D02*
X62451001Y-100987172D01*
X62451001Y-100987172D02*
X62489096Y-101063363D01*
X62489096Y-101063363D02*
X62489096Y-101139553D01*
X62489096Y-101139553D02*
X62451001Y-101215744D01*
X62451001Y-101215744D02*
X62412905Y-101253839D01*
X62412905Y-101253839D02*
X62336715Y-101291934D01*
X62336715Y-101291934D02*
X62184334Y-101330030D01*
X62184334Y-101330030D02*
X61993858Y-101330030D01*
X61993858Y-101330030D02*
X61841477Y-101291934D01*
X61841477Y-101291934D02*
X61765286Y-101253839D01*
X61765286Y-101253839D02*
X61727191Y-101215744D01*
X61727191Y-101215744D02*
X61689096Y-101139553D01*
X61955762Y-100187172D02*
X62489096Y-100187172D01*
X61651001Y-100377648D02*
X62222429Y-100568125D01*
X62222429Y-100568125D02*
X62222429Y-100072886D01*
X60644784Y-102585104D02*
X60168593Y-102918437D01*
X60644784Y-103156532D02*
X59644784Y-103156532D01*
X59644784Y-103156532D02*
X59644784Y-102775580D01*
X59644784Y-102775580D02*
X59692403Y-102680342D01*
X59692403Y-102680342D02*
X59740022Y-102632723D01*
X59740022Y-102632723D02*
X59835260Y-102585104D01*
X59835260Y-102585104D02*
X59978117Y-102585104D01*
X59978117Y-102585104D02*
X60073355Y-102632723D01*
X60073355Y-102632723D02*
X60120974Y-102680342D01*
X60120974Y-102680342D02*
X60168593Y-102775580D01*
X60168593Y-102775580D02*
X60168593Y-103156532D01*
X60644784Y-101632723D02*
X60644784Y-102204151D01*
X60644784Y-101918437D02*
X59644784Y-101918437D01*
X59644784Y-101918437D02*
X59787641Y-102013675D01*
X59787641Y-102013675D02*
X59882879Y-102108913D01*
X59882879Y-102108913D02*
X59930498Y-102204151D01*
X60644784Y-100680342D02*
X60644784Y-101251770D01*
X60644784Y-100966056D02*
X59644784Y-100966056D01*
X59644784Y-100966056D02*
X59787641Y-101061294D01*
X59787641Y-101061294D02*
X59882879Y-101156532D01*
X59882879Y-101156532D02*
X59930498Y-101251770D01*
X59740022Y-100299389D02*
X59692403Y-100251770D01*
X59692403Y-100251770D02*
X59644784Y-100156532D01*
X59644784Y-100156532D02*
X59644784Y-99918437D01*
X59644784Y-99918437D02*
X59692403Y-99823199D01*
X59692403Y-99823199D02*
X59740022Y-99775580D01*
X59740022Y-99775580D02*
X59835260Y-99727961D01*
X59835260Y-99727961D02*
X59930498Y-99727961D01*
X59930498Y-99727961D02*
X60073355Y-99775580D01*
X60073355Y-99775580D02*
X60644784Y-100347008D01*
X60644784Y-100347008D02*
X60644784Y-99727961D01*
X261116480Y-59898478D02*
X261687908Y-59898478D01*
X261402194Y-60898478D02*
X261402194Y-59898478D01*
X261926004Y-59898478D02*
X262592670Y-60898478D01*
X262592670Y-59898478D02*
X261926004Y-60898478D01*
X263164099Y-59898478D02*
X263259337Y-59898478D01*
X263259337Y-59898478D02*
X263354575Y-59946097D01*
X263354575Y-59946097D02*
X263402194Y-59993716D01*
X263402194Y-59993716D02*
X263449813Y-60088954D01*
X263449813Y-60088954D02*
X263497432Y-60279430D01*
X263497432Y-60279430D02*
X263497432Y-60517525D01*
X263497432Y-60517525D02*
X263449813Y-60708001D01*
X263449813Y-60708001D02*
X263402194Y-60803239D01*
X263402194Y-60803239D02*
X263354575Y-60850859D01*
X263354575Y-60850859D02*
X263259337Y-60898478D01*
X263259337Y-60898478D02*
X263164099Y-60898478D01*
X263164099Y-60898478D02*
X263068861Y-60850859D01*
X263068861Y-60850859D02*
X263021242Y-60803239D01*
X263021242Y-60803239D02*
X262973623Y-60708001D01*
X262973623Y-60708001D02*
X262926004Y-60517525D01*
X262926004Y-60517525D02*
X262926004Y-60279430D01*
X262926004Y-60279430D02*
X262973623Y-60088954D01*
X262973623Y-60088954D02*
X263021242Y-59993716D01*
X263021242Y-59993716D02*
X263068861Y-59946097D01*
X263068861Y-59946097D02*
X263164099Y-59898478D01*
X252364098Y-60898478D02*
X252030765Y-60422287D01*
X251792670Y-60898478D02*
X251792670Y-59898478D01*
X251792670Y-59898478D02*
X252173622Y-59898478D01*
X252173622Y-59898478D02*
X252268860Y-59946097D01*
X252268860Y-59946097D02*
X252316479Y-59993716D01*
X252316479Y-59993716D02*
X252364098Y-60088954D01*
X252364098Y-60088954D02*
X252364098Y-60231811D01*
X252364098Y-60231811D02*
X252316479Y-60327049D01*
X252316479Y-60327049D02*
X252268860Y-60374668D01*
X252268860Y-60374668D02*
X252173622Y-60422287D01*
X252173622Y-60422287D02*
X251792670Y-60422287D01*
X252745051Y-60612763D02*
X253221241Y-60612763D01*
X252649813Y-60898478D02*
X252983146Y-59898478D01*
X252983146Y-59898478D02*
X253316479Y-60898478D01*
X253554575Y-59898478D02*
X253792670Y-60898478D01*
X253792670Y-60898478D02*
X253983146Y-60184192D01*
X253983146Y-60184192D02*
X254173622Y-60898478D01*
X254173622Y-60898478D02*
X254411718Y-59898478D01*
X49153216Y-59898477D02*
X49724644Y-59898477D01*
X49438930Y-60898477D02*
X49438930Y-59898477D01*
X49962740Y-59898477D02*
X50629406Y-60898477D01*
X50629406Y-59898477D02*
X49962740Y-60898477D01*
X51200835Y-59898477D02*
X51296073Y-59898477D01*
X51296073Y-59898477D02*
X51391311Y-59946096D01*
X51391311Y-59946096D02*
X51438930Y-59993715D01*
X51438930Y-59993715D02*
X51486549Y-60088953D01*
X51486549Y-60088953D02*
X51534168Y-60279429D01*
X51534168Y-60279429D02*
X51534168Y-60517524D01*
X51534168Y-60517524D02*
X51486549Y-60708000D01*
X51486549Y-60708000D02*
X51438930Y-60803238D01*
X51438930Y-60803238D02*
X51391311Y-60850858D01*
X51391311Y-60850858D02*
X51296073Y-60898477D01*
X51296073Y-60898477D02*
X51200835Y-60898477D01*
X51200835Y-60898477D02*
X51105597Y-60850858D01*
X51105597Y-60850858D02*
X51057978Y-60803238D01*
X51057978Y-60803238D02*
X51010359Y-60708000D01*
X51010359Y-60708000D02*
X50962740Y-60517524D01*
X50962740Y-60517524D02*
X50962740Y-60279429D01*
X50962740Y-60279429D02*
X51010359Y-60088953D01*
X51010359Y-60088953D02*
X51057978Y-59993715D01*
X51057978Y-59993715D02*
X51105597Y-59946096D01*
X51105597Y-59946096D02*
X51200835Y-59898477D01*
X40400834Y-60898477D02*
X40067501Y-60422286D01*
X39829406Y-60898477D02*
X39829406Y-59898477D01*
X39829406Y-59898477D02*
X40210358Y-59898477D01*
X40210358Y-59898477D02*
X40305596Y-59946096D01*
X40305596Y-59946096D02*
X40353215Y-59993715D01*
X40353215Y-59993715D02*
X40400834Y-60088953D01*
X40400834Y-60088953D02*
X40400834Y-60231810D01*
X40400834Y-60231810D02*
X40353215Y-60327048D01*
X40353215Y-60327048D02*
X40305596Y-60374667D01*
X40305596Y-60374667D02*
X40210358Y-60422286D01*
X40210358Y-60422286D02*
X39829406Y-60422286D01*
X40781787Y-60612762D02*
X41257977Y-60612762D01*
X40686549Y-60898477D02*
X41019882Y-59898477D01*
X41019882Y-59898477D02*
X41353215Y-60898477D01*
X41591311Y-59898477D02*
X41829406Y-60898477D01*
X41829406Y-60898477D02*
X42019882Y-60184191D01*
X42019882Y-60184191D02*
X42210358Y-60898477D01*
X42210358Y-60898477D02*
X42448454Y-59898477D01*
D11*
%TO.C,BAT_HOLE-101*%
X37405480Y-58169423D02*
X37405480Y-57469423D01*
X37805480Y-57069423D02*
X39505480Y-57069423D01*
X39155480Y-57819423D02*
X39655480Y-57819423D01*
X39505480Y-58569423D02*
X37805480Y-58569423D01*
X39905480Y-57469423D02*
X39905480Y-58169423D01*
X37805480Y-57069423D02*
G75*
G03*
X37405480Y-57469423I-1J-399999D01*
G01*
X37405480Y-58169423D02*
G75*
G03*
X37805480Y-58569423I399999J-1D01*
G01*
X39905480Y-57469423D02*
G75*
G03*
X39505480Y-57069423I-400000J0D01*
G01*
X39505480Y-58569423D02*
G75*
G03*
X39905480Y-58169423I0J400000D01*
G01*
D12*
%TO.C,JP101*%
X96150437Y-96327136D02*
X95696309Y-96327136D01*
X96150437Y-94857136D02*
X95696309Y-94857136D01*
%TO.C,C3*%
X214249801Y-98333989D02*
X213727297Y-98333989D01*
X214249801Y-96863989D02*
X213727297Y-96863989D01*
%TO.C,R12*%
X244174963Y-97738993D02*
X244174963Y-98193121D01*
X242704963Y-97738993D02*
X242704963Y-98193121D01*
%TO.C,R107*%
X111514341Y-94857136D02*
X111968469Y-94857136D01*
X111514341Y-96327136D02*
X111968469Y-96327136D01*
D13*
%TO.C,SW5*%
X245306549Y-45859992D02*
G75*
G03*
X245306549Y-45859992I-6467000J0D01*
G01*
%TO.C,SW13*%
X207206550Y-74959991D02*
G75*
G03*
X207206550Y-74959991I-6467000J0D01*
G01*
%TO.C,SW111*%
X147373339Y-92960495D02*
G75*
G03*
X147373339Y-92960495I-6467000J0D01*
G01*
%TO.C,SW12*%
X188156550Y-80960500D02*
G75*
G03*
X188156550Y-80960500I-6467000J0D01*
G01*
%TO.C,SW103*%
X109273345Y-36859995D02*
G75*
G03*
X109273345Y-36859995I-6467000J0D01*
G01*
D12*
%TO.C,RSW1*%
X264840971Y-102970627D02*
X265390971Y-102970627D01*
X266965971Y-103995627D02*
X266965971Y-103070627D01*
X266965971Y-107770627D02*
X266965971Y-106845627D01*
X263265971Y-107770627D02*
X263265971Y-103070627D01*
X264840971Y-107870627D02*
X265390971Y-107870627D01*
%TO.C,U103*%
X94923371Y-104497135D02*
X98373371Y-104497135D01*
X94923371Y-104497135D02*
X92973371Y-104497135D01*
X94923371Y-99377135D02*
X96873371Y-99377135D01*
X94923371Y-99377135D02*
X92973371Y-99377135D01*
D13*
%TO.C,SW4*%
X226256550Y-43360005D02*
G75*
G03*
X226256550Y-43360005I-6467000J0D01*
G01*
%TO.C,SW15*%
X245306549Y-83959994D02*
G75*
G03*
X245306549Y-83959994I-6467000J0D01*
G01*
%TO.C,SW6*%
X169106552Y-73910492D02*
G75*
G03*
X169106552Y-73910492I-6467000J0D01*
G01*
D12*
%TO.C,R109*%
X115830276Y-94857136D02*
X116284404Y-94857136D01*
X115830276Y-96327136D02*
X116284404Y-96327136D01*
D11*
%TO.C,mouse-bite-2mm-slot*%
X152769549Y-65631491D02*
G75*
G03*
X150769549Y-65631491I-1000000J0D01*
G01*
X150769549Y-59789491D02*
G75*
G03*
X152769549Y-59789491I1000000J0D01*
G01*
D12*
%TO.C,R7*%
X192031550Y-96327133D02*
X191577422Y-96327133D01*
X192031550Y-94857133D02*
X191577422Y-94857133D01*
%TO.C,U3*%
X208622514Y-99377135D02*
X205172514Y-99377135D01*
X208622514Y-99377135D02*
X210572514Y-99377135D01*
X208622514Y-104497135D02*
X206672514Y-104497135D01*
X208622514Y-104497135D02*
X210572514Y-104497135D01*
D11*
%TO.C,BAT_HOLE+1*%
X249366908Y-58169421D02*
X249366908Y-57469421D01*
X249766908Y-57069421D02*
X251466908Y-57069421D01*
X251116908Y-57819421D02*
X251616908Y-57819421D01*
X251366908Y-57569421D02*
X251366908Y-58069421D01*
X251466908Y-58569421D02*
X249766908Y-58569421D01*
X251866908Y-57469421D02*
X251866908Y-58169421D01*
X249766908Y-57069421D02*
G75*
G03*
X249366908Y-57469421I-1J-399999D01*
G01*
X249366908Y-58169421D02*
G75*
G03*
X249766908Y-58569421I399999J-1D01*
G01*
X251866908Y-57469421D02*
G75*
G03*
X251466908Y-57069421I-400000J0D01*
G01*
X251466908Y-58569421D02*
G75*
G03*
X251866908Y-58169421I0J400000D01*
G01*
D13*
%TO.C,SW105*%
X71173339Y-45859993D02*
G75*
G03*
X71173339Y-45859993I-6467000J0D01*
G01*
%TO.C,SW104*%
X90223340Y-43360003D02*
G75*
G03*
X90223340Y-43360003I-6467000J0D01*
G01*
%TO.C,SW3*%
X207206540Y-36859996D02*
G75*
G03*
X207206540Y-36859996I-6467000J0D01*
G01*
%TO.C,SW116*%
X44763378Y-124047384D02*
G75*
G03*
X44763378Y-124047384I-6467001J0D01*
G01*
%TO.C,SW11*%
X169106550Y-92960494D02*
G75*
G03*
X169106550Y-92960494I-6467000J0D01*
G01*
D12*
%TO.C,R105*%
X126675896Y-104184643D02*
X126675896Y-103730515D01*
X128145896Y-104184643D02*
X128145896Y-103730515D01*
%TO.C,R110*%
X96150436Y-98327136D02*
X95696308Y-98327136D01*
X96150436Y-96857136D02*
X95696308Y-96857136D01*
%TO.C,C102*%
X102104547Y-101803386D02*
X102104547Y-101280882D01*
X103574547Y-101803386D02*
X103574547Y-101280882D01*
%TO.C,C1*%
X199598762Y-95163991D02*
X200121266Y-95163991D01*
X199598762Y-96633991D02*
X200121266Y-96633991D01*
%TO.C,R108*%
X120146214Y-94857134D02*
X120600342Y-94857134D01*
X120146214Y-96327134D02*
X120600342Y-96327134D01*
%TO.C,R9*%
X181503550Y-99876054D02*
X181503550Y-99421926D01*
X182973550Y-99876054D02*
X182973550Y-99421926D01*
%TO.C,R6*%
X183465611Y-96277492D02*
X183011483Y-96277492D01*
X183465611Y-94807492D02*
X183011483Y-94807492D01*
D13*
%TO.C,SW2*%
X188156546Y-42860498D02*
G75*
G03*
X188156546Y-42860498I-6467000J0D01*
G01*
D10*
%TO.C,J1*%
X266665975Y-93989423D02*
X254565975Y-93989423D01*
X266665975Y-100089423D02*
X266665975Y-93989423D01*
X266665975Y-100089423D02*
X254565975Y-100089423D01*
X254565975Y-100089423D02*
X254565975Y-93989423D01*
D12*
%TO.C,C2*%
X200387517Y-101803743D02*
X200387517Y-101281239D01*
X201857517Y-101803743D02*
X201857517Y-101281239D01*
%TO.C,R5*%
X187715612Y-96327136D02*
X187261484Y-96327136D01*
X187715612Y-94857136D02*
X187261484Y-94857136D01*
D13*
%TO.C,SW17*%
X255156516Y-111480384D02*
G75*
G03*
X255156516Y-111480384I-6467000J0D01*
G01*
%TO.C,SW9*%
X226256550Y-62409994D02*
G75*
G03*
X226256550Y-62409994I-6467000J0D01*
G01*
%TO.C,SW7*%
X188156551Y-61910495D02*
G75*
G03*
X188156551Y-61910495I-6467000J0D01*
G01*
%TO.C,SW14*%
X226256545Y-81459993D02*
G75*
G03*
X226256545Y-81459993I-6467000J0D01*
G01*
%TO.C,SW1*%
X169106540Y-54860494D02*
G75*
G03*
X169106540Y-54860494I-6467000J0D01*
G01*
D12*
%TO.C,R10*%
X207395450Y-97163990D02*
X207849578Y-97163990D01*
X207395450Y-98633990D02*
X207849578Y-98633990D01*
D13*
%TO.C,SW114*%
X90223343Y-81459993D02*
G75*
G03*
X90223343Y-81459993I-6467000J0D01*
G01*
D12*
%TO.C,R111*%
X99588371Y-96819201D02*
X99588371Y-96365073D01*
X101058371Y-96819201D02*
X101058371Y-96365073D01*
D13*
%TO.C,SW10*%
X245306548Y-64909997D02*
G75*
G03*
X245306548Y-64909997I-6467000J0D01*
G01*
%TO.C,SW107*%
X128323339Y-61910496D02*
G75*
G03*
X128323339Y-61910496I-6467000J0D01*
G01*
D11*
%TO.C,mouse-bite-2mm-slot*%
X152769551Y-86631492D02*
G75*
G03*
X150769551Y-86631492I-1000000J0D01*
G01*
X150769551Y-80789492D02*
G75*
G03*
X152769551Y-80789492I1000000J0D01*
G01*
D13*
%TO.C,SW102*%
X128323343Y-42860499D02*
G75*
G03*
X128323343Y-42860499I-6467000J0D01*
G01*
D12*
%TO.C,R8*%
X177569486Y-103686488D02*
X177569486Y-103232360D01*
X179039486Y-103686488D02*
X179039486Y-103232360D01*
%TO.C,U2*%
X187062517Y-101937137D02*
X187062517Y-105387137D01*
X187062517Y-101937137D02*
X187062517Y-99987137D01*
X197182517Y-101937137D02*
X197182517Y-103887137D01*
X197182517Y-101937137D02*
X197182517Y-99987137D01*
%TO.C,JP1*%
X207395453Y-95163992D02*
X207849581Y-95163992D01*
X207395453Y-96633992D02*
X207849581Y-96633992D01*
D13*
%TO.C,SW118*%
X81070297Y-103300695D02*
G75*
G03*
X81070297Y-103300695I-6467000J0D01*
G01*
D11*
%TO.C,BAT_HOLE+101*%
X54178978Y-57469423D02*
X54178978Y-58169423D01*
X53778978Y-58569423D02*
X52078978Y-58569423D01*
X52428978Y-57819423D02*
X51928978Y-57819423D01*
X52178978Y-58069423D02*
X52178978Y-57569423D01*
X52078978Y-57069423D02*
X53778978Y-57069423D01*
X51678978Y-58169423D02*
X51678978Y-57469423D01*
X53778978Y-58569423D02*
G75*
G03*
X54178978Y-58169423I1J399999D01*
G01*
X54178978Y-57469423D02*
G75*
G03*
X53778978Y-57069423I-399999J1D01*
G01*
X51678978Y-58169423D02*
G75*
G03*
X52078978Y-58569423I400000J0D01*
G01*
X52078978Y-57069423D02*
G75*
G03*
X51678978Y-57469423I0J-400000D01*
G01*
D13*
%TO.C,SW109*%
X90223338Y-62409992D02*
G75*
G03*
X90223338Y-62409992I-6467000J0D01*
G01*
%TO.C,SW18*%
X235409589Y-103300695D02*
G75*
G03*
X235409589Y-103300695I-6467000J0D01*
G01*
%TO.C,SW8*%
X207206544Y-55909999D02*
G75*
G03*
X207206544Y-55909999I-6467000J0D01*
G01*
D12*
%TO.C,DISP1*%
X251404330Y-91032635D02*
X264104330Y-91032635D01*
X264104330Y-91032635D02*
X264104330Y-93632635D01*
X264104330Y-93632635D02*
X251404330Y-93632635D01*
X251404330Y-93632635D02*
X251404330Y-91032635D01*
%TO.C,DISP101*%
X39441557Y-91032635D02*
X52141557Y-91032635D01*
X52141557Y-91032635D02*
X52141557Y-93632635D01*
X52141557Y-93632635D02*
X39441557Y-93632635D01*
X39441557Y-93632635D02*
X39441557Y-91032635D01*
%TO.C,C101*%
X103947122Y-96327135D02*
X103424618Y-96327135D01*
X103947122Y-94857135D02*
X103424618Y-94857135D01*
D13*
%TO.C,SW112*%
X128323338Y-80960495D02*
G75*
G03*
X128323338Y-80960495I-6467000J0D01*
G01*
%TO.C,SW117*%
X61323377Y-111480384D02*
G75*
G03*
X61323377Y-111480384I-6467000J0D01*
G01*
%TO.C,SW108*%
X109273341Y-55909999D02*
G75*
G03*
X109273341Y-55909999I-6467000J0D01*
G01*
%TO.C,SW106*%
X147373336Y-73910494D02*
G75*
G03*
X147373336Y-73910494I-6467000J0D01*
G01*
%TO.C,SW101*%
X147373348Y-54860496D02*
G75*
G03*
X147373348Y-54860496I-6467000J0D01*
G01*
D11*
%TO.C,BAT_HOLE-1*%
X266140409Y-57469423D02*
X266140409Y-58169423D01*
X265740409Y-58569423D02*
X264040409Y-58569423D01*
X264390409Y-57819423D02*
X263890409Y-57819423D01*
X264040409Y-57069423D02*
X265740409Y-57069423D01*
X263640409Y-58169423D02*
X263640409Y-57469423D01*
X265740409Y-58569423D02*
G75*
G03*
X266140409Y-58169423I1J399999D01*
G01*
X266140409Y-57469423D02*
G75*
G03*
X265740409Y-57069423I-399999J1D01*
G01*
X263640409Y-58169423D02*
G75*
G03*
X264040409Y-58569423I400000J0D01*
G01*
X264040409Y-57069423D02*
G75*
G03*
X263640409Y-57469423I0J-400000D01*
G01*
D12*
%TO.C,C103*%
X89328295Y-96857135D02*
X89850799Y-96857135D01*
X89328295Y-98327135D02*
X89850799Y-98327135D01*
D10*
%TO.C,J101*%
X36662468Y-100080596D02*
X48762468Y-100080596D01*
X36662468Y-93980596D02*
X36662468Y-100080596D01*
X36662468Y-93980596D02*
X48762468Y-93980596D01*
X48762468Y-93980596D02*
X48762468Y-100080596D01*
D12*
%TO.C,RSW101*%
X38712468Y-107680596D02*
X38162468Y-107680596D01*
X36587468Y-106655596D02*
X36587468Y-107580596D01*
X36587468Y-102880596D02*
X36587468Y-103805596D01*
X40287468Y-102880596D02*
X40287468Y-107580596D01*
X38712468Y-102780596D02*
X38162468Y-102780596D01*
D13*
%TO.C,SW16*%
X271716074Y-124047750D02*
G75*
G03*
X271716074Y-124047750I-6467001J0D01*
G01*
D12*
%TO.C,U102*%
X116483373Y-101937136D02*
X116483373Y-98487136D01*
X116483373Y-101937136D02*
X116483373Y-103887136D01*
X106363373Y-101937136D02*
X106363373Y-99987136D01*
X106363373Y-101937136D02*
X106363373Y-103887136D01*
%TO.C,R11*%
X202487517Y-97126054D02*
X202487517Y-96671926D01*
X203957517Y-97126054D02*
X203957517Y-96671926D01*
%TO.C,R106*%
X123325895Y-100184644D02*
X123325895Y-99730516D01*
X124795895Y-100184644D02*
X124795895Y-99730516D01*
%TO.C,R4*%
X242224549Y-97732925D02*
X242224549Y-98187053D01*
X240754549Y-97732925D02*
X240754549Y-98187053D01*
%TO.C,R104*%
X62893122Y-97988993D02*
X62893122Y-98443121D01*
X61423122Y-97988993D02*
X61423122Y-98443121D01*
%TO.C,R112*%
X60924965Y-97988993D02*
X60924965Y-98443121D01*
X59454965Y-97988993D02*
X59454965Y-98443121D01*
D13*
%TO.C,SW115*%
X71173339Y-83959995D02*
G75*
G03*
X71173339Y-83959995I-6467000J0D01*
G01*
%TO.C,SW113*%
X109273340Y-74959989D02*
G75*
G03*
X109273340Y-74959989I-6467000J0D01*
G01*
%TO.C,SW110*%
X71173340Y-64909997D02*
G75*
G03*
X71173340Y-64909997I-6467000J0D01*
G01*
D14*
%TO.C,U1*%
X266644575Y-59103659D02*
X266644575Y-89583659D01*
X264104575Y-59103659D02*
X264104575Y-61643659D01*
X248864575Y-59103659D02*
X266644575Y-59103659D01*
X264104575Y-61643659D02*
X266644575Y-61643659D01*
X266644575Y-89583659D02*
X248864575Y-89583659D01*
X248864575Y-89583659D02*
X248864575Y-59103659D01*
%TO.C,U101*%
X54681311Y-59103658D02*
X54681311Y-89583658D01*
X52141311Y-59103658D02*
X52141311Y-61643658D01*
X36901311Y-59103658D02*
X54681311Y-59103658D01*
X52141311Y-61643658D02*
X54681311Y-61643658D01*
X54681311Y-89583658D02*
X36901311Y-89583658D01*
X36901311Y-89583658D02*
X36901311Y-59103658D01*
%TD*%
D15*
%TO.C,U1*%
X265374575Y-60373659D03*
D16*
X265374575Y-62913659D03*
X265374575Y-65453659D03*
X265374575Y-67993659D03*
X265374575Y-70533659D03*
X265374575Y-73073659D03*
X265374575Y-75613659D03*
X265374575Y-78153659D03*
X265374575Y-80693659D03*
X265374575Y-83233659D03*
X265374575Y-85773659D03*
X265374575Y-88313659D03*
X250134575Y-88313659D03*
X250134575Y-85773659D03*
X250134575Y-83233659D03*
X250134575Y-80693659D03*
X250134575Y-78153659D03*
X250134575Y-75613659D03*
X250134575Y-73073659D03*
X250134575Y-70533659D03*
X250134575Y-67993659D03*
X250134575Y-65453659D03*
X250134575Y-62913659D03*
X250134575Y-60373659D03*
%TD*%
D15*
%TO.C,U101*%
X53411311Y-60373658D03*
D16*
X53411311Y-62913658D03*
X53411311Y-65453658D03*
X53411311Y-67993658D03*
X53411311Y-70533658D03*
X53411311Y-73073658D03*
X53411311Y-75613658D03*
X53411311Y-78153658D03*
X53411311Y-80693658D03*
X53411311Y-83233658D03*
X53411311Y-85773658D03*
X53411311Y-88313658D03*
X38171311Y-88313658D03*
X38171311Y-85773658D03*
X38171311Y-83233658D03*
X38171311Y-80693658D03*
X38171311Y-78153658D03*
X38171311Y-75613658D03*
X38171311Y-73073658D03*
X38171311Y-70533658D03*
X38171311Y-67993658D03*
X38171311Y-65453658D03*
X38171311Y-62913658D03*
X38171311Y-60373658D03*
%TD*%
%LPC*%
D17*
%TO.C,BAT_HOLE-101*%
X38155480Y-57819423D03*
%TD*%
D18*
%TO.C,H103*%
X140906339Y-83435489D03*
%TD*%
D19*
%TO.C,JP101*%
X96923373Y-95592136D03*
X94923373Y-95592136D03*
%TD*%
D20*
%TO.C,C3*%
X215026049Y-97598989D03*
X212951049Y-97598989D03*
%TD*%
D18*
%TO.C,H1*%
X162639543Y-44666058D03*
%TD*%
D21*
%TO.C,R12*%
X243439963Y-96966057D03*
X243439963Y-98966057D03*
%TD*%
D22*
%TO.C,R107*%
X110741405Y-95592136D03*
X112741405Y-95592136D03*
%TD*%
D18*
%TO.C,H102*%
X140906350Y-64385490D03*
%TD*%
D23*
%TO.C,RSW1*%
X266490971Y-105420627D03*
X263740971Y-105420627D03*
D24*
X265965971Y-102795627D03*
X265965971Y-108045627D03*
X264265971Y-102795627D03*
X264265971Y-108045627D03*
%TD*%
D25*
%TO.C,U103*%
X97398371Y-103842135D03*
X97398371Y-102572135D03*
X97398371Y-101302135D03*
X97398371Y-100032135D03*
X92448371Y-100032135D03*
X92448371Y-101302135D03*
X92448371Y-102572135D03*
X92448371Y-103842135D03*
%TD*%
D18*
%TO.C,H18*%
X45829990Y-116671093D03*
%TD*%
D22*
%TO.C,R109*%
X115057340Y-95592136D03*
X117057340Y-95592136D03*
%TD*%
D26*
%TO.C,mouse-bite-2mm-slot*%
X150753549Y-60678491D03*
X150753549Y-61694491D03*
X150753549Y-62710491D03*
X150753549Y-63726491D03*
X150753549Y-64742491D03*
X152785549Y-60678491D03*
X152785549Y-61694491D03*
X152785549Y-62710491D03*
X152785549Y-63726491D03*
X152785549Y-64742491D03*
%TD*%
D19*
%TO.C,R7*%
X192804486Y-95592133D03*
X190804486Y-95592133D03*
%TD*%
D27*
%TO.C,U3*%
X206147514Y-100032135D03*
X206147514Y-101302135D03*
X206147514Y-102572135D03*
X206147514Y-103842135D03*
X211097514Y-103842135D03*
X211097514Y-102572135D03*
X211097514Y-101302135D03*
X211097514Y-100032135D03*
%TD*%
D17*
%TO.C,BAT_HOLE+1*%
X250116908Y-57819421D03*
%TD*%
D18*
%TO.C,H9*%
X219789549Y-33166058D03*
%TD*%
%TO.C,H110*%
X64706339Y-35666056D03*
%TD*%
D28*
%TO.C,H115*%
X53181889Y-54480531D03*
%TD*%
D18*
%TO.C,H108*%
X102806338Y-86959989D03*
%TD*%
%TO.C,H10*%
X238839551Y-35666058D03*
%TD*%
D28*
%TO.C,H17*%
X250364002Y-97039421D03*
%TD*%
D29*
%TO.C,R105*%
X127410896Y-104957579D03*
X127410896Y-102957579D03*
%TD*%
D19*
%TO.C,R110*%
X96923372Y-97592136D03*
X94923372Y-97592136D03*
%TD*%
D30*
%TO.C,C102*%
X102839547Y-102579634D03*
X102839547Y-100504634D03*
%TD*%
D18*
%TO.C,H105*%
X126906338Y-94960499D03*
%TD*%
%TO.C,H13*%
X239297894Y-106243092D03*
%TD*%
%TO.C,H2*%
X162639541Y-64385492D03*
%TD*%
%TO.C,H112*%
X64706342Y-74434994D03*
%TD*%
%TO.C,H5*%
X176639550Y-94960499D03*
%TD*%
D31*
%TO.C,C1*%
X198822514Y-95898991D03*
X200897514Y-95898991D03*
%TD*%
D22*
%TO.C,R108*%
X119373278Y-95592134D03*
X121373278Y-95592134D03*
%TD*%
D18*
%TO.C,H113*%
X64247990Y-106243093D03*
%TD*%
D28*
%TO.C,H116*%
X38400564Y-54480077D03*
%TD*%
D18*
%TO.C,H104*%
X121856340Y-32666056D03*
%TD*%
%TO.C,H107*%
X102806347Y-65434996D03*
%TD*%
D29*
%TO.C,R9*%
X182238550Y-100648990D03*
X182238550Y-98648990D03*
%TD*%
D28*
%TO.C,H15*%
X250364001Y-54480531D03*
%TD*%
D19*
%TO.C,R6*%
X184238547Y-95542492D03*
X182238547Y-95542492D03*
%TD*%
D32*
%TO.C,J1*%
X265065975Y-97039423D03*
X258065975Y-97039423D03*
D33*
X255365975Y-94739423D03*
X263465975Y-99339423D03*
X260465975Y-99339423D03*
X256465975Y-99339423D03*
%TD*%
D30*
%TO.C,C2*%
X201122517Y-102579991D03*
X201122517Y-100504991D03*
%TD*%
D19*
%TO.C,R5*%
X188488548Y-95592136D03*
X186488548Y-95592136D03*
%TD*%
D18*
%TO.C,H14*%
X274694073Y-117014750D03*
%TD*%
%TO.C,H114*%
X28851834Y-117014598D03*
%TD*%
D28*
%TO.C,H117*%
X53181888Y-97039423D03*
%TD*%
D22*
%TO.C,R10*%
X206622514Y-97898990D03*
X208622514Y-97898990D03*
%TD*%
D18*
%TO.C,H12*%
X238839549Y-74434995D03*
%TD*%
D29*
%TO.C,R111*%
X100323371Y-97592137D03*
X100323371Y-95592137D03*
%TD*%
D18*
%TO.C,H6*%
X200739542Y-46384998D03*
%TD*%
D26*
%TO.C,mouse-bite-2mm-slot*%
X150753551Y-81678492D03*
X150753551Y-82694492D03*
X150753551Y-83710492D03*
X150753551Y-84726492D03*
X150753551Y-85742492D03*
X152785551Y-81678492D03*
X152785551Y-82694492D03*
X152785551Y-83710492D03*
X152785551Y-84726492D03*
X152785551Y-85742492D03*
%TD*%
D29*
%TO.C,R8*%
X178304486Y-104459424D03*
X178304486Y-102459424D03*
%TD*%
D18*
%TO.C,H101*%
X140906345Y-44666058D03*
%TD*%
D34*
%TO.C,U2*%
X187677517Y-104412137D03*
X188947517Y-104412137D03*
X190217517Y-104412137D03*
X191487517Y-104412137D03*
X192757517Y-104412137D03*
X194027517Y-104412137D03*
X195297517Y-104412137D03*
X196567517Y-104412137D03*
X196567517Y-99462137D03*
X195297517Y-99462137D03*
X194027517Y-99462137D03*
X192757517Y-99462137D03*
X191487517Y-99462137D03*
X190217517Y-99462137D03*
X188947517Y-99462137D03*
X187677517Y-99462137D03*
%TD*%
D22*
%TO.C,JP1*%
X206622517Y-95898992D03*
X208622517Y-95898992D03*
%TD*%
D35*
%TO.C,BAT_HOLE+101*%
X53428978Y-57819423D03*
%TD*%
D18*
%TO.C,H4*%
X181689545Y-32666057D03*
%TD*%
%TO.C,H11*%
X238839549Y-55384995D03*
%TD*%
D16*
%TO.C,DISP1*%
X252674330Y-92332635D03*
X255214330Y-92332635D03*
X257754330Y-92332635D03*
X260294330Y-92332635D03*
X262834330Y-92332635D03*
%TD*%
%TO.C,DISP101*%
X40711557Y-92332635D03*
X43251557Y-92332635D03*
X45791557Y-92332635D03*
X48331557Y-92332635D03*
X50871557Y-92332635D03*
%TD*%
D20*
%TO.C,C101*%
X104723370Y-95592135D03*
X102648370Y-95592135D03*
%TD*%
D18*
%TO.C,H109*%
X83756337Y-33166058D03*
%TD*%
D28*
%TO.C,H16*%
X265145326Y-54480079D03*
%TD*%
D18*
%TO.C,H7*%
X200739541Y-65434995D03*
%TD*%
D35*
%TO.C,BAT_HOLE-1*%
X265390409Y-57819423D03*
%TD*%
D31*
%TO.C,C103*%
X88552047Y-97592135D03*
X90627047Y-97592135D03*
%TD*%
D32*
%TO.C,J101*%
X38262468Y-97030596D03*
X45262468Y-97030596D03*
D33*
X47962468Y-99330596D03*
X39862468Y-94730596D03*
X42862468Y-94730596D03*
X46862468Y-94730596D03*
%TD*%
D23*
%TO.C,RSW101*%
X37062468Y-105230596D03*
X39812468Y-105230596D03*
D24*
X37587468Y-107855596D03*
X37587468Y-102605596D03*
X39287468Y-107855596D03*
X39287468Y-102605596D03*
%TD*%
D18*
%TO.C,H111*%
X64706336Y-55384996D03*
%TD*%
D36*
%TO.C,U102*%
X115868373Y-99462136D03*
X114598373Y-99462136D03*
X113328373Y-99462136D03*
X112058373Y-99462136D03*
X110788373Y-99462136D03*
X109518373Y-99462136D03*
X108248373Y-99462136D03*
X106978373Y-99462136D03*
X106978373Y-104412136D03*
X108248373Y-104412136D03*
X109518373Y-104412136D03*
X110788373Y-104412136D03*
X112058373Y-104412136D03*
X113328373Y-104412136D03*
X114598373Y-104412136D03*
X115868373Y-104412136D03*
%TD*%
D29*
%TO.C,R11*%
X203222517Y-97898990D03*
X203222517Y-95898990D03*
%TD*%
%TO.C,R106*%
X124060895Y-100957580D03*
X124060895Y-98957580D03*
%TD*%
D18*
%TO.C,H3*%
X162639550Y-83435488D03*
%TD*%
D21*
%TO.C,R4*%
X241489549Y-96959989D03*
X241489549Y-98959989D03*
%TD*%
D18*
%TO.C,H19*%
X257715972Y-116670626D03*
%TD*%
D21*
%TO.C,R104*%
X62158122Y-97216057D03*
X62158122Y-99216057D03*
%TD*%
%TO.C,R112*%
X60189965Y-97216057D03*
X60189965Y-99216057D03*
%TD*%
D18*
%TO.C,H8*%
X200739548Y-86959992D03*
%TD*%
%TO.C,H106*%
X102806346Y-46384994D03*
%TD*%
D37*
%TO.C,PSW1*%
X256254580Y-57812138D03*
X259254580Y-57812138D03*
%TD*%
%TO.C,PSW101*%
X44291307Y-57812135D03*
X47291307Y-57812135D03*
%TD*%
D15*
%TO.C,U1*%
X265374575Y-60373659D03*
D16*
X265374575Y-62913659D03*
X265374575Y-65453659D03*
X265374575Y-67993659D03*
X265374575Y-70533659D03*
X265374575Y-73073659D03*
X265374575Y-75613659D03*
X265374575Y-78153659D03*
X265374575Y-80693659D03*
X265374575Y-83233659D03*
X265374575Y-85773659D03*
X265374575Y-88313659D03*
X250134575Y-88313659D03*
X250134575Y-85773659D03*
X250134575Y-83233659D03*
X250134575Y-80693659D03*
X250134575Y-78153659D03*
X250134575Y-75613659D03*
X250134575Y-73073659D03*
X250134575Y-70533659D03*
X250134575Y-67993659D03*
X250134575Y-65453659D03*
X250134575Y-62913659D03*
X250134575Y-60373659D03*
%TD*%
D15*
%TO.C,U101*%
X53411311Y-60373658D03*
D16*
X53411311Y-62913658D03*
X53411311Y-65453658D03*
X53411311Y-67993658D03*
X53411311Y-70533658D03*
X53411311Y-73073658D03*
X53411311Y-75613658D03*
X53411311Y-78153658D03*
X53411311Y-80693658D03*
X53411311Y-83233658D03*
X53411311Y-85773658D03*
X53411311Y-88313658D03*
X38171311Y-88313658D03*
X38171311Y-85773658D03*
X38171311Y-83233658D03*
X38171311Y-80693658D03*
X38171311Y-78153658D03*
X38171311Y-75613658D03*
X38171311Y-73073658D03*
X38171311Y-70533658D03*
X38171311Y-67993658D03*
X38171311Y-65453658D03*
X38171311Y-62913658D03*
X38171311Y-60373658D03*
%TD*%
%LPD*%
M02*
