%TF.GenerationSoftware,KiCad,Pcbnew,7.0.7-2.fc38*%
%TF.CreationDate,2023-10-05T15:22:53+05:30*%
%TF.ProjectId,bottom_plate,626f7474-6f6d-45f7-906c-6174652e6b69,rev?*%
%TF.SameCoordinates,Original*%
%TF.FileFunction,Profile,NP*%
%FSLAX46Y46*%
G04 Gerber Fmt 4.6, Leading zero omitted, Abs format (unit mm)*
G04 Created by KiCad (PCBNEW 7.0.7-2.fc38) date 2023-10-05 15:22:53*
%MOMM*%
%LPD*%
G01*
G04 APERTURE LIST*
%TA.AperFunction,Profile*%
%ADD10C,0.100000*%
%TD*%
%TA.AperFunction,Profile*%
%ADD11C,0.050000*%
%TD*%
G04 APERTURE END LIST*
D10*
X34902248Y-111364422D02*
G75*
G03*
X36401834Y-109839598I-25448J1524822D01*
G01*
D11*
X36400943Y-94264806D02*
X36400629Y-54480040D01*
D10*
X36401834Y-109839598D02*
X36400943Y-94264806D01*
D11*
X150430917Y-46085746D02*
G75*
G03*
X150107140Y-45349092I-999117J346D01*
G01*
D10*
X35746711Y-135879352D02*
X26297571Y-126235009D01*
D11*
X35746713Y-135879350D02*
G75*
G03*
X40579026Y-135740784I2340757J2698750D01*
G01*
X53181941Y-52480354D02*
G75*
G03*
X51181954Y-54480492I-41J-1999946D01*
G01*
X54681882Y-52480484D02*
G75*
G03*
X55181884Y-51980529I-182J500184D01*
G01*
D10*
X25726834Y-124214598D02*
X25726834Y-112889598D01*
D11*
X40400754Y-54479892D02*
X40400928Y-55729819D01*
X150107143Y-45349089D02*
G75*
G03*
X100806597Y-26334574I-49300483J-54405431D01*
G01*
X150430947Y-101485646D02*
X150430939Y-86246058D01*
X121856035Y-110035978D02*
G75*
G03*
X149957548Y-102335002I-135J55123378D01*
G01*
X149957548Y-102335003D02*
G75*
G03*
X150430947Y-101485646I-525148J849303D01*
G01*
X121856035Y-110035989D02*
X95794156Y-110035649D01*
X95794156Y-110035647D02*
G75*
G03*
X40579028Y-135740785I232684J-72653953D01*
G01*
X51171834Y-55730423D02*
X51171834Y-67984598D01*
X100806597Y-26334573D02*
G75*
G03*
X55757144Y-36379092I503J-106047427D01*
G01*
D10*
X25726831Y-124214598D02*
G75*
G03*
X26297572Y-126235009I3949969J24998D01*
G01*
D11*
X55181887Y-37284664D02*
X55181884Y-51980529D01*
X150430942Y-60166057D02*
X150430939Y-86246058D01*
X51181785Y-55730423D02*
X51181954Y-54480492D01*
X40391834Y-55729819D02*
X40391834Y-67984598D01*
X150430942Y-60166057D02*
X150430939Y-46085746D01*
D10*
X27251834Y-111364634D02*
G75*
G03*
X25726834Y-112889598I-34J-1524966D01*
G01*
D11*
X40400698Y-54479892D02*
G75*
G03*
X38400617Y-52479902I-1999898J92D01*
G01*
X40391834Y-67984598D02*
X51171834Y-67984598D01*
X55757142Y-36379088D02*
G75*
G03*
X55181887Y-37284664I425058J-905512D01*
G01*
X53181941Y-52480355D02*
X54681882Y-52480529D01*
X38400617Y-52479929D02*
G75*
G03*
X36400629Y-54480040I283J-2000271D01*
G01*
D10*
X34902247Y-111364386D02*
X27251834Y-111364598D01*
D11*
%TO.C,DISP101*%
X41736557Y-92332635D02*
G75*
G03*
X41736557Y-92332635I-1025000J0D01*
G01*
X44276557Y-92332635D02*
G75*
G03*
X44276557Y-92332635I-1025000J0D01*
G01*
X46816557Y-92332635D02*
G75*
G03*
X46816557Y-92332635I-1025000J0D01*
G01*
X49356557Y-92332635D02*
G75*
G03*
X49356557Y-92332635I-1025000J0D01*
G01*
X51896557Y-92332635D02*
G75*
G03*
X51896557Y-92332635I-1025000J0D01*
G01*
%TO.C,J101*%
X40062468Y-100330596D02*
X39662468Y-100330596D01*
X43062468Y-100330596D02*
X42662468Y-100330596D01*
X48162468Y-100330596D02*
X46662468Y-100330596D01*
X39662468Y-98330596D02*
X40062468Y-98330596D01*
X42662468Y-98330596D02*
X43062468Y-98330596D01*
X46662468Y-98330596D02*
X48162468Y-98330596D01*
X39662468Y-95730596D02*
X40062468Y-95730596D01*
X42662468Y-95730596D02*
X43062468Y-95730596D01*
X46662468Y-95730596D02*
X48262468Y-95730596D01*
X40062468Y-93730596D02*
X39662468Y-93730596D01*
X43062468Y-93730596D02*
X42662468Y-93730596D01*
X48262468Y-93730596D02*
X46662468Y-93730596D01*
X39662468Y-98330596D02*
G75*
G03*
X39662468Y-100330596I0J-1000000D01*
G01*
X42662468Y-98330596D02*
G75*
G03*
X42662468Y-100330596I0J-1000000D01*
G01*
X46662468Y-98330596D02*
G75*
G03*
X46662468Y-100330596I0J-1000000D01*
G01*
X40062468Y-100330596D02*
G75*
G03*
X40062468Y-98330596I0J1000000D01*
G01*
X43062468Y-100330596D02*
G75*
G03*
X43062468Y-98330596I0J1000000D01*
G01*
X48162468Y-100330596D02*
G75*
G03*
X48162468Y-98330596I0J1000000D01*
G01*
X39662468Y-93730596D02*
G75*
G03*
X39662468Y-95730596I0J-1000000D01*
G01*
X42662468Y-93730596D02*
G75*
G03*
X42662468Y-95730596I0J-1000000D01*
G01*
X46662468Y-93730596D02*
G75*
G03*
X46662468Y-95730596I0J-1000000D01*
G01*
X40062468Y-95730596D02*
G75*
G03*
X40062468Y-93730596I0J1000000D01*
G01*
X43062468Y-95730596D02*
G75*
G03*
X43062468Y-93730596I0J1000000D01*
G01*
X48262468Y-95730596D02*
G75*
G03*
X48262468Y-93730596I0J1000000D01*
G01*
%TO.C,U101*%
X54211311Y-59373658D02*
X52611311Y-59373658D01*
X38971311Y-59373658D02*
X37371311Y-59373658D01*
X52411311Y-59573658D02*
X52411311Y-61173658D01*
X37171311Y-59573658D02*
X37171311Y-61173658D01*
X54411311Y-61173658D02*
X54411311Y-59573658D01*
X39171311Y-61173658D02*
X39171311Y-59573658D01*
X52611311Y-61373658D02*
X54211311Y-61373658D01*
X37371311Y-61373658D02*
X38971311Y-61373658D01*
X54411311Y-59573658D02*
G75*
G03*
X54211311Y-59373658I-200001J-1D01*
G01*
X39171311Y-59573658D02*
G75*
G03*
X38971311Y-59373658I-200001J-1D01*
G01*
X52611311Y-59373658D02*
G75*
G03*
X52411311Y-59573658I1J-200001D01*
G01*
X37371311Y-59373658D02*
G75*
G03*
X37171311Y-59573658I1J-200001D01*
G01*
X54211311Y-61373658D02*
G75*
G03*
X54411311Y-61173658I-1J200001D01*
G01*
X38971311Y-61373658D02*
G75*
G03*
X39171311Y-61173658I-1J200001D01*
G01*
X52411311Y-61173658D02*
G75*
G03*
X52611311Y-61373658I200001J1D01*
G01*
X37171311Y-61173658D02*
G75*
G03*
X37371311Y-61373658I200001J1D01*
G01*
X54436311Y-62913658D02*
G75*
G03*
X54436311Y-62913658I-1025000J0D01*
G01*
X39196311Y-62913658D02*
G75*
G03*
X39196311Y-62913658I-1025000J0D01*
G01*
X54436311Y-65453658D02*
G75*
G03*
X54436311Y-65453658I-1025000J0D01*
G01*
X39196311Y-65453658D02*
G75*
G03*
X39196311Y-65453658I-1025000J0D01*
G01*
X54436311Y-67993658D02*
G75*
G03*
X54436311Y-67993658I-1025000J0D01*
G01*
X39196311Y-67993658D02*
G75*
G03*
X39196311Y-67993658I-1025000J0D01*
G01*
X54436311Y-70533658D02*
G75*
G03*
X54436311Y-70533658I-1025000J0D01*
G01*
X39196311Y-70533658D02*
G75*
G03*
X39196311Y-70533658I-1025000J0D01*
G01*
X54436311Y-73073658D02*
G75*
G03*
X54436311Y-73073658I-1025000J0D01*
G01*
X39196311Y-73073658D02*
G75*
G03*
X39196311Y-73073658I-1025000J0D01*
G01*
X54436311Y-75613658D02*
G75*
G03*
X54436311Y-75613658I-1025000J0D01*
G01*
X39196311Y-75613658D02*
G75*
G03*
X39196311Y-75613658I-1025000J0D01*
G01*
X54436311Y-78153658D02*
G75*
G03*
X54436311Y-78153658I-1025000J0D01*
G01*
X39196311Y-78153658D02*
G75*
G03*
X39196311Y-78153658I-1025000J0D01*
G01*
X54436311Y-80693658D02*
G75*
G03*
X54436311Y-80693658I-1025000J0D01*
G01*
X39196311Y-80693658D02*
G75*
G03*
X39196311Y-80693658I-1025000J0D01*
G01*
X54436311Y-83233658D02*
G75*
G03*
X54436311Y-83233658I-1025000J0D01*
G01*
X39196311Y-83233658D02*
G75*
G03*
X39196311Y-83233658I-1025000J0D01*
G01*
X54436311Y-85773658D02*
G75*
G03*
X54436311Y-85773658I-1025000J0D01*
G01*
X39196311Y-85773658D02*
G75*
G03*
X39196311Y-85773658I-1025000J0D01*
G01*
X54436311Y-88313658D02*
G75*
G03*
X54436311Y-88313658I-1025000J0D01*
G01*
X39196311Y-88313658D02*
G75*
G03*
X39196311Y-88313658I-1025000J0D01*
G01*
%TD*%
M02*
