%TF.GenerationSoftware,KiCad,Pcbnew,7.0.7-2.fc38*%
%TF.CreationDate,2023-10-08T12:29:29+05:30*%
%TF.ProjectId,tako_left,74616b6f-5f6c-4656-9674-2e6b69636164,rev?*%
%TF.SameCoordinates,Original*%
%TF.FileFunction,Soldermask,Bot*%
%TF.FilePolarity,Negative*%
%FSLAX46Y46*%
G04 Gerber Fmt 4.6, Leading zero omitted, Abs format (unit mm)*
G04 Created by KiCad (PCBNEW 7.0.7-2.fc38) date 2023-10-08 12:29:29*
%MOMM*%
%LPD*%
G01*
G04 APERTURE LIST*
G04 Aperture macros list*
%AMRoundRect*
0 Rectangle with rounded corners*
0 $1 Rounding radius*
0 $2 $3 $4 $5 $6 $7 $8 $9 X,Y pos of 4 corners*
0 Add a 4 corners polygon primitive as box body*
4,1,4,$2,$3,$4,$5,$6,$7,$8,$9,$2,$3,0*
0 Add four circle primitives for the rounded corners*
1,1,$1+$1,$2,$3*
1,1,$1+$1,$4,$5*
1,1,$1+$1,$6,$7*
1,1,$1+$1,$8,$9*
0 Add four rect primitives between the rounded corners*
20,1,$1+$1,$2,$3,$4,$5,0*
20,1,$1+$1,$4,$5,$6,$7,0*
20,1,$1+$1,$6,$7,$8,$9,0*
20,1,$1+$1,$8,$9,$2,$3,0*%
G04 Aperture macros list end*
%ADD10RoundRect,0.312500X-0.312500X-0.312500X0.312500X-0.312500X0.312500X0.312500X-0.312500X0.312500X0*%
%ADD11C,3.400000*%
%ADD12C,3.500000*%
%ADD13RoundRect,0.312500X0.312500X0.312500X-0.312500X0.312500X-0.312500X-0.312500X0.312500X-0.312500X0*%
%ADD14C,1.752600*%
%ADD15C,0.800000*%
%ADD16O,2.000000X1.600000*%
%ADD17C,0.750000*%
%ADD18RoundRect,0.250000X0.350000X0.450000X-0.350000X0.450000X-0.350000X-0.450000X0.350000X-0.450000X0*%
%ADD19RoundRect,0.120000X-0.480000X-0.280000X0.480000X-0.280000X0.480000X0.280000X-0.480000X0.280000X0*%
%ADD20C,0.900000*%
%ADD21RoundRect,0.105000X-0.245000X-0.645000X0.245000X-0.645000X0.245000X0.645000X-0.245000X0.645000X0*%
%ADD22RoundRect,0.250000X-0.350000X-0.450000X0.350000X-0.450000X0.350000X0.450000X-0.350000X0.450000X0*%
%ADD23R,1.752600X1.752600*%
G04 APERTURE END LIST*
D10*
%TO.C,BAT_HOLE-101*%
X38155480Y-57819423D03*
%TD*%
D11*
%TO.C,H103*%
X140906339Y-83435489D03*
%TD*%
%TO.C,H102*%
X140906350Y-64385490D03*
%TD*%
%TO.C,H18*%
X45829990Y-116671093D03*
%TD*%
%TO.C,H110*%
X64706339Y-35666056D03*
%TD*%
D12*
%TO.C,H115*%
X53181889Y-54480531D03*
%TD*%
D11*
%TO.C,H108*%
X102806338Y-86959989D03*
%TD*%
%TO.C,H105*%
X126906338Y-94960499D03*
%TD*%
%TO.C,H112*%
X64706342Y-74434994D03*
%TD*%
%TO.C,H113*%
X64247990Y-106243093D03*
%TD*%
D12*
%TO.C,H116*%
X38400564Y-54480077D03*
%TD*%
D11*
%TO.C,H104*%
X121856340Y-32666056D03*
%TD*%
%TO.C,H107*%
X102806347Y-65434996D03*
%TD*%
%TO.C,H114*%
X28851834Y-117014598D03*
%TD*%
D12*
%TO.C,H117*%
X53181888Y-97039423D03*
%TD*%
D11*
%TO.C,H101*%
X140906345Y-44666058D03*
%TD*%
D13*
%TO.C,BAT_HOLE+101*%
X53428978Y-57819423D03*
%TD*%
D14*
%TO.C,DISP101*%
X40711557Y-92332635D03*
X43251557Y-92332635D03*
X45791557Y-92332635D03*
X48331557Y-92332635D03*
X50871557Y-92332635D03*
%TD*%
D11*
%TO.C,H109*%
X83756337Y-33166058D03*
%TD*%
D15*
%TO.C,J101*%
X38262468Y-97030596D03*
X45262468Y-97030596D03*
D16*
X47962468Y-99330596D03*
X39862468Y-94730596D03*
X42862468Y-94730596D03*
X46862468Y-94730596D03*
%TD*%
D17*
%TO.C,RSW101*%
X37062468Y-105230596D03*
X39812468Y-105230596D03*
%TD*%
D11*
%TO.C,H111*%
X64706336Y-55384996D03*
%TD*%
%TO.C,H106*%
X102806346Y-46384994D03*
%TD*%
D18*
%TO.C,R101*%
X46773372Y-62242136D03*
X44773372Y-62242136D03*
%TD*%
D19*
%TO.C,PSW101*%
X42041307Y-56712135D03*
X42041307Y-58922135D03*
D20*
X44291307Y-57812135D03*
X47291307Y-57812135D03*
D19*
X49541307Y-56712135D03*
X49541307Y-58922135D03*
D21*
X43541307Y-59572135D03*
X46541307Y-59572135D03*
X48041307Y-59572135D03*
%TD*%
D22*
%TO.C,R102*%
X44773374Y-64192135D03*
X46773374Y-64192135D03*
%TD*%
D23*
%TO.C,U101*%
X53411311Y-60373658D03*
D14*
X53411311Y-62913658D03*
X53411311Y-65453658D03*
X53411311Y-67993658D03*
X53411311Y-70533658D03*
X53411311Y-73073658D03*
X53411311Y-75613658D03*
X53411311Y-78153658D03*
X53411311Y-80693658D03*
X53411311Y-83233658D03*
X53411311Y-85773658D03*
X53411311Y-88313658D03*
X38171311Y-88313658D03*
X38171311Y-85773658D03*
X38171311Y-83233658D03*
X38171311Y-80693658D03*
X38171311Y-78153658D03*
X38171311Y-75613658D03*
X38171311Y-73073658D03*
X38171311Y-70533658D03*
X38171311Y-67993658D03*
X38171311Y-65453658D03*
X38171311Y-62913658D03*
X38171311Y-60373658D03*
%TD*%
D22*
%TO.C,R103*%
X44773372Y-66142134D03*
X46773372Y-66142134D03*
%TD*%
M02*
