M48
; DRILL file {KiCad 7.0.7-2.fc38} date Sunday 08 October 2023 12:29:31 PM
; FORMAT={-:-/ absolute / inch / decimal}
; #@! TF.CreationDate,2023-10-08T12:29:31+05:30
; #@! TF.GenerationSoftware,Kicad,Pcbnew,7.0.7-2.fc38
; #@! TF.FileFunction,NonPlated,1,2,NPTH
FMAT,2
INCH
; #@! TA.AperFunction,NonPlated,NPTH,ComponentDrill
T1C0.0295
; #@! TA.AperFunction,NonPlated,NPTH,ComponentDrill
T2C0.0315
; #@! TA.AperFunction,NonPlated,NPTH,ComponentDrill
T3C0.0354
; #@! TA.AperFunction,NonPlated,NPTH,ComponentDrill
T4C0.1339
%
G90
G05
T1
X1.4592Y-4.1429
X1.5674Y-4.1429
T2
X1.5064Y-3.8201
X1.782Y-3.8201
T3
X1.7438Y-2.2761
X1.8619Y-2.2761
T4
X1.1359Y-4.6069
X1.8043Y-4.5934
X2.5294Y-4.1828
X2.5475Y-2.1805
X2.5475Y-1.4042
X2.5475Y-2.9305
X3.2975Y-1.3058
X4.0475Y-3.4236
X4.0475Y-1.8262
X4.0475Y-2.5762
X4.7975Y-1.2861
X4.9963Y-3.7386
X5.5475Y-3.2849
X5.5475Y-1.7585
X5.5475Y-2.5349
T0
M30
