%TF.GenerationSoftware,KiCad,Pcbnew,7.0.7-2.fc38*%
%TF.CreationDate,2023-10-08T12:29:29+05:30*%
%TF.ProjectId,tako_left,74616b6f-5f6c-4656-9674-2e6b69636164,rev?*%
%TF.SameCoordinates,Original*%
%TF.FileFunction,Paste,Top*%
%TF.FilePolarity,Positive*%
%FSLAX46Y46*%
G04 Gerber Fmt 4.6, Leading zero omitted, Abs format (unit mm)*
G04 Created by KiCad (PCBNEW 7.0.7-2.fc38) date 2023-10-08 12:29:29*
%MOMM*%
%LPD*%
G01*
G04 APERTURE LIST*
G04 Aperture macros list*
%AMRoundRect*
0 Rectangle with rounded corners*
0 $1 Rounding radius*
0 $2 $3 $4 $5 $6 $7 $8 $9 X,Y pos of 4 corners*
0 Add a 4 corners polygon primitive as box body*
4,1,4,$2,$3,$4,$5,$6,$7,$8,$9,$2,$3,0*
0 Add four circle primitives for the rounded corners*
1,1,$1+$1,$2,$3*
1,1,$1+$1,$4,$5*
1,1,$1+$1,$6,$7*
1,1,$1+$1,$8,$9*
0 Add four rect primitives between the rounded corners*
20,1,$1+$1,$2,$3,$4,$5,0*
20,1,$1+$1,$4,$5,$6,$7,0*
20,1,$1+$1,$6,$7,$8,$9,0*
20,1,$1+$1,$8,$9,$2,$3,0*%
G04 Aperture macros list end*
%ADD10RoundRect,0.312500X-0.312500X-0.312500X0.312500X-0.312500X0.312500X0.312500X-0.312500X0.312500X0*%
%ADD11RoundRect,0.250000X0.350000X0.450000X-0.350000X0.450000X-0.350000X-0.450000X0.350000X-0.450000X0*%
%ADD12RoundRect,0.250000X-0.350000X-0.450000X0.350000X-0.450000X0.350000X0.450000X-0.350000X0.450000X0*%
%ADD13RoundRect,0.150000X0.825000X0.150000X-0.825000X0.150000X-0.825000X-0.150000X0.825000X-0.150000X0*%
%ADD14RoundRect,0.250000X0.450000X-0.350000X0.450000X0.350000X-0.450000X0.350000X-0.450000X-0.350000X0*%
%ADD15RoundRect,0.250000X0.475000X-0.337500X0.475000X0.337500X-0.475000X0.337500X-0.475000X-0.337500X0*%
%ADD16RoundRect,0.312500X0.312500X0.312500X-0.312500X0.312500X-0.312500X-0.312500X0.312500X-0.312500X0*%
%ADD17RoundRect,0.250000X0.337500X0.475000X-0.337500X0.475000X-0.337500X-0.475000X0.337500X-0.475000X0*%
%ADD18RoundRect,0.250000X-0.337500X-0.475000X0.337500X-0.475000X0.337500X0.475000X-0.337500X0.475000X0*%
%ADD19R,1.000000X1.550000*%
%ADD20RoundRect,0.150000X-0.150000X0.825000X-0.150000X-0.825000X0.150000X-0.825000X0.150000X0.825000X0*%
%ADD21RoundRect,0.250000X-0.450000X0.350000X-0.450000X-0.350000X0.450000X-0.350000X0.450000X0.350000X0*%
G04 APERTURE END LIST*
D10*
%TO.C,BAT_HOLE-101*%
X38155480Y-57819423D03*
%TD*%
D11*
%TO.C,JP101*%
X96923373Y-95592136D03*
X94923373Y-95592136D03*
%TD*%
D12*
%TO.C,R107*%
X110741405Y-95592136D03*
X112741405Y-95592136D03*
%TD*%
D13*
%TO.C,U103*%
X97398371Y-103842135D03*
X97398371Y-102572135D03*
X97398371Y-101302135D03*
X97398371Y-100032135D03*
X92448371Y-100032135D03*
X92448371Y-101302135D03*
X92448371Y-102572135D03*
X92448371Y-103842135D03*
%TD*%
D12*
%TO.C,R109*%
X115057340Y-95592136D03*
X117057340Y-95592136D03*
%TD*%
D14*
%TO.C,R105*%
X127410896Y-104957579D03*
X127410896Y-102957579D03*
%TD*%
D11*
%TO.C,R110*%
X96923372Y-97592136D03*
X94923372Y-97592136D03*
%TD*%
D15*
%TO.C,C102*%
X102839547Y-102579634D03*
X102839547Y-100504634D03*
%TD*%
D12*
%TO.C,R108*%
X119373278Y-95592134D03*
X121373278Y-95592134D03*
%TD*%
D14*
%TO.C,R111*%
X100323371Y-97592137D03*
X100323371Y-95592137D03*
%TD*%
D16*
%TO.C,BAT_HOLE+101*%
X53428978Y-57819423D03*
%TD*%
D17*
%TO.C,C101*%
X104723370Y-95592135D03*
X102648370Y-95592135D03*
%TD*%
D18*
%TO.C,C103*%
X88552047Y-97592135D03*
X90627047Y-97592135D03*
%TD*%
D19*
%TO.C,RSW101*%
X37587468Y-107855596D03*
X37587468Y-102605596D03*
X39287468Y-107855596D03*
X39287468Y-102605596D03*
%TD*%
D20*
%TO.C,U102*%
X115868373Y-99462136D03*
X114598373Y-99462136D03*
X113328373Y-99462136D03*
X112058373Y-99462136D03*
X110788373Y-99462136D03*
X109518373Y-99462136D03*
X108248373Y-99462136D03*
X106978373Y-99462136D03*
X106978373Y-104412136D03*
X108248373Y-104412136D03*
X109518373Y-104412136D03*
X110788373Y-104412136D03*
X112058373Y-104412136D03*
X113328373Y-104412136D03*
X114598373Y-104412136D03*
X115868373Y-104412136D03*
%TD*%
D14*
%TO.C,R106*%
X124060895Y-100957580D03*
X124060895Y-98957580D03*
%TD*%
D21*
%TO.C,R104*%
X62158122Y-97216057D03*
X62158122Y-99216057D03*
%TD*%
%TO.C,R112*%
X60189965Y-97216057D03*
X60189965Y-99216057D03*
%TD*%
M02*
