%TF.GenerationSoftware,KiCad,Pcbnew,7.0.7-2.fc38*%
%TF.CreationDate,2023-10-08T12:29:29+05:30*%
%TF.ProjectId,tako_left,74616b6f-5f6c-4656-9674-2e6b69636164,rev?*%
%TF.SameCoordinates,Original*%
%TF.FileFunction,Profile,NP*%
%FSLAX46Y46*%
G04 Gerber Fmt 4.6, Leading zero omitted, Abs format (unit mm)*
G04 Created by KiCad (PCBNEW 7.0.7-2.fc38) date 2023-10-08 12:29:29*
%MOMM*%
%LPD*%
G01*
G04 APERTURE LIST*
%TA.AperFunction,Profile*%
%ADD10C,0.050000*%
%TD*%
%TA.AperFunction,Profile*%
%ADD11C,0.100000*%
%TD*%
G04 APERTURE END LIST*
D10*
X150430939Y-86246058D02*
X150430942Y-60166057D01*
D11*
X34902248Y-111364422D02*
G75*
G03*
X36401834Y-109839598I-25448J1524822D01*
G01*
D10*
X36400943Y-94264806D02*
X36400629Y-54480040D01*
D11*
X36401834Y-109839598D02*
X36400943Y-94264806D01*
D10*
X150430917Y-46085746D02*
G75*
G03*
X150107140Y-45349092I-999117J346D01*
G01*
D11*
X35746711Y-135879352D02*
X26297571Y-126235009D01*
D10*
X35746713Y-135879350D02*
G75*
G03*
X40579026Y-135740784I2340757J2698750D01*
G01*
X53181941Y-52480354D02*
G75*
G03*
X51181954Y-54480492I-41J-1999946D01*
G01*
X54681882Y-52480484D02*
G75*
G03*
X55181884Y-51980529I-182J500184D01*
G01*
D11*
X25726834Y-124214598D02*
X25726834Y-112889598D01*
D10*
X40400885Y-55729819D02*
G75*
G03*
X40900935Y-56229815I500215J219D01*
G01*
X40400754Y-54479892D02*
X40400928Y-55729819D01*
X150107143Y-45349089D02*
G75*
G03*
X100806597Y-26334574I-49300483J-54405431D01*
G01*
X150430947Y-101485646D02*
X150430939Y-86246058D01*
X121856035Y-110035978D02*
G75*
G03*
X149957548Y-102335002I-135J55123378D01*
G01*
X149957548Y-102335003D02*
G75*
G03*
X150430947Y-101485646I-525148J849303D01*
G01*
X121856035Y-110035989D02*
X95794156Y-110035649D01*
X95794156Y-110035647D02*
G75*
G03*
X40579028Y-135740785I232684J-72653953D01*
G01*
X100806597Y-26334573D02*
G75*
G03*
X55757144Y-36379092I503J-106047427D01*
G01*
X40900935Y-56229815D02*
X50681774Y-56230421D01*
D11*
X25726831Y-124214598D02*
G75*
G03*
X26297572Y-126235009I3949969J24998D01*
G01*
D10*
X55181887Y-37284664D02*
X55181884Y-51980529D01*
X51181785Y-55730423D02*
X51181954Y-54480492D01*
X150430942Y-60166057D02*
X150430939Y-46085746D01*
D11*
X27251834Y-111364634D02*
G75*
G03*
X25726834Y-112889598I-34J-1524966D01*
G01*
D10*
X40400698Y-54479892D02*
G75*
G03*
X38400617Y-52479902I-1999898J92D01*
G01*
X55757142Y-36379088D02*
G75*
G03*
X55181887Y-37284664I425058J-905512D01*
G01*
X53181941Y-52480355D02*
X54681882Y-52480529D01*
X38400617Y-52479929D02*
G75*
G03*
X36400629Y-54480040I283J-2000271D01*
G01*
D11*
X34902247Y-111364386D02*
X27251834Y-111364598D01*
D10*
X50681774Y-56230385D02*
G75*
G03*
X51181785Y-55730423I26J499985D01*
G01*
M02*
