%TF.GenerationSoftware,KiCad,Pcbnew,7.0.7-2.fc38*%
%TF.CreationDate,2023-10-04T19:56:36+05:30*%
%TF.ProjectId,top_plate_niz,746f705f-706c-4617-9465-5f6e697a2e6b,rev?*%
%TF.SameCoordinates,Original*%
%TF.FileFunction,Profile,NP*%
%FSLAX46Y46*%
G04 Gerber Fmt 4.6, Leading zero omitted, Abs format (unit mm)*
G04 Created by KiCad (PCBNEW 7.0.7-2.fc38) date 2023-10-04 19:56:36*
%MOMM*%
%LPD*%
G01*
G04 APERTURE LIST*
%TA.AperFunction,Profile*%
%ADD10C,0.050000*%
%TD*%
%TA.AperFunction,Profile*%
%ADD11C,0.100000*%
%TD*%
G04 APERTURE END LIST*
D10*
X55182170Y-100170078D02*
X53182169Y-101202258D01*
X150430917Y-46085746D02*
G75*
G03*
X150107140Y-45349092I-999117J346D01*
G01*
D11*
X150430942Y-65246058D02*
X150430942Y-60166057D01*
D10*
X35746713Y-135879350D02*
G75*
G03*
X40579026Y-135740784I2340757J2698750D01*
G01*
X35746711Y-135879352D02*
X26387469Y-126180595D01*
X150107143Y-45349089D02*
G75*
G03*
X100806597Y-26334574I-49300483J-54405431D01*
G01*
X26817899Y-121712304D02*
G75*
G03*
X26387469Y-126180595I2308931J-2477296D01*
G01*
X150430947Y-101485646D02*
X150430939Y-86246058D01*
X121856035Y-110035978D02*
G75*
G03*
X149957548Y-102335002I-135J55123378D01*
G01*
X149957548Y-102335003D02*
G75*
G03*
X150430947Y-101485646I-525148J849303D01*
G01*
X121856035Y-110035989D02*
X95794156Y-110035649D01*
X95794156Y-110035647D02*
G75*
G03*
X40579028Y-135740785I232684J-72653953D01*
G01*
X35489437Y-113346815D02*
X26817897Y-121712302D01*
X100806597Y-26334573D02*
G75*
G03*
X55757144Y-36379092I503J-106047427D01*
G01*
X55181887Y-37284664D02*
X55181884Y-51980529D01*
X55182170Y-99292261D02*
X55181884Y-51980529D01*
X53182166Y-101202252D02*
G75*
G03*
X35489437Y-113346815I42919634J-81487248D01*
G01*
D11*
X150430939Y-86246058D02*
X150430940Y-81166057D01*
D10*
X150430942Y-60166057D02*
X150430939Y-46085746D01*
X55182170Y-99292261D02*
X55182170Y-100170078D01*
X55757142Y-36379088D02*
G75*
G03*
X55181887Y-37284664I425058J-905512D01*
G01*
X150430942Y-65246058D02*
X150430940Y-81166057D01*
D11*
%TO.C,SW111*%
X134406339Y-99960495D02*
X147406339Y-99960495D01*
X133906339Y-99460495D02*
X133906339Y-86460495D01*
X147906339Y-99460495D02*
X147906339Y-86460495D01*
X134406339Y-85960495D02*
X147406339Y-85960495D01*
X133906339Y-99460495D02*
G75*
G03*
X134406339Y-99960495I500001J1D01*
G01*
X147406339Y-99960495D02*
G75*
G03*
X147906339Y-99460495I-94J500094D01*
G01*
X134406339Y-85960495D02*
G75*
G03*
X133906339Y-86460495I100J-500100D01*
G01*
X147906339Y-86460495D02*
G75*
G03*
X147406339Y-85960495I-500000J0D01*
G01*
%TO.C,SW103*%
X96306345Y-43859995D02*
X109306345Y-43859995D01*
X95806345Y-43359995D02*
X95806345Y-30359995D01*
X109806345Y-43359995D02*
X109806345Y-30359995D01*
X96306345Y-29859995D02*
X109306345Y-29859995D01*
X95806345Y-43359995D02*
G75*
G03*
X96306345Y-43859995I500001J1D01*
G01*
X109306345Y-43859995D02*
G75*
G03*
X109806345Y-43359995I-94J500094D01*
G01*
X96306345Y-29859995D02*
G75*
G03*
X95806345Y-30359995I100J-500100D01*
G01*
X109806345Y-30359995D02*
G75*
G03*
X109306345Y-29859995I-500000J0D01*
G01*
%TO.C,SW105*%
X58206339Y-52859993D02*
X71206339Y-52859993D01*
X57706339Y-52359993D02*
X57706339Y-39359993D01*
X71706339Y-52359993D02*
X71706339Y-39359993D01*
X58206339Y-38859993D02*
X71206339Y-38859993D01*
X57706339Y-52359993D02*
G75*
G03*
X58206339Y-52859993I500001J1D01*
G01*
X71206339Y-52859993D02*
G75*
G03*
X71706339Y-52359993I-94J500094D01*
G01*
X58206339Y-38859993D02*
G75*
G03*
X57706339Y-39359993I100J-500100D01*
G01*
X71706339Y-39359993D02*
G75*
G03*
X71206339Y-38859993I-500000J0D01*
G01*
%TO.C,SW104*%
X77256340Y-50360003D02*
X90256340Y-50360003D01*
X76756340Y-49860003D02*
X76756340Y-36860003D01*
X90756340Y-49860003D02*
X90756340Y-36860003D01*
X77256340Y-36360003D02*
X90256340Y-36360003D01*
X76756340Y-49860003D02*
G75*
G03*
X77256340Y-50360003I500001J1D01*
G01*
X90256340Y-50360003D02*
G75*
G03*
X90756340Y-49860003I-94J500094D01*
G01*
X77256340Y-36360003D02*
G75*
G03*
X76756340Y-36860003I100J-500100D01*
G01*
X90756340Y-36860003D02*
G75*
G03*
X90256340Y-36360003I-500000J0D01*
G01*
%TO.C,SW116*%
X47842319Y-123693831D02*
X38649930Y-114501442D01*
X47842319Y-124400937D02*
X38649930Y-133593326D01*
X37942824Y-114501442D02*
X28750435Y-123693831D01*
X37942824Y-133593326D02*
X28750435Y-124400937D01*
X47842318Y-124400936D02*
G75*
G03*
X47842318Y-123693832I-353554J353552D01*
G01*
X38649929Y-114501443D02*
G75*
G03*
X37942825Y-114501443I-353552J-353687D01*
G01*
X37942825Y-133593325D02*
G75*
G03*
X38649929Y-133593325I353552J353694D01*
G01*
X28750435Y-123693831D02*
G75*
G03*
X28750435Y-124400937I353554J-353553D01*
G01*
%TO.C,SW114*%
X77256343Y-88459993D02*
X90256343Y-88459993D01*
X76756343Y-87959993D02*
X76756343Y-74959993D01*
X90756343Y-87959993D02*
X90756343Y-74959993D01*
X77256343Y-74459993D02*
X90256343Y-74459993D01*
X76756343Y-87959993D02*
G75*
G03*
X77256343Y-88459993I500001J1D01*
G01*
X90256343Y-88459993D02*
G75*
G03*
X90756343Y-87959993I-94J500094D01*
G01*
X77256343Y-74459993D02*
G75*
G03*
X76756343Y-74959993I100J-500100D01*
G01*
X90756343Y-74959993D02*
G75*
G03*
X90256343Y-74459993I-500000J0D01*
G01*
%TO.C,SW107*%
X115356339Y-68910496D02*
X128356339Y-68910496D01*
X114856339Y-68410496D02*
X114856339Y-55410496D01*
X128856339Y-68410496D02*
X128856339Y-55410496D01*
X115356339Y-54910496D02*
X128356339Y-54910496D01*
X114856339Y-68410496D02*
G75*
G03*
X115356339Y-68910496I500001J1D01*
G01*
X128356339Y-68910496D02*
G75*
G03*
X128856339Y-68410496I-94J500094D01*
G01*
X115356339Y-54910496D02*
G75*
G03*
X114856339Y-55410496I100J-500100D01*
G01*
X128856339Y-55410496D02*
G75*
G03*
X128356339Y-54910496I-500000J0D01*
G01*
%TO.C,SW102*%
X115356343Y-49860499D02*
X128356343Y-49860499D01*
X114856343Y-49360499D02*
X114856343Y-36360499D01*
X128856343Y-49360499D02*
X128856343Y-36360499D01*
X115356343Y-35860499D02*
X128356343Y-35860499D01*
X114856343Y-49360499D02*
G75*
G03*
X115356343Y-49860499I500001J1D01*
G01*
X128356343Y-49860499D02*
G75*
G03*
X128856343Y-49360499I-94J500094D01*
G01*
X115356343Y-35860499D02*
G75*
G03*
X114856343Y-36360499I100J-500100D01*
G01*
X128856343Y-36360499D02*
G75*
G03*
X128356343Y-35860499I-500000J0D01*
G01*
%TO.C,SW118*%
X83047102Y-107767480D02*
X79682454Y-95210444D01*
X82693548Y-108379852D02*
X70136512Y-111744500D01*
X79070082Y-94856890D02*
X66513046Y-98221538D01*
X69524140Y-111390946D02*
X66159492Y-98833910D01*
X82693548Y-108379851D02*
G75*
G03*
X83047101Y-107767480I-129409J482962D01*
G01*
X79682454Y-95210444D02*
G75*
G03*
X79070082Y-94856891I-483030J-129526D01*
G01*
X69524140Y-111390946D02*
G75*
G03*
X70136512Y-111744500I483034J129532D01*
G01*
X66513046Y-98221539D02*
G75*
G03*
X66159493Y-98833910I129409J-482962D01*
G01*
%TO.C,SW109*%
X77256338Y-69409992D02*
X90256338Y-69409992D01*
X76756338Y-68909992D02*
X76756338Y-55909992D01*
X90756338Y-68909992D02*
X90756338Y-55909992D01*
X77256338Y-55409992D02*
X90256338Y-55409992D01*
X76756338Y-68909992D02*
G75*
G03*
X77256338Y-69409992I500001J1D01*
G01*
X90256338Y-69409992D02*
G75*
G03*
X90756338Y-68909992I-94J500094D01*
G01*
X77256338Y-55409992D02*
G75*
G03*
X76756338Y-55909992I100J-500100D01*
G01*
X90756338Y-55909992D02*
G75*
G03*
X90256338Y-55409992I-500000J0D01*
G01*
%TO.C,SW112*%
X115356338Y-87960495D02*
X128356338Y-87960495D01*
X114856338Y-87460495D02*
X114856338Y-74460495D01*
X128856338Y-87460495D02*
X128856338Y-74460495D01*
X115356338Y-73960495D02*
X128356338Y-73960495D01*
X114856338Y-87460495D02*
G75*
G03*
X115356338Y-87960495I500001J1D01*
G01*
X128356338Y-87960495D02*
G75*
G03*
X128856338Y-87460495I-94J500094D01*
G01*
X115356338Y-73960495D02*
G75*
G03*
X114856338Y-74460495I100J-500100D01*
G01*
X128856338Y-74460495D02*
G75*
G03*
X128356338Y-73960495I-500000J0D01*
G01*
%TO.C,SW117*%
X64168555Y-113609549D02*
X57668555Y-102351219D01*
X63985542Y-114292562D02*
X52727212Y-120792562D01*
X56985542Y-102168206D02*
X45727212Y-108668206D01*
X52044199Y-120609549D02*
X45544199Y-109351219D01*
X63985542Y-114292562D02*
G75*
G03*
X64168555Y-113609549I-250001J433013D01*
G01*
X57668554Y-102351219D02*
G75*
G03*
X56985542Y-102168206I-433047J-250130D01*
G01*
X52044199Y-120609549D02*
G75*
G03*
X52727212Y-120792562I433049J250136D01*
G01*
X45727212Y-108668206D02*
G75*
G03*
X45544199Y-109351219I250000J-433013D01*
G01*
%TO.C,SW108*%
X96306341Y-62909999D02*
X109306341Y-62909999D01*
X95806341Y-62409999D02*
X95806341Y-49409999D01*
X109806341Y-62409999D02*
X109806341Y-49409999D01*
X96306341Y-48909999D02*
X109306341Y-48909999D01*
X95806341Y-62409999D02*
G75*
G03*
X96306341Y-62909999I500001J1D01*
G01*
X109306341Y-62909999D02*
G75*
G03*
X109806341Y-62409999I-94J500094D01*
G01*
X96306341Y-48909999D02*
G75*
G03*
X95806341Y-49409999I100J-500100D01*
G01*
X109806341Y-49409999D02*
G75*
G03*
X109306341Y-48909999I-500000J0D01*
G01*
%TO.C,SW106*%
X134406336Y-80910494D02*
X147406336Y-80910494D01*
X133906336Y-80410494D02*
X133906336Y-67410494D01*
X147906336Y-80410494D02*
X147906336Y-67410494D01*
X134406336Y-66910494D02*
X147406336Y-66910494D01*
X133906336Y-80410494D02*
G75*
G03*
X134406336Y-80910494I500001J1D01*
G01*
X147406336Y-80910494D02*
G75*
G03*
X147906336Y-80410494I-94J500094D01*
G01*
X134406336Y-66910494D02*
G75*
G03*
X133906336Y-67410494I100J-500100D01*
G01*
X147906336Y-67410494D02*
G75*
G03*
X147406336Y-66910494I-500000J0D01*
G01*
%TO.C,SW101*%
X134406348Y-61860496D02*
X147406348Y-61860496D01*
X133906348Y-61360496D02*
X133906348Y-48360496D01*
X147906348Y-61360496D02*
X147906348Y-48360496D01*
X134406348Y-47860496D02*
X147406348Y-47860496D01*
X133906348Y-61360496D02*
G75*
G03*
X134406348Y-61860496I500001J1D01*
G01*
X147406348Y-61860496D02*
G75*
G03*
X147906348Y-61360496I-94J500094D01*
G01*
X134406348Y-47860496D02*
G75*
G03*
X133906348Y-48360496I100J-500100D01*
G01*
X147906348Y-48360496D02*
G75*
G03*
X147406348Y-47860496I-500000J0D01*
G01*
%TO.C,SW115*%
X58206339Y-90959995D02*
X71206339Y-90959995D01*
X57706339Y-90459995D02*
X57706339Y-77459995D01*
X71706339Y-90459995D02*
X71706339Y-77459995D01*
X58206339Y-76959995D02*
X71206339Y-76959995D01*
X57706339Y-90459995D02*
G75*
G03*
X58206339Y-90959995I500001J1D01*
G01*
X71206339Y-90959995D02*
G75*
G03*
X71706339Y-90459995I-94J500094D01*
G01*
X58206339Y-76959995D02*
G75*
G03*
X57706339Y-77459995I100J-500100D01*
G01*
X71706339Y-77459995D02*
G75*
G03*
X71206339Y-76959995I-500000J0D01*
G01*
%TO.C,SW113*%
X96306340Y-81959989D02*
X109306340Y-81959989D01*
X95806340Y-81459989D02*
X95806340Y-68459989D01*
X109806340Y-81459989D02*
X109806340Y-68459989D01*
X96306340Y-67959989D02*
X109306340Y-67959989D01*
X95806340Y-81459989D02*
G75*
G03*
X96306340Y-81959989I500001J1D01*
G01*
X109306340Y-81959989D02*
G75*
G03*
X109806340Y-81459989I-94J500094D01*
G01*
X96306340Y-67959989D02*
G75*
G03*
X95806340Y-68459989I100J-500100D01*
G01*
X109806340Y-68459989D02*
G75*
G03*
X109306340Y-67959989I-500000J0D01*
G01*
%TO.C,SW110*%
X58206340Y-71909997D02*
X71206340Y-71909997D01*
X57706340Y-71409997D02*
X57706340Y-58409997D01*
X71706340Y-71409997D02*
X71706340Y-58409997D01*
X58206340Y-57909997D02*
X71206340Y-57909997D01*
X57706340Y-71409997D02*
G75*
G03*
X58206340Y-71909997I500001J1D01*
G01*
X71206340Y-71909997D02*
G75*
G03*
X71706340Y-71409997I-94J500094D01*
G01*
X58206340Y-57909997D02*
G75*
G03*
X57706340Y-58409997I100J-500100D01*
G01*
X71706340Y-58409997D02*
G75*
G03*
X71206340Y-57909997I-500000J0D01*
G01*
%TD*%
M02*
