%TF.GenerationSoftware,KiCad,Pcbnew,7.0.7-2.fc38*%
%TF.CreationDate,2023-10-04T20:00:28+05:30*%
%TF.ProjectId,tako,74616b6f-2e6b-4696-9361-645f70636258,rev?*%
%TF.SameCoordinates,Original*%
%TF.FileFunction,Paste,Top*%
%TF.FilePolarity,Positive*%
%FSLAX46Y46*%
G04 Gerber Fmt 4.6, Leading zero omitted, Abs format (unit mm)*
G04 Created by KiCad (PCBNEW 7.0.7-2.fc38) date 2023-10-04 20:00:28*
%MOMM*%
%LPD*%
G01*
G04 APERTURE LIST*
G04 Aperture macros list*
%AMRoundRect*
0 Rectangle with rounded corners*
0 $1 Rounding radius*
0 $2 $3 $4 $5 $6 $7 $8 $9 X,Y pos of 4 corners*
0 Add a 4 corners polygon primitive as box body*
4,1,4,$2,$3,$4,$5,$6,$7,$8,$9,$2,$3,0*
0 Add four circle primitives for the rounded corners*
1,1,$1+$1,$2,$3*
1,1,$1+$1,$4,$5*
1,1,$1+$1,$6,$7*
1,1,$1+$1,$8,$9*
0 Add four rect primitives between the rounded corners*
20,1,$1+$1,$2,$3,$4,$5,0*
20,1,$1+$1,$4,$5,$6,$7,0*
20,1,$1+$1,$6,$7,$8,$9,0*
20,1,$1+$1,$8,$9,$2,$3,0*%
G04 Aperture macros list end*
%ADD10RoundRect,0.312500X-0.312500X-0.312500X0.312500X-0.312500X0.312500X0.312500X-0.312500X0.312500X0*%
%ADD11RoundRect,0.250000X0.350000X0.450000X-0.350000X0.450000X-0.350000X-0.450000X0.350000X-0.450000X0*%
%ADD12RoundRect,0.250000X0.337500X0.475000X-0.337500X0.475000X-0.337500X-0.475000X0.337500X-0.475000X0*%
%ADD13RoundRect,0.250000X-0.450000X0.350000X-0.450000X-0.350000X0.450000X-0.350000X0.450000X0.350000X0*%
%ADD14RoundRect,0.250000X-0.350000X-0.450000X0.350000X-0.450000X0.350000X0.450000X-0.350000X0.450000X0*%
%ADD15R,1.000000X1.550000*%
%ADD16RoundRect,0.150000X0.825000X0.150000X-0.825000X0.150000X-0.825000X-0.150000X0.825000X-0.150000X0*%
%ADD17RoundRect,0.150000X-0.825000X-0.150000X0.825000X-0.150000X0.825000X0.150000X-0.825000X0.150000X0*%
%ADD18RoundRect,0.250000X0.450000X-0.350000X0.450000X0.350000X-0.450000X0.350000X-0.450000X-0.350000X0*%
%ADD19RoundRect,0.250000X0.475000X-0.337500X0.475000X0.337500X-0.475000X0.337500X-0.475000X-0.337500X0*%
%ADD20RoundRect,0.250000X-0.337500X-0.475000X0.337500X-0.475000X0.337500X0.475000X-0.337500X0.475000X0*%
%ADD21RoundRect,0.150000X0.150000X-0.825000X0.150000X0.825000X-0.150000X0.825000X-0.150000X-0.825000X0*%
%ADD22RoundRect,0.312500X0.312500X0.312500X-0.312500X0.312500X-0.312500X-0.312500X0.312500X-0.312500X0*%
%ADD23RoundRect,0.150000X-0.150000X0.825000X-0.150000X-0.825000X0.150000X-0.825000X0.150000X0.825000X0*%
G04 APERTURE END LIST*
D10*
%TO.C,BAT_HOLE-101*%
X38155480Y-57819423D03*
%TD*%
D11*
%TO.C,JP101*%
X96923373Y-95592136D03*
X94923373Y-95592136D03*
%TD*%
D12*
%TO.C,C3*%
X215026049Y-97598989D03*
X212951049Y-97598989D03*
%TD*%
D13*
%TO.C,R12*%
X243439963Y-96966057D03*
X243439963Y-98966057D03*
%TD*%
D14*
%TO.C,R107*%
X110741405Y-95592136D03*
X112741405Y-95592136D03*
%TD*%
D15*
%TO.C,RSW1*%
X265965971Y-102795627D03*
X265965971Y-108045627D03*
X264265971Y-102795627D03*
X264265971Y-108045627D03*
%TD*%
D16*
%TO.C,U103*%
X97398371Y-103842135D03*
X97398371Y-102572135D03*
X97398371Y-101302135D03*
X97398371Y-100032135D03*
X92448371Y-100032135D03*
X92448371Y-101302135D03*
X92448371Y-102572135D03*
X92448371Y-103842135D03*
%TD*%
D14*
%TO.C,R109*%
X115057340Y-95592136D03*
X117057340Y-95592136D03*
%TD*%
D11*
%TO.C,R7*%
X192804486Y-95592133D03*
X190804486Y-95592133D03*
%TD*%
D17*
%TO.C,U3*%
X206147514Y-100032135D03*
X206147514Y-101302135D03*
X206147514Y-102572135D03*
X206147514Y-103842135D03*
X211097514Y-103842135D03*
X211097514Y-102572135D03*
X211097514Y-101302135D03*
X211097514Y-100032135D03*
%TD*%
D10*
%TO.C,BAT_HOLE+1*%
X250116908Y-57819421D03*
%TD*%
D18*
%TO.C,R105*%
X127410896Y-104957579D03*
X127410896Y-102957579D03*
%TD*%
D11*
%TO.C,R110*%
X96923372Y-97592136D03*
X94923372Y-97592136D03*
%TD*%
D19*
%TO.C,C102*%
X102839547Y-102579634D03*
X102839547Y-100504634D03*
%TD*%
D20*
%TO.C,C1*%
X198822514Y-95898991D03*
X200897514Y-95898991D03*
%TD*%
D14*
%TO.C,R108*%
X119373278Y-95592134D03*
X121373278Y-95592134D03*
%TD*%
D18*
%TO.C,R9*%
X182238550Y-100648990D03*
X182238550Y-98648990D03*
%TD*%
D11*
%TO.C,R6*%
X184238547Y-95542492D03*
X182238547Y-95542492D03*
%TD*%
D19*
%TO.C,C2*%
X201122517Y-102579991D03*
X201122517Y-100504991D03*
%TD*%
D11*
%TO.C,R5*%
X188488548Y-95592136D03*
X186488548Y-95592136D03*
%TD*%
D14*
%TO.C,R10*%
X206622514Y-97898990D03*
X208622514Y-97898990D03*
%TD*%
D18*
%TO.C,R111*%
X100323371Y-97592137D03*
X100323371Y-95592137D03*
%TD*%
%TO.C,R8*%
X178304486Y-104459424D03*
X178304486Y-102459424D03*
%TD*%
D21*
%TO.C,U2*%
X187677517Y-104412137D03*
X188947517Y-104412137D03*
X190217517Y-104412137D03*
X191487517Y-104412137D03*
X192757517Y-104412137D03*
X194027517Y-104412137D03*
X195297517Y-104412137D03*
X196567517Y-104412137D03*
X196567517Y-99462137D03*
X195297517Y-99462137D03*
X194027517Y-99462137D03*
X192757517Y-99462137D03*
X191487517Y-99462137D03*
X190217517Y-99462137D03*
X188947517Y-99462137D03*
X187677517Y-99462137D03*
%TD*%
D14*
%TO.C,JP1*%
X206622517Y-95898992D03*
X208622517Y-95898992D03*
%TD*%
D22*
%TO.C,BAT_HOLE+101*%
X53428978Y-57819423D03*
%TD*%
D12*
%TO.C,C101*%
X104723370Y-95592135D03*
X102648370Y-95592135D03*
%TD*%
D22*
%TO.C,BAT_HOLE-1*%
X265390409Y-57819423D03*
%TD*%
D20*
%TO.C,C103*%
X88552047Y-97592135D03*
X90627047Y-97592135D03*
%TD*%
D15*
%TO.C,RSW101*%
X37587468Y-107855596D03*
X37587468Y-102605596D03*
X39287468Y-107855596D03*
X39287468Y-102605596D03*
%TD*%
D23*
%TO.C,U102*%
X115868373Y-99462136D03*
X114598373Y-99462136D03*
X113328373Y-99462136D03*
X112058373Y-99462136D03*
X110788373Y-99462136D03*
X109518373Y-99462136D03*
X108248373Y-99462136D03*
X106978373Y-99462136D03*
X106978373Y-104412136D03*
X108248373Y-104412136D03*
X109518373Y-104412136D03*
X110788373Y-104412136D03*
X112058373Y-104412136D03*
X113328373Y-104412136D03*
X114598373Y-104412136D03*
X115868373Y-104412136D03*
%TD*%
D18*
%TO.C,R11*%
X203222517Y-97898990D03*
X203222517Y-95898990D03*
%TD*%
%TO.C,R106*%
X124060895Y-100957580D03*
X124060895Y-98957580D03*
%TD*%
D13*
%TO.C,R4*%
X241489549Y-96959989D03*
X241489549Y-98959989D03*
%TD*%
%TO.C,R104*%
X62158122Y-97216057D03*
X62158122Y-99216057D03*
%TD*%
%TO.C,R112*%
X60189965Y-97216057D03*
X60189965Y-99216057D03*
%TD*%
M02*
