%TF.GenerationSoftware,KiCad,Pcbnew,7.0.7-2.fc38*%
%TF.CreationDate,2023-10-08T12:30:22+05:30*%
%TF.ProjectId,tako_right,74616b6f-5f72-4696-9768-742e6b696361,rev?*%
%TF.SameCoordinates,Original*%
%TF.FileFunction,Legend,Bot*%
%TF.FilePolarity,Positive*%
%FSLAX46Y46*%
G04 Gerber Fmt 4.6, Leading zero omitted, Abs format (unit mm)*
G04 Created by KiCad (PCBNEW 7.0.7-2.fc38) date 2023-10-08 12:30:22*
%MOMM*%
%LPD*%
G01*
G04 APERTURE LIST*
G04 Aperture macros list*
%AMRoundRect*
0 Rectangle with rounded corners*
0 $1 Rounding radius*
0 $2 $3 $4 $5 $6 $7 $8 $9 X,Y pos of 4 corners*
0 Add a 4 corners polygon primitive as box body*
4,1,4,$2,$3,$4,$5,$6,$7,$8,$9,$2,$3,0*
0 Add four circle primitives for the rounded corners*
1,1,$1+$1,$2,$3*
1,1,$1+$1,$4,$5*
1,1,$1+$1,$6,$7*
1,1,$1+$1,$8,$9*
0 Add four rect primitives between the rounded corners*
20,1,$1+$1,$2,$3,$4,$5,0*
20,1,$1+$1,$4,$5,$6,$7,0*
20,1,$1+$1,$6,$7,$8,$9,0*
20,1,$1+$1,$8,$9,$2,$3,0*%
G04 Aperture macros list end*
%ADD10C,0.150000*%
%ADD11C,0.100000*%
%ADD12C,0.200000*%
%ADD13C,0.120000*%
%ADD14R,1.752600X1.752600*%
%ADD15C,1.752600*%
%ADD16C,3.400000*%
%ADD17C,0.750000*%
%ADD18RoundRect,0.312500X-0.312500X-0.312500X0.312500X-0.312500X0.312500X0.312500X-0.312500X0.312500X0*%
%ADD19C,3.500000*%
%ADD20C,0.800000*%
%ADD21O,2.000000X1.600000*%
%ADD22RoundRect,0.312500X0.312500X0.312500X-0.312500X0.312500X-0.312500X-0.312500X0.312500X-0.312500X0*%
%ADD23RoundRect,0.120000X-0.480000X-0.280000X0.480000X-0.280000X0.480000X0.280000X-0.480000X0.280000X0*%
%ADD24C,0.900000*%
%ADD25RoundRect,0.105000X-0.245000X-0.645000X0.245000X-0.645000X0.245000X0.645000X-0.245000X0.645000X0*%
%ADD26RoundRect,0.250000X0.350000X0.450000X-0.350000X0.450000X-0.350000X-0.450000X0.350000X-0.450000X0*%
%ADD27RoundRect,0.250000X-0.350000X-0.450000X0.350000X-0.450000X0.350000X0.450000X-0.350000X0.450000X0*%
G04 APERTURE END LIST*
D10*
X263492669Y-59898478D02*
X262921241Y-59898478D01*
X263206955Y-60898478D02*
X263206955Y-59898478D01*
X262683145Y-59898478D02*
X262016479Y-60898478D01*
X262016479Y-59898478D02*
X262683145Y-60898478D01*
X261445050Y-59898478D02*
X261349812Y-59898478D01*
X261349812Y-59898478D02*
X261254574Y-59946097D01*
X261254574Y-59946097D02*
X261206955Y-59993716D01*
X261206955Y-59993716D02*
X261159336Y-60088954D01*
X261159336Y-60088954D02*
X261111717Y-60279430D01*
X261111717Y-60279430D02*
X261111717Y-60517525D01*
X261111717Y-60517525D02*
X261159336Y-60708001D01*
X261159336Y-60708001D02*
X261206955Y-60803239D01*
X261206955Y-60803239D02*
X261254574Y-60850859D01*
X261254574Y-60850859D02*
X261349812Y-60898478D01*
X261349812Y-60898478D02*
X261445050Y-60898478D01*
X261445050Y-60898478D02*
X261540288Y-60850859D01*
X261540288Y-60850859D02*
X261587907Y-60803239D01*
X261587907Y-60803239D02*
X261635526Y-60708001D01*
X261635526Y-60708001D02*
X261683145Y-60517525D01*
X261683145Y-60517525D02*
X261683145Y-60279430D01*
X261683145Y-60279430D02*
X261635526Y-60088954D01*
X261635526Y-60088954D02*
X261587907Y-59993716D01*
X261587907Y-59993716D02*
X261540288Y-59946097D01*
X261540288Y-59946097D02*
X261445050Y-59898478D01*
X253845051Y-60898478D02*
X254178384Y-60422287D01*
X254416479Y-60898478D02*
X254416479Y-59898478D01*
X254416479Y-59898478D02*
X254035527Y-59898478D01*
X254035527Y-59898478D02*
X253940289Y-59946097D01*
X253940289Y-59946097D02*
X253892670Y-59993716D01*
X253892670Y-59993716D02*
X253845051Y-60088954D01*
X253845051Y-60088954D02*
X253845051Y-60231811D01*
X253845051Y-60231811D02*
X253892670Y-60327049D01*
X253892670Y-60327049D02*
X253940289Y-60374668D01*
X253940289Y-60374668D02*
X254035527Y-60422287D01*
X254035527Y-60422287D02*
X254416479Y-60422287D01*
X253464098Y-60612763D02*
X252987908Y-60612763D01*
X253559336Y-60898478D02*
X253226003Y-59898478D01*
X253226003Y-59898478D02*
X252892670Y-60898478D01*
X252654574Y-59898478D02*
X252416479Y-60898478D01*
X252416479Y-60898478D02*
X252226003Y-60184192D01*
X252226003Y-60184192D02*
X252035527Y-60898478D01*
X252035527Y-60898478D02*
X251797432Y-59898478D01*
X255356706Y-66463752D02*
X255623373Y-66082799D01*
X255813849Y-66463752D02*
X255813849Y-65663752D01*
X255813849Y-65663752D02*
X255509087Y-65663752D01*
X255509087Y-65663752D02*
X255432897Y-65701847D01*
X255432897Y-65701847D02*
X255394802Y-65739942D01*
X255394802Y-65739942D02*
X255356706Y-65816133D01*
X255356706Y-65816133D02*
X255356706Y-65930418D01*
X255356706Y-65930418D02*
X255394802Y-66006609D01*
X255394802Y-66006609D02*
X255432897Y-66044704D01*
X255432897Y-66044704D02*
X255509087Y-66082799D01*
X255509087Y-66082799D02*
X255813849Y-66082799D01*
X255090040Y-65663752D02*
X254594802Y-65663752D01*
X254594802Y-65663752D02*
X254861468Y-65968514D01*
X254861468Y-65968514D02*
X254747183Y-65968514D01*
X254747183Y-65968514D02*
X254670992Y-66006609D01*
X254670992Y-66006609D02*
X254632897Y-66044704D01*
X254632897Y-66044704D02*
X254594802Y-66120895D01*
X254594802Y-66120895D02*
X254594802Y-66311371D01*
X254594802Y-66311371D02*
X254632897Y-66387561D01*
X254632897Y-66387561D02*
X254670992Y-66425657D01*
X254670992Y-66425657D02*
X254747183Y-66463752D01*
X254747183Y-66463752D02*
X254975754Y-66463752D01*
X254975754Y-66463752D02*
X255051945Y-66425657D01*
X255051945Y-66425657D02*
X255090040Y-66387561D01*
X255356703Y-64563753D02*
X255623370Y-64182800D01*
X255813846Y-64563753D02*
X255813846Y-63763753D01*
X255813846Y-63763753D02*
X255509084Y-63763753D01*
X255509084Y-63763753D02*
X255432894Y-63801848D01*
X255432894Y-63801848D02*
X255394799Y-63839943D01*
X255394799Y-63839943D02*
X255356703Y-63916134D01*
X255356703Y-63916134D02*
X255356703Y-64030419D01*
X255356703Y-64030419D02*
X255394799Y-64106610D01*
X255394799Y-64106610D02*
X255432894Y-64144705D01*
X255432894Y-64144705D02*
X255509084Y-64182800D01*
X255509084Y-64182800D02*
X255813846Y-64182800D01*
X255051942Y-63839943D02*
X255013846Y-63801848D01*
X255013846Y-63801848D02*
X254937656Y-63763753D01*
X254937656Y-63763753D02*
X254747180Y-63763753D01*
X254747180Y-63763753D02*
X254670989Y-63801848D01*
X254670989Y-63801848D02*
X254632894Y-63839943D01*
X254632894Y-63839943D02*
X254594799Y-63916134D01*
X254594799Y-63916134D02*
X254594799Y-63992324D01*
X254594799Y-63992324D02*
X254632894Y-64106610D01*
X254632894Y-64106610D02*
X255090037Y-64563753D01*
X255090037Y-64563753D02*
X254594799Y-64563753D01*
X255356703Y-62578353D02*
X255623370Y-62197400D01*
X255813846Y-62578353D02*
X255813846Y-61778353D01*
X255813846Y-61778353D02*
X255509084Y-61778353D01*
X255509084Y-61778353D02*
X255432894Y-61816448D01*
X255432894Y-61816448D02*
X255394799Y-61854543D01*
X255394799Y-61854543D02*
X255356703Y-61930734D01*
X255356703Y-61930734D02*
X255356703Y-62045019D01*
X255356703Y-62045019D02*
X255394799Y-62121210D01*
X255394799Y-62121210D02*
X255432894Y-62159305D01*
X255432894Y-62159305D02*
X255509084Y-62197400D01*
X255509084Y-62197400D02*
X255813846Y-62197400D01*
X254594799Y-62578353D02*
X255051942Y-62578353D01*
X254823370Y-62578353D02*
X254823370Y-61778353D01*
X254823370Y-61778353D02*
X254899561Y-61892638D01*
X254899561Y-61892638D02*
X254975751Y-61968829D01*
X254975751Y-61968829D02*
X255051942Y-62006924D01*
D11*
%TO.C,BAT_HOLE+1*%
X249366908Y-58169421D02*
X249366908Y-57469421D01*
X249766908Y-57069421D02*
X251466908Y-57069421D01*
X251116908Y-57819421D02*
X251616908Y-57819421D01*
X251366908Y-57569421D02*
X251366908Y-58069421D01*
X251466908Y-58569421D02*
X249766908Y-58569421D01*
X251866908Y-57469421D02*
X251866908Y-58169421D01*
X249766908Y-57069421D02*
G75*
G03*
X249366908Y-57469421I-1J-399999D01*
G01*
X249366908Y-58169421D02*
G75*
G03*
X249766908Y-58569421I399999J-1D01*
G01*
X251866908Y-57469421D02*
G75*
G03*
X251466908Y-57069421I-400000J0D01*
G01*
X251466908Y-58569421D02*
G75*
G03*
X251866908Y-58169421I0J400000D01*
G01*
%TO.C,BAT_HOLE-1*%
X266140409Y-57469423D02*
X266140409Y-58169423D01*
X265740409Y-58569423D02*
X264040409Y-58569423D01*
X264390409Y-57819423D02*
X263890409Y-57819423D01*
X264040409Y-57069423D02*
X265740409Y-57069423D01*
X263640409Y-58169423D02*
X263640409Y-57469423D01*
X265740409Y-58569423D02*
G75*
G03*
X266140409Y-58169423I1J399999D01*
G01*
X266140409Y-57469423D02*
G75*
G03*
X265740409Y-57069423I-399999J1D01*
G01*
X263640409Y-58169423D02*
G75*
G03*
X264040409Y-58569423I400000J0D01*
G01*
X264040409Y-57069423D02*
G75*
G03*
X263640409Y-57469423I0J-400000D01*
G01*
D12*
%TO.C,PSW1*%
X254354580Y-58342138D02*
X254354580Y-57342138D01*
X256054580Y-59262138D02*
X257954580Y-59262138D01*
X259054580Y-59262138D02*
X259454580Y-59262138D01*
X261154580Y-57342138D02*
X261154580Y-58342138D01*
D13*
%TO.C,R3*%
X257999582Y-66877134D02*
X257545454Y-66877134D01*
X257999582Y-65407134D02*
X257545454Y-65407134D01*
%TO.C,R2*%
X257999577Y-64927137D02*
X257545449Y-64927137D01*
X257999577Y-63457137D02*
X257545449Y-63457137D01*
%TO.C,R1*%
X257545450Y-61507136D02*
X257999578Y-61507136D01*
X257545450Y-62977136D02*
X257999578Y-62977136D01*
%TD*%
D14*
%TO.C,U1*%
X265374575Y-60373659D03*
D15*
X265374575Y-62913659D03*
X265374575Y-65453659D03*
X265374575Y-67993659D03*
X265374575Y-70533659D03*
X265374575Y-73073659D03*
X265374575Y-75613659D03*
X265374575Y-78153659D03*
X265374575Y-80693659D03*
X265374575Y-83233659D03*
X265374575Y-85773659D03*
X265374575Y-88313659D03*
X250134575Y-88313659D03*
X250134575Y-85773659D03*
X250134575Y-83233659D03*
X250134575Y-80693659D03*
X250134575Y-78153659D03*
X250134575Y-75613659D03*
X250134575Y-73073659D03*
X250134575Y-70533659D03*
X250134575Y-67993659D03*
X250134575Y-65453659D03*
X250134575Y-62913659D03*
X250134575Y-60373659D03*
%TD*%
%LPC*%
D16*
%TO.C,H1*%
X162639543Y-44666058D03*
%TD*%
D17*
%TO.C,RSW1*%
X266490971Y-105420627D03*
X263740971Y-105420627D03*
%TD*%
D18*
%TO.C,BAT_HOLE+1*%
X250116908Y-57819421D03*
%TD*%
D16*
%TO.C,H9*%
X219789549Y-33166058D03*
%TD*%
%TO.C,H10*%
X238839551Y-35666058D03*
%TD*%
D19*
%TO.C,H17*%
X250364002Y-97039421D03*
%TD*%
D16*
%TO.C,H13*%
X239297894Y-106243092D03*
%TD*%
%TO.C,H2*%
X162639541Y-64385492D03*
%TD*%
%TO.C,H5*%
X176639550Y-94960499D03*
%TD*%
D19*
%TO.C,H15*%
X250364001Y-54480531D03*
%TD*%
D20*
%TO.C,J1*%
X265065975Y-97039423D03*
X258065975Y-97039423D03*
D21*
X255365975Y-94739423D03*
X263465975Y-99339423D03*
X260465975Y-99339423D03*
X256465975Y-99339423D03*
%TD*%
D16*
%TO.C,H14*%
X274694073Y-117014750D03*
%TD*%
%TO.C,H12*%
X238839549Y-74434995D03*
%TD*%
%TO.C,H6*%
X200739542Y-46384998D03*
%TD*%
%TO.C,H4*%
X181689545Y-32666057D03*
%TD*%
%TO.C,H11*%
X238839549Y-55384995D03*
%TD*%
D15*
%TO.C,DISP1*%
X252674330Y-92332635D03*
X255214330Y-92332635D03*
X257754330Y-92332635D03*
X260294330Y-92332635D03*
X262834330Y-92332635D03*
%TD*%
D19*
%TO.C,H16*%
X265145326Y-54480079D03*
%TD*%
D16*
%TO.C,H7*%
X200739541Y-65434995D03*
%TD*%
D22*
%TO.C,BAT_HOLE-1*%
X265390409Y-57819423D03*
%TD*%
D16*
%TO.C,H3*%
X162639550Y-83435488D03*
%TD*%
%TO.C,H19*%
X257715972Y-116670626D03*
%TD*%
%TO.C,H8*%
X200739548Y-86959992D03*
%TD*%
D23*
%TO.C,PSW1*%
X254004580Y-56712138D03*
X254004580Y-58922138D03*
D24*
X256254580Y-57812138D03*
X259254580Y-57812138D03*
D23*
X261504580Y-56712138D03*
X261504580Y-58922138D03*
D25*
X255504580Y-59572138D03*
X258504580Y-59572138D03*
X260004580Y-59572138D03*
%TD*%
D14*
%TO.C,U1*%
X265374575Y-60373659D03*
D15*
X265374575Y-62913659D03*
X265374575Y-65453659D03*
X265374575Y-67993659D03*
X265374575Y-70533659D03*
X265374575Y-73073659D03*
X265374575Y-75613659D03*
X265374575Y-78153659D03*
X265374575Y-80693659D03*
X265374575Y-83233659D03*
X265374575Y-85773659D03*
X265374575Y-88313659D03*
X250134575Y-88313659D03*
X250134575Y-85773659D03*
X250134575Y-83233659D03*
X250134575Y-80693659D03*
X250134575Y-78153659D03*
X250134575Y-75613659D03*
X250134575Y-73073659D03*
X250134575Y-70533659D03*
X250134575Y-67993659D03*
X250134575Y-65453659D03*
X250134575Y-62913659D03*
X250134575Y-60373659D03*
%TD*%
D26*
%TO.C,R3*%
X258772518Y-66142134D03*
X256772518Y-66142134D03*
%TD*%
%TO.C,R2*%
X258772513Y-64192137D03*
X256772513Y-64192137D03*
%TD*%
D27*
%TO.C,R1*%
X256772514Y-62242136D03*
X258772514Y-62242136D03*
%TD*%
%LPD*%
M02*
