%TF.GenerationSoftware,KiCad,Pcbnew,7.0.7-2.fc38*%
%TF.CreationDate,2023-10-08T12:30:22+05:30*%
%TF.ProjectId,tako_right,74616b6f-5f72-4696-9768-742e6b696361,rev?*%
%TF.SameCoordinates,Original*%
%TF.FileFunction,Legend,Top*%
%TF.FilePolarity,Positive*%
%FSLAX46Y46*%
G04 Gerber Fmt 4.6, Leading zero omitted, Abs format (unit mm)*
G04 Created by KiCad (PCBNEW 7.0.7-2.fc38) date 2023-10-08 12:30:22*
%MOMM*%
%LPD*%
G01*
G04 APERTURE LIST*
G04 Aperture macros list*
%AMRoundRect*
0 Rectangle with rounded corners*
0 $1 Rounding radius*
0 $2 $3 $4 $5 $6 $7 $8 $9 X,Y pos of 4 corners*
0 Add a 4 corners polygon primitive as box body*
4,1,4,$2,$3,$4,$5,$6,$7,$8,$9,$2,$3,0*
0 Add four circle primitives for the rounded corners*
1,1,$1+$1,$2,$3*
1,1,$1+$1,$4,$5*
1,1,$1+$1,$6,$7*
1,1,$1+$1,$8,$9*
0 Add four rect primitives between the rounded corners*
20,1,$1+$1,$2,$3,$4,$5,0*
20,1,$1+$1,$4,$5,$6,$7,0*
20,1,$1+$1,$6,$7,$8,$9,0*
20,1,$1+$1,$8,$9,$2,$3,0*%
G04 Aperture macros list end*
%ADD10C,0.150000*%
%ADD11C,0.120000*%
%ADD12C,0.900000*%
%ADD13C,0.100000*%
%ADD14C,0.381000*%
%ADD15R,1.752600X1.752600*%
%ADD16C,1.752600*%
%ADD17RoundRect,0.250000X0.337500X0.475000X-0.337500X0.475000X-0.337500X-0.475000X0.337500X-0.475000X0*%
%ADD18C,3.400000*%
%ADD19RoundRect,0.250000X-0.450000X0.350000X-0.450000X-0.350000X0.450000X-0.350000X0.450000X0.350000X0*%
%ADD20C,0.750000*%
%ADD21R,1.000000X1.550000*%
%ADD22RoundRect,0.250000X0.350000X0.450000X-0.350000X0.450000X-0.350000X-0.450000X0.350000X-0.450000X0*%
%ADD23RoundRect,0.150000X-0.825000X-0.150000X0.825000X-0.150000X0.825000X0.150000X-0.825000X0.150000X0*%
%ADD24RoundRect,0.312500X-0.312500X-0.312500X0.312500X-0.312500X0.312500X0.312500X-0.312500X0.312500X0*%
%ADD25C,3.500000*%
%ADD26RoundRect,0.250000X-0.337500X-0.475000X0.337500X-0.475000X0.337500X0.475000X-0.337500X0.475000X0*%
%ADD27RoundRect,0.250000X0.450000X-0.350000X0.450000X0.350000X-0.450000X0.350000X-0.450000X-0.350000X0*%
%ADD28C,0.800000*%
%ADD29O,2.000000X1.600000*%
%ADD30RoundRect,0.250000X0.475000X-0.337500X0.475000X0.337500X-0.475000X0.337500X-0.475000X-0.337500X0*%
%ADD31RoundRect,0.250000X-0.350000X-0.450000X0.350000X-0.450000X0.350000X0.450000X-0.350000X0.450000X0*%
%ADD32RoundRect,0.150000X0.150000X-0.825000X0.150000X0.825000X-0.150000X0.825000X-0.150000X-0.825000X0*%
%ADD33RoundRect,0.312500X0.312500X0.312500X-0.312500X0.312500X-0.312500X-0.312500X0.312500X-0.312500X0*%
%ADD34C,0.900000*%
G04 APERTURE END LIST*
D10*
X213902503Y-96197594D02*
X213864407Y-96235690D01*
X213864407Y-96235690D02*
X213750122Y-96273785D01*
X213750122Y-96273785D02*
X213673931Y-96273785D01*
X213673931Y-96273785D02*
X213559645Y-96235690D01*
X213559645Y-96235690D02*
X213483455Y-96159499D01*
X213483455Y-96159499D02*
X213445360Y-96083309D01*
X213445360Y-96083309D02*
X213407264Y-95930928D01*
X213407264Y-95930928D02*
X213407264Y-95816642D01*
X213407264Y-95816642D02*
X213445360Y-95664261D01*
X213445360Y-95664261D02*
X213483455Y-95588070D01*
X213483455Y-95588070D02*
X213559645Y-95511880D01*
X213559645Y-95511880D02*
X213673931Y-95473785D01*
X213673931Y-95473785D02*
X213750122Y-95473785D01*
X213750122Y-95473785D02*
X213864407Y-95511880D01*
X213864407Y-95511880D02*
X213902503Y-95549975D01*
X214169169Y-95473785D02*
X214664407Y-95473785D01*
X214664407Y-95473785D02*
X214397741Y-95778547D01*
X214397741Y-95778547D02*
X214512026Y-95778547D01*
X214512026Y-95778547D02*
X214588217Y-95816642D01*
X214588217Y-95816642D02*
X214626312Y-95854737D01*
X214626312Y-95854737D02*
X214664407Y-95930928D01*
X214664407Y-95930928D02*
X214664407Y-96121404D01*
X214664407Y-96121404D02*
X214626312Y-96197594D01*
X214626312Y-96197594D02*
X214588217Y-96235690D01*
X214588217Y-96235690D02*
X214512026Y-96273785D01*
X214512026Y-96273785D02*
X214283455Y-96273785D01*
X214283455Y-96273785D02*
X214207264Y-96235690D01*
X214207264Y-96235690D02*
X214169169Y-96197594D01*
X243785665Y-101480342D02*
X243404712Y-101747009D01*
X243785665Y-101937485D02*
X242985665Y-101937485D01*
X242985665Y-101937485D02*
X242985665Y-101632723D01*
X242985665Y-101632723D02*
X243023760Y-101556533D01*
X243023760Y-101556533D02*
X243061855Y-101518438D01*
X243061855Y-101518438D02*
X243138046Y-101480342D01*
X243138046Y-101480342D02*
X243252331Y-101480342D01*
X243252331Y-101480342D02*
X243328522Y-101518438D01*
X243328522Y-101518438D02*
X243366617Y-101556533D01*
X243366617Y-101556533D02*
X243404712Y-101632723D01*
X243404712Y-101632723D02*
X243404712Y-101937485D01*
X243785665Y-100718438D02*
X243785665Y-101175581D01*
X243785665Y-100947009D02*
X242985665Y-100947009D01*
X242985665Y-100947009D02*
X243099950Y-101023200D01*
X243099950Y-101023200D02*
X243176141Y-101099390D01*
X243176141Y-101099390D02*
X243214236Y-101175581D01*
X243061855Y-100413676D02*
X243023760Y-100375580D01*
X243023760Y-100375580D02*
X242985665Y-100299390D01*
X242985665Y-100299390D02*
X242985665Y-100108914D01*
X242985665Y-100108914D02*
X243023760Y-100032723D01*
X243023760Y-100032723D02*
X243061855Y-99994628D01*
X243061855Y-99994628D02*
X243138046Y-99956533D01*
X243138046Y-99956533D02*
X243214236Y-99956533D01*
X243214236Y-99956533D02*
X243328522Y-99994628D01*
X243328522Y-99994628D02*
X243785665Y-100451771D01*
X243785665Y-100451771D02*
X243785665Y-99956533D01*
X191671153Y-97604428D02*
X191404486Y-97223475D01*
X191214010Y-97604428D02*
X191214010Y-96804428D01*
X191214010Y-96804428D02*
X191518772Y-96804428D01*
X191518772Y-96804428D02*
X191594962Y-96842523D01*
X191594962Y-96842523D02*
X191633057Y-96880618D01*
X191633057Y-96880618D02*
X191671153Y-96956809D01*
X191671153Y-96956809D02*
X191671153Y-97071094D01*
X191671153Y-97071094D02*
X191633057Y-97147285D01*
X191633057Y-97147285D02*
X191594962Y-97185380D01*
X191594962Y-97185380D02*
X191518772Y-97223475D01*
X191518772Y-97223475D02*
X191214010Y-97223475D01*
X191937819Y-96804428D02*
X192471153Y-96804428D01*
X192471153Y-96804428D02*
X192128295Y-97604428D01*
X208184809Y-102548946D02*
X208832428Y-102548946D01*
X208832428Y-102548946D02*
X208908618Y-102510851D01*
X208908618Y-102510851D02*
X208946714Y-102472756D01*
X208946714Y-102472756D02*
X208984809Y-102396565D01*
X208984809Y-102396565D02*
X208984809Y-102244184D01*
X208984809Y-102244184D02*
X208946714Y-102167994D01*
X208946714Y-102167994D02*
X208908618Y-102129899D01*
X208908618Y-102129899D02*
X208832428Y-102091803D01*
X208832428Y-102091803D02*
X208184809Y-102091803D01*
X208184809Y-101787042D02*
X208184809Y-101291804D01*
X208184809Y-101291804D02*
X208489571Y-101558470D01*
X208489571Y-101558470D02*
X208489571Y-101444185D01*
X208489571Y-101444185D02*
X208527666Y-101367994D01*
X208527666Y-101367994D02*
X208565761Y-101329899D01*
X208565761Y-101329899D02*
X208641952Y-101291804D01*
X208641952Y-101291804D02*
X208832428Y-101291804D01*
X208832428Y-101291804D02*
X208908618Y-101329899D01*
X208908618Y-101329899D02*
X208946714Y-101367994D01*
X208946714Y-101367994D02*
X208984809Y-101444185D01*
X208984809Y-101444185D02*
X208984809Y-101672756D01*
X208984809Y-101672756D02*
X208946714Y-101748947D01*
X208946714Y-101748947D02*
X208908618Y-101787042D01*
X199726681Y-97787562D02*
X199688585Y-97825658D01*
X199688585Y-97825658D02*
X199574300Y-97863753D01*
X199574300Y-97863753D02*
X199498109Y-97863753D01*
X199498109Y-97863753D02*
X199383823Y-97825658D01*
X199383823Y-97825658D02*
X199307633Y-97749467D01*
X199307633Y-97749467D02*
X199269538Y-97673277D01*
X199269538Y-97673277D02*
X199231442Y-97520896D01*
X199231442Y-97520896D02*
X199231442Y-97406610D01*
X199231442Y-97406610D02*
X199269538Y-97254229D01*
X199269538Y-97254229D02*
X199307633Y-97178038D01*
X199307633Y-97178038D02*
X199383823Y-97101848D01*
X199383823Y-97101848D02*
X199498109Y-97063753D01*
X199498109Y-97063753D02*
X199574300Y-97063753D01*
X199574300Y-97063753D02*
X199688585Y-97101848D01*
X199688585Y-97101848D02*
X199726681Y-97139943D01*
X200488585Y-97863753D02*
X200031442Y-97863753D01*
X200260014Y-97863753D02*
X200260014Y-97063753D01*
X200260014Y-97063753D02*
X200183823Y-97178038D01*
X200183823Y-97178038D02*
X200107633Y-97254229D01*
X200107633Y-97254229D02*
X200031442Y-97292324D01*
X184355402Y-99782322D02*
X183974449Y-100048989D01*
X184355402Y-100239465D02*
X183555402Y-100239465D01*
X183555402Y-100239465D02*
X183555402Y-99934703D01*
X183555402Y-99934703D02*
X183593497Y-99858513D01*
X183593497Y-99858513D02*
X183631592Y-99820418D01*
X183631592Y-99820418D02*
X183707783Y-99782322D01*
X183707783Y-99782322D02*
X183822068Y-99782322D01*
X183822068Y-99782322D02*
X183898259Y-99820418D01*
X183898259Y-99820418D02*
X183936354Y-99858513D01*
X183936354Y-99858513D02*
X183974449Y-99934703D01*
X183974449Y-99934703D02*
X183974449Y-100239465D01*
X184355402Y-99401370D02*
X184355402Y-99248989D01*
X184355402Y-99248989D02*
X184317307Y-99172799D01*
X184317307Y-99172799D02*
X184279211Y-99134703D01*
X184279211Y-99134703D02*
X184164926Y-99058513D01*
X184164926Y-99058513D02*
X184012545Y-99020418D01*
X184012545Y-99020418D02*
X183707783Y-99020418D01*
X183707783Y-99020418D02*
X183631592Y-99058513D01*
X183631592Y-99058513D02*
X183593497Y-99096608D01*
X183593497Y-99096608D02*
X183555402Y-99172799D01*
X183555402Y-99172799D02*
X183555402Y-99325180D01*
X183555402Y-99325180D02*
X183593497Y-99401370D01*
X183593497Y-99401370D02*
X183631592Y-99439465D01*
X183631592Y-99439465D02*
X183707783Y-99477561D01*
X183707783Y-99477561D02*
X183898259Y-99477561D01*
X183898259Y-99477561D02*
X183974449Y-99439465D01*
X183974449Y-99439465D02*
X184012545Y-99401370D01*
X184012545Y-99401370D02*
X184050640Y-99325180D01*
X184050640Y-99325180D02*
X184050640Y-99172799D01*
X184050640Y-99172799D02*
X184012545Y-99096608D01*
X184012545Y-99096608D02*
X183974449Y-99058513D01*
X183974449Y-99058513D02*
X183898259Y-99020418D01*
X183105214Y-97554787D02*
X182838547Y-97173834D01*
X182648071Y-97554787D02*
X182648071Y-96754787D01*
X182648071Y-96754787D02*
X182952833Y-96754787D01*
X182952833Y-96754787D02*
X183029023Y-96792882D01*
X183029023Y-96792882D02*
X183067118Y-96830977D01*
X183067118Y-96830977D02*
X183105214Y-96907168D01*
X183105214Y-96907168D02*
X183105214Y-97021453D01*
X183105214Y-97021453D02*
X183067118Y-97097644D01*
X183067118Y-97097644D02*
X183029023Y-97135739D01*
X183029023Y-97135739D02*
X182952833Y-97173834D01*
X182952833Y-97173834D02*
X182648071Y-97173834D01*
X183790928Y-96754787D02*
X183638547Y-96754787D01*
X183638547Y-96754787D02*
X183562356Y-96792882D01*
X183562356Y-96792882D02*
X183524261Y-96830977D01*
X183524261Y-96830977D02*
X183448071Y-96945263D01*
X183448071Y-96945263D02*
X183409975Y-97097644D01*
X183409975Y-97097644D02*
X183409975Y-97402406D01*
X183409975Y-97402406D02*
X183448071Y-97478596D01*
X183448071Y-97478596D02*
X183486166Y-97516692D01*
X183486166Y-97516692D02*
X183562356Y-97554787D01*
X183562356Y-97554787D02*
X183714737Y-97554787D01*
X183714737Y-97554787D02*
X183790928Y-97516692D01*
X183790928Y-97516692D02*
X183829023Y-97478596D01*
X183829023Y-97478596D02*
X183867118Y-97402406D01*
X183867118Y-97402406D02*
X183867118Y-97211930D01*
X183867118Y-97211930D02*
X183829023Y-97135739D01*
X183829023Y-97135739D02*
X183790928Y-97097644D01*
X183790928Y-97097644D02*
X183714737Y-97059549D01*
X183714737Y-97059549D02*
X183562356Y-97059549D01*
X183562356Y-97059549D02*
X183486166Y-97097644D01*
X183486166Y-97097644D02*
X183448071Y-97135739D01*
X183448071Y-97135739D02*
X183409975Y-97211930D01*
X199809477Y-101634790D02*
X199847573Y-101672886D01*
X199847573Y-101672886D02*
X199885668Y-101787171D01*
X199885668Y-101787171D02*
X199885668Y-101863362D01*
X199885668Y-101863362D02*
X199847573Y-101977648D01*
X199847573Y-101977648D02*
X199771382Y-102053838D01*
X199771382Y-102053838D02*
X199695192Y-102091933D01*
X199695192Y-102091933D02*
X199542811Y-102130029D01*
X199542811Y-102130029D02*
X199428525Y-102130029D01*
X199428525Y-102130029D02*
X199276144Y-102091933D01*
X199276144Y-102091933D02*
X199199953Y-102053838D01*
X199199953Y-102053838D02*
X199123763Y-101977648D01*
X199123763Y-101977648D02*
X199085668Y-101863362D01*
X199085668Y-101863362D02*
X199085668Y-101787171D01*
X199085668Y-101787171D02*
X199123763Y-101672886D01*
X199123763Y-101672886D02*
X199161858Y-101634790D01*
X199161858Y-101330029D02*
X199123763Y-101291933D01*
X199123763Y-101291933D02*
X199085668Y-101215743D01*
X199085668Y-101215743D02*
X199085668Y-101025267D01*
X199085668Y-101025267D02*
X199123763Y-100949076D01*
X199123763Y-100949076D02*
X199161858Y-100910981D01*
X199161858Y-100910981D02*
X199238049Y-100872886D01*
X199238049Y-100872886D02*
X199314239Y-100872886D01*
X199314239Y-100872886D02*
X199428525Y-100910981D01*
X199428525Y-100910981D02*
X199885668Y-101368124D01*
X199885668Y-101368124D02*
X199885668Y-100872886D01*
X187355215Y-97604431D02*
X187088548Y-97223478D01*
X186898072Y-97604431D02*
X186898072Y-96804431D01*
X186898072Y-96804431D02*
X187202834Y-96804431D01*
X187202834Y-96804431D02*
X187279024Y-96842526D01*
X187279024Y-96842526D02*
X187317119Y-96880621D01*
X187317119Y-96880621D02*
X187355215Y-96956812D01*
X187355215Y-96956812D02*
X187355215Y-97071097D01*
X187355215Y-97071097D02*
X187317119Y-97147288D01*
X187317119Y-97147288D02*
X187279024Y-97185383D01*
X187279024Y-97185383D02*
X187202834Y-97223478D01*
X187202834Y-97223478D02*
X186898072Y-97223478D01*
X188079024Y-96804431D02*
X187698072Y-96804431D01*
X187698072Y-96804431D02*
X187659976Y-97185383D01*
X187659976Y-97185383D02*
X187698072Y-97147288D01*
X187698072Y-97147288D02*
X187774262Y-97109193D01*
X187774262Y-97109193D02*
X187964738Y-97109193D01*
X187964738Y-97109193D02*
X188040929Y-97147288D01*
X188040929Y-97147288D02*
X188079024Y-97185383D01*
X188079024Y-97185383D02*
X188117119Y-97261574D01*
X188117119Y-97261574D02*
X188117119Y-97452050D01*
X188117119Y-97452050D02*
X188079024Y-97528240D01*
X188079024Y-97528240D02*
X188040929Y-97566336D01*
X188040929Y-97566336D02*
X187964738Y-97604431D01*
X187964738Y-97604431D02*
X187774262Y-97604431D01*
X187774262Y-97604431D02*
X187698072Y-97566336D01*
X187698072Y-97566336D02*
X187659976Y-97528240D01*
X210009086Y-98268141D02*
X209742419Y-97887188D01*
X209551943Y-98268141D02*
X209551943Y-97468141D01*
X209551943Y-97468141D02*
X209856705Y-97468141D01*
X209856705Y-97468141D02*
X209932895Y-97506236D01*
X209932895Y-97506236D02*
X209970990Y-97544331D01*
X209970990Y-97544331D02*
X210009086Y-97620522D01*
X210009086Y-97620522D02*
X210009086Y-97734807D01*
X210009086Y-97734807D02*
X209970990Y-97810998D01*
X209970990Y-97810998D02*
X209932895Y-97849093D01*
X209932895Y-97849093D02*
X209856705Y-97887188D01*
X209856705Y-97887188D02*
X209551943Y-97887188D01*
X210770990Y-98268141D02*
X210313847Y-98268141D01*
X210542419Y-98268141D02*
X210542419Y-97468141D01*
X210542419Y-97468141D02*
X210466228Y-97582426D01*
X210466228Y-97582426D02*
X210390038Y-97658617D01*
X210390038Y-97658617D02*
X210313847Y-97696712D01*
X211266229Y-97468141D02*
X211342419Y-97468141D01*
X211342419Y-97468141D02*
X211418610Y-97506236D01*
X211418610Y-97506236D02*
X211456705Y-97544331D01*
X211456705Y-97544331D02*
X211494800Y-97620522D01*
X211494800Y-97620522D02*
X211532895Y-97772903D01*
X211532895Y-97772903D02*
X211532895Y-97963379D01*
X211532895Y-97963379D02*
X211494800Y-98115760D01*
X211494800Y-98115760D02*
X211456705Y-98191950D01*
X211456705Y-98191950D02*
X211418610Y-98230046D01*
X211418610Y-98230046D02*
X211342419Y-98268141D01*
X211342419Y-98268141D02*
X211266229Y-98268141D01*
X211266229Y-98268141D02*
X211190038Y-98230046D01*
X211190038Y-98230046D02*
X211151943Y-98191950D01*
X211151943Y-98191950D02*
X211113848Y-98115760D01*
X211113848Y-98115760D02*
X211075752Y-97963379D01*
X211075752Y-97963379D02*
X211075752Y-97772903D01*
X211075752Y-97772903D02*
X211113848Y-97620522D01*
X211113848Y-97620522D02*
X211151943Y-97544331D01*
X211151943Y-97544331D02*
X211190038Y-97506236D01*
X211190038Y-97506236D02*
X211266229Y-97468141D01*
X180407260Y-103592756D02*
X180026307Y-103859423D01*
X180407260Y-104049899D02*
X179607260Y-104049899D01*
X179607260Y-104049899D02*
X179607260Y-103745137D01*
X179607260Y-103745137D02*
X179645355Y-103668947D01*
X179645355Y-103668947D02*
X179683450Y-103630852D01*
X179683450Y-103630852D02*
X179759641Y-103592756D01*
X179759641Y-103592756D02*
X179873926Y-103592756D01*
X179873926Y-103592756D02*
X179950117Y-103630852D01*
X179950117Y-103630852D02*
X179988212Y-103668947D01*
X179988212Y-103668947D02*
X180026307Y-103745137D01*
X180026307Y-103745137D02*
X180026307Y-104049899D01*
X179950117Y-103135614D02*
X179912022Y-103211804D01*
X179912022Y-103211804D02*
X179873926Y-103249899D01*
X179873926Y-103249899D02*
X179797736Y-103287995D01*
X179797736Y-103287995D02*
X179759641Y-103287995D01*
X179759641Y-103287995D02*
X179683450Y-103249899D01*
X179683450Y-103249899D02*
X179645355Y-103211804D01*
X179645355Y-103211804D02*
X179607260Y-103135614D01*
X179607260Y-103135614D02*
X179607260Y-102983233D01*
X179607260Y-102983233D02*
X179645355Y-102907042D01*
X179645355Y-102907042D02*
X179683450Y-102868947D01*
X179683450Y-102868947D02*
X179759641Y-102830852D01*
X179759641Y-102830852D02*
X179797736Y-102830852D01*
X179797736Y-102830852D02*
X179873926Y-102868947D01*
X179873926Y-102868947D02*
X179912022Y-102907042D01*
X179912022Y-102907042D02*
X179950117Y-102983233D01*
X179950117Y-102983233D02*
X179950117Y-103135614D01*
X179950117Y-103135614D02*
X179988212Y-103211804D01*
X179988212Y-103211804D02*
X180026307Y-103249899D01*
X180026307Y-103249899D02*
X180102498Y-103287995D01*
X180102498Y-103287995D02*
X180254879Y-103287995D01*
X180254879Y-103287995D02*
X180331069Y-103249899D01*
X180331069Y-103249899D02*
X180369165Y-103211804D01*
X180369165Y-103211804D02*
X180407260Y-103135614D01*
X180407260Y-103135614D02*
X180407260Y-102983233D01*
X180407260Y-102983233D02*
X180369165Y-102907042D01*
X180369165Y-102907042D02*
X180331069Y-102868947D01*
X180331069Y-102868947D02*
X180254879Y-102830852D01*
X180254879Y-102830852D02*
X180102498Y-102830852D01*
X180102498Y-102830852D02*
X180026307Y-102868947D01*
X180026307Y-102868947D02*
X179988212Y-102907042D01*
X179988212Y-102907042D02*
X179950117Y-102983233D01*
X191722313Y-102546660D02*
X192369932Y-102546660D01*
X192369932Y-102546660D02*
X192446122Y-102508565D01*
X192446122Y-102508565D02*
X192484218Y-102470470D01*
X192484218Y-102470470D02*
X192522313Y-102394279D01*
X192522313Y-102394279D02*
X192522313Y-102241898D01*
X192522313Y-102241898D02*
X192484218Y-102165708D01*
X192484218Y-102165708D02*
X192446122Y-102127613D01*
X192446122Y-102127613D02*
X192369932Y-102089517D01*
X192369932Y-102089517D02*
X191722313Y-102089517D01*
X191798503Y-101746661D02*
X191760408Y-101708565D01*
X191760408Y-101708565D02*
X191722313Y-101632375D01*
X191722313Y-101632375D02*
X191722313Y-101441899D01*
X191722313Y-101441899D02*
X191760408Y-101365708D01*
X191760408Y-101365708D02*
X191798503Y-101327613D01*
X191798503Y-101327613D02*
X191874694Y-101289518D01*
X191874694Y-101289518D02*
X191950884Y-101289518D01*
X191950884Y-101289518D02*
X192065170Y-101327613D01*
X192065170Y-101327613D02*
X192522313Y-101784756D01*
X192522313Y-101784756D02*
X192522313Y-101289518D01*
X209856708Y-95463754D02*
X209856708Y-96035182D01*
X209856708Y-96035182D02*
X209818613Y-96149468D01*
X209818613Y-96149468D02*
X209742422Y-96225659D01*
X209742422Y-96225659D02*
X209628137Y-96263754D01*
X209628137Y-96263754D02*
X209551946Y-96263754D01*
X210237661Y-96263754D02*
X210237661Y-95463754D01*
X210237661Y-95463754D02*
X210542423Y-95463754D01*
X210542423Y-95463754D02*
X210618613Y-95501849D01*
X210618613Y-95501849D02*
X210656708Y-95539944D01*
X210656708Y-95539944D02*
X210694804Y-95616135D01*
X210694804Y-95616135D02*
X210694804Y-95730420D01*
X210694804Y-95730420D02*
X210656708Y-95806611D01*
X210656708Y-95806611D02*
X210618613Y-95844706D01*
X210618613Y-95844706D02*
X210542423Y-95882801D01*
X210542423Y-95882801D02*
X210237661Y-95882801D01*
X211456708Y-96263754D02*
X210999565Y-96263754D01*
X211228137Y-96263754D02*
X211228137Y-95463754D01*
X211228137Y-95463754D02*
X211151946Y-95578039D01*
X211151946Y-95578039D02*
X211075756Y-95654230D01*
X211075756Y-95654230D02*
X210999565Y-95692325D01*
X205185668Y-97360562D02*
X204804715Y-97627229D01*
X205185668Y-97817705D02*
X204385668Y-97817705D01*
X204385668Y-97817705D02*
X204385668Y-97512943D01*
X204385668Y-97512943D02*
X204423763Y-97436753D01*
X204423763Y-97436753D02*
X204461858Y-97398658D01*
X204461858Y-97398658D02*
X204538049Y-97360562D01*
X204538049Y-97360562D02*
X204652334Y-97360562D01*
X204652334Y-97360562D02*
X204728525Y-97398658D01*
X204728525Y-97398658D02*
X204766620Y-97436753D01*
X204766620Y-97436753D02*
X204804715Y-97512943D01*
X204804715Y-97512943D02*
X204804715Y-97817705D01*
X205185668Y-96598658D02*
X205185668Y-97055801D01*
X205185668Y-96827229D02*
X204385668Y-96827229D01*
X204385668Y-96827229D02*
X204499953Y-96903420D01*
X204499953Y-96903420D02*
X204576144Y-96979610D01*
X204576144Y-96979610D02*
X204614239Y-97055801D01*
X205185668Y-95836753D02*
X205185668Y-96293896D01*
X205185668Y-96065324D02*
X204385668Y-96065324D01*
X204385668Y-96065324D02*
X204499953Y-96141515D01*
X204499953Y-96141515D02*
X204576144Y-96217705D01*
X204576144Y-96217705D02*
X204614239Y-96293896D01*
X241851844Y-100849386D02*
X241470891Y-101116053D01*
X241851844Y-101306529D02*
X241051844Y-101306529D01*
X241051844Y-101306529D02*
X241051844Y-101001767D01*
X241051844Y-101001767D02*
X241089939Y-100925577D01*
X241089939Y-100925577D02*
X241128034Y-100887482D01*
X241128034Y-100887482D02*
X241204225Y-100849386D01*
X241204225Y-100849386D02*
X241318510Y-100849386D01*
X241318510Y-100849386D02*
X241394701Y-100887482D01*
X241394701Y-100887482D02*
X241432796Y-100925577D01*
X241432796Y-100925577D02*
X241470891Y-101001767D01*
X241470891Y-101001767D02*
X241470891Y-101306529D01*
X241318510Y-100163672D02*
X241851844Y-100163672D01*
X241013749Y-100354148D02*
X241585177Y-100544625D01*
X241585177Y-100544625D02*
X241585177Y-100049386D01*
X256477877Y-113925445D02*
X256477877Y-112925445D01*
X256477877Y-113401635D02*
X257049305Y-113401635D01*
X257049305Y-113925445D02*
X257049305Y-112925445D01*
X258049305Y-113925445D02*
X257477877Y-113925445D01*
X257763591Y-113925445D02*
X257763591Y-112925445D01*
X257763591Y-112925445D02*
X257668353Y-113068302D01*
X257668353Y-113068302D02*
X257573115Y-113163540D01*
X257573115Y-113163540D02*
X257477877Y-113211159D01*
X258525496Y-113925445D02*
X258715972Y-113925445D01*
X258715972Y-113925445D02*
X258811210Y-113877826D01*
X258811210Y-113877826D02*
X258858829Y-113830206D01*
X258858829Y-113830206D02*
X258954067Y-113687349D01*
X258954067Y-113687349D02*
X259001686Y-113496873D01*
X259001686Y-113496873D02*
X259001686Y-113115921D01*
X259001686Y-113115921D02*
X258954067Y-113020683D01*
X258954067Y-113020683D02*
X258906448Y-112973064D01*
X258906448Y-112973064D02*
X258811210Y-112925445D01*
X258811210Y-112925445D02*
X258620734Y-112925445D01*
X258620734Y-112925445D02*
X258525496Y-112973064D01*
X258525496Y-112973064D02*
X258477877Y-113020683D01*
X258477877Y-113020683D02*
X258430258Y-113115921D01*
X258430258Y-113115921D02*
X258430258Y-113354016D01*
X258430258Y-113354016D02*
X258477877Y-113449254D01*
X258477877Y-113449254D02*
X258525496Y-113496873D01*
X258525496Y-113496873D02*
X258620734Y-113544492D01*
X258620734Y-113544492D02*
X258811210Y-113544492D01*
X258811210Y-113544492D02*
X258906448Y-113496873D01*
X258906448Y-113496873D02*
X258954067Y-113449254D01*
X258954067Y-113449254D02*
X259001686Y-113354016D01*
X261116480Y-59898478D02*
X261687908Y-59898478D01*
X261402194Y-60898478D02*
X261402194Y-59898478D01*
X261926004Y-59898478D02*
X262592670Y-60898478D01*
X262592670Y-59898478D02*
X261926004Y-60898478D01*
X263164099Y-59898478D02*
X263259337Y-59898478D01*
X263259337Y-59898478D02*
X263354575Y-59946097D01*
X263354575Y-59946097D02*
X263402194Y-59993716D01*
X263402194Y-59993716D02*
X263449813Y-60088954D01*
X263449813Y-60088954D02*
X263497432Y-60279430D01*
X263497432Y-60279430D02*
X263497432Y-60517525D01*
X263497432Y-60517525D02*
X263449813Y-60708001D01*
X263449813Y-60708001D02*
X263402194Y-60803239D01*
X263402194Y-60803239D02*
X263354575Y-60850859D01*
X263354575Y-60850859D02*
X263259337Y-60898478D01*
X263259337Y-60898478D02*
X263164099Y-60898478D01*
X263164099Y-60898478D02*
X263068861Y-60850859D01*
X263068861Y-60850859D02*
X263021242Y-60803239D01*
X263021242Y-60803239D02*
X262973623Y-60708001D01*
X262973623Y-60708001D02*
X262926004Y-60517525D01*
X262926004Y-60517525D02*
X262926004Y-60279430D01*
X262926004Y-60279430D02*
X262973623Y-60088954D01*
X262973623Y-60088954D02*
X263021242Y-59993716D01*
X263021242Y-59993716D02*
X263068861Y-59946097D01*
X263068861Y-59946097D02*
X263164099Y-59898478D01*
X252364098Y-60898478D02*
X252030765Y-60422287D01*
X251792670Y-60898478D02*
X251792670Y-59898478D01*
X251792670Y-59898478D02*
X252173622Y-59898478D01*
X252173622Y-59898478D02*
X252268860Y-59946097D01*
X252268860Y-59946097D02*
X252316479Y-59993716D01*
X252316479Y-59993716D02*
X252364098Y-60088954D01*
X252364098Y-60088954D02*
X252364098Y-60231811D01*
X252364098Y-60231811D02*
X252316479Y-60327049D01*
X252316479Y-60327049D02*
X252268860Y-60374668D01*
X252268860Y-60374668D02*
X252173622Y-60422287D01*
X252173622Y-60422287D02*
X251792670Y-60422287D01*
X252745051Y-60612763D02*
X253221241Y-60612763D01*
X252649813Y-60898478D02*
X252983146Y-59898478D01*
X252983146Y-59898478D02*
X253316479Y-60898478D01*
X253554575Y-59898478D02*
X253792670Y-60898478D01*
X253792670Y-60898478D02*
X253983146Y-60184192D01*
X253983146Y-60184192D02*
X254173622Y-60898478D01*
X254173622Y-60898478D02*
X254411718Y-59898478D01*
D11*
%TO.C,C3*%
X214249801Y-98333989D02*
X213727297Y-98333989D01*
X214249801Y-96863989D02*
X213727297Y-96863989D01*
%TO.C,R12*%
X244174963Y-97738993D02*
X244174963Y-98193121D01*
X242704963Y-97738993D02*
X242704963Y-98193121D01*
D12*
%TO.C,SW5*%
X245306549Y-45859992D02*
G75*
G03*
X245306549Y-45859992I-6467000J0D01*
G01*
%TO.C,SW13*%
X207206550Y-74959991D02*
G75*
G03*
X207206550Y-74959991I-6467000J0D01*
G01*
%TO.C,SW12*%
X188156550Y-80960500D02*
G75*
G03*
X188156550Y-80960500I-6467000J0D01*
G01*
D11*
%TO.C,RSW1*%
X264840971Y-102970627D02*
X265390971Y-102970627D01*
X266965971Y-103995627D02*
X266965971Y-103070627D01*
X266965971Y-107770627D02*
X266965971Y-106845627D01*
X263265971Y-107770627D02*
X263265971Y-103070627D01*
X264840971Y-107870627D02*
X265390971Y-107870627D01*
D12*
%TO.C,SW4*%
X226256550Y-43360005D02*
G75*
G03*
X226256550Y-43360005I-6467000J0D01*
G01*
%TO.C,SW15*%
X245306549Y-83959994D02*
G75*
G03*
X245306549Y-83959994I-6467000J0D01*
G01*
%TO.C,SW6*%
X169106552Y-73910492D02*
G75*
G03*
X169106552Y-73910492I-6467000J0D01*
G01*
D11*
%TO.C,R7*%
X192031550Y-96327133D02*
X191577422Y-96327133D01*
X192031550Y-94857133D02*
X191577422Y-94857133D01*
%TO.C,U3*%
X208622514Y-99377135D02*
X205172514Y-99377135D01*
X208622514Y-99377135D02*
X210572514Y-99377135D01*
X208622514Y-104497135D02*
X206672514Y-104497135D01*
X208622514Y-104497135D02*
X210572514Y-104497135D01*
D13*
%TO.C,BAT_HOLE+1*%
X249366908Y-58169421D02*
X249366908Y-57469421D01*
X249766908Y-57069421D02*
X251466908Y-57069421D01*
X251116908Y-57819421D02*
X251616908Y-57819421D01*
X251366908Y-57569421D02*
X251366908Y-58069421D01*
X251466908Y-58569421D02*
X249766908Y-58569421D01*
X251866908Y-57469421D02*
X251866908Y-58169421D01*
X249766908Y-57069421D02*
G75*
G03*
X249366908Y-57469421I-1J-399999D01*
G01*
X249366908Y-58169421D02*
G75*
G03*
X249766908Y-58569421I399999J-1D01*
G01*
X251866908Y-57469421D02*
G75*
G03*
X251466908Y-57069421I-400000J0D01*
G01*
X251466908Y-58569421D02*
G75*
G03*
X251866908Y-58169421I0J400000D01*
G01*
D12*
%TO.C,SW3*%
X207206540Y-36859996D02*
G75*
G03*
X207206540Y-36859996I-6467000J0D01*
G01*
%TO.C,SW11*%
X169106550Y-92960494D02*
G75*
G03*
X169106550Y-92960494I-6467000J0D01*
G01*
D11*
%TO.C,C1*%
X199598762Y-95163991D02*
X200121266Y-95163991D01*
X199598762Y-96633991D02*
X200121266Y-96633991D01*
%TO.C,R9*%
X181503550Y-99876054D02*
X181503550Y-99421926D01*
X182973550Y-99876054D02*
X182973550Y-99421926D01*
%TO.C,R6*%
X183465611Y-96277492D02*
X183011483Y-96277492D01*
X183465611Y-94807492D02*
X183011483Y-94807492D01*
D12*
%TO.C,SW2*%
X188156546Y-42860498D02*
G75*
G03*
X188156546Y-42860498I-6467000J0D01*
G01*
D10*
%TO.C,J1*%
X266665975Y-93989423D02*
X254565975Y-93989423D01*
X266665975Y-100089423D02*
X266665975Y-93989423D01*
X266665975Y-100089423D02*
X254565975Y-100089423D01*
X254565975Y-100089423D02*
X254565975Y-93989423D01*
D11*
%TO.C,C2*%
X200387517Y-101803743D02*
X200387517Y-101281239D01*
X201857517Y-101803743D02*
X201857517Y-101281239D01*
%TO.C,R5*%
X187715612Y-96327136D02*
X187261484Y-96327136D01*
X187715612Y-94857136D02*
X187261484Y-94857136D01*
D12*
%TO.C,SW17*%
X255156516Y-111480384D02*
G75*
G03*
X255156516Y-111480384I-6467000J0D01*
G01*
%TO.C,SW9*%
X226256550Y-62409994D02*
G75*
G03*
X226256550Y-62409994I-6467000J0D01*
G01*
%TO.C,SW7*%
X188156551Y-61910495D02*
G75*
G03*
X188156551Y-61910495I-6467000J0D01*
G01*
%TO.C,SW14*%
X226256545Y-81459993D02*
G75*
G03*
X226256545Y-81459993I-6467000J0D01*
G01*
%TO.C,SW1*%
X169106540Y-54860494D02*
G75*
G03*
X169106540Y-54860494I-6467000J0D01*
G01*
D11*
%TO.C,R10*%
X207395450Y-97163990D02*
X207849578Y-97163990D01*
X207395450Y-98633990D02*
X207849578Y-98633990D01*
D12*
%TO.C,SW10*%
X245306548Y-64909997D02*
G75*
G03*
X245306548Y-64909997I-6467000J0D01*
G01*
D11*
%TO.C,R8*%
X177569486Y-103686488D02*
X177569486Y-103232360D01*
X179039486Y-103686488D02*
X179039486Y-103232360D01*
%TO.C,U2*%
X187062517Y-101937137D02*
X187062517Y-105387137D01*
X187062517Y-101937137D02*
X187062517Y-99987137D01*
X197182517Y-101937137D02*
X197182517Y-103887137D01*
X197182517Y-101937137D02*
X197182517Y-99987137D01*
%TO.C,JP1*%
X207395453Y-95163992D02*
X207849581Y-95163992D01*
X207395453Y-96633992D02*
X207849581Y-96633992D01*
D12*
%TO.C,SW18*%
X235409589Y-103300695D02*
G75*
G03*
X235409589Y-103300695I-6467000J0D01*
G01*
%TO.C,SW8*%
X207206544Y-55909999D02*
G75*
G03*
X207206544Y-55909999I-6467000J0D01*
G01*
D11*
%TO.C,DISP1*%
X251404330Y-91032635D02*
X264104330Y-91032635D01*
X264104330Y-91032635D02*
X264104330Y-93632635D01*
X264104330Y-93632635D02*
X251404330Y-93632635D01*
X251404330Y-93632635D02*
X251404330Y-91032635D01*
D13*
%TO.C,BAT_HOLE-1*%
X266140409Y-57469423D02*
X266140409Y-58169423D01*
X265740409Y-58569423D02*
X264040409Y-58569423D01*
X264390409Y-57819423D02*
X263890409Y-57819423D01*
X264040409Y-57069423D02*
X265740409Y-57069423D01*
X263640409Y-58169423D02*
X263640409Y-57469423D01*
X265740409Y-58569423D02*
G75*
G03*
X266140409Y-58169423I1J399999D01*
G01*
X266140409Y-57469423D02*
G75*
G03*
X265740409Y-57069423I-399999J1D01*
G01*
X263640409Y-58169423D02*
G75*
G03*
X264040409Y-58569423I400000J0D01*
G01*
X264040409Y-57069423D02*
G75*
G03*
X263640409Y-57469423I0J-400000D01*
G01*
D12*
%TO.C,SW16*%
X271716074Y-124047750D02*
G75*
G03*
X271716074Y-124047750I-6467001J0D01*
G01*
D11*
%TO.C,R11*%
X202487517Y-97126054D02*
X202487517Y-96671926D01*
X203957517Y-97126054D02*
X203957517Y-96671926D01*
%TO.C,R4*%
X242224549Y-97732925D02*
X242224549Y-98187053D01*
X240754549Y-97732925D02*
X240754549Y-98187053D01*
D14*
%TO.C,U1*%
X266644575Y-59103659D02*
X266644575Y-89583659D01*
X264104575Y-59103659D02*
X264104575Y-61643659D01*
X248864575Y-59103659D02*
X266644575Y-59103659D01*
X264104575Y-61643659D02*
X266644575Y-61643659D01*
X266644575Y-89583659D02*
X248864575Y-89583659D01*
X248864575Y-89583659D02*
X248864575Y-59103659D01*
%TD*%
D15*
%TO.C,U1*%
X265374575Y-60373659D03*
D16*
X265374575Y-62913659D03*
X265374575Y-65453659D03*
X265374575Y-67993659D03*
X265374575Y-70533659D03*
X265374575Y-73073659D03*
X265374575Y-75613659D03*
X265374575Y-78153659D03*
X265374575Y-80693659D03*
X265374575Y-83233659D03*
X265374575Y-85773659D03*
X265374575Y-88313659D03*
X250134575Y-88313659D03*
X250134575Y-85773659D03*
X250134575Y-83233659D03*
X250134575Y-80693659D03*
X250134575Y-78153659D03*
X250134575Y-75613659D03*
X250134575Y-73073659D03*
X250134575Y-70533659D03*
X250134575Y-67993659D03*
X250134575Y-65453659D03*
X250134575Y-62913659D03*
X250134575Y-60373659D03*
%TD*%
%LPC*%
D17*
%TO.C,C3*%
X215026049Y-97598989D03*
X212951049Y-97598989D03*
%TD*%
D18*
%TO.C,H1*%
X162639543Y-44666058D03*
%TD*%
D19*
%TO.C,R12*%
X243439963Y-96966057D03*
X243439963Y-98966057D03*
%TD*%
D20*
%TO.C,RSW1*%
X266490971Y-105420627D03*
X263740971Y-105420627D03*
D21*
X265965971Y-102795627D03*
X265965971Y-108045627D03*
X264265971Y-102795627D03*
X264265971Y-108045627D03*
%TD*%
D22*
%TO.C,R7*%
X192804486Y-95592133D03*
X190804486Y-95592133D03*
%TD*%
D23*
%TO.C,U3*%
X206147514Y-100032135D03*
X206147514Y-101302135D03*
X206147514Y-102572135D03*
X206147514Y-103842135D03*
X211097514Y-103842135D03*
X211097514Y-102572135D03*
X211097514Y-101302135D03*
X211097514Y-100032135D03*
%TD*%
D24*
%TO.C,BAT_HOLE+1*%
X250116908Y-57819421D03*
%TD*%
D18*
%TO.C,H9*%
X219789549Y-33166058D03*
%TD*%
%TO.C,H10*%
X238839551Y-35666058D03*
%TD*%
D25*
%TO.C,H17*%
X250364002Y-97039421D03*
%TD*%
D18*
%TO.C,H13*%
X239297894Y-106243092D03*
%TD*%
%TO.C,H2*%
X162639541Y-64385492D03*
%TD*%
%TO.C,H5*%
X176639550Y-94960499D03*
%TD*%
D26*
%TO.C,C1*%
X198822514Y-95898991D03*
X200897514Y-95898991D03*
%TD*%
D27*
%TO.C,R9*%
X182238550Y-100648990D03*
X182238550Y-98648990D03*
%TD*%
D25*
%TO.C,H15*%
X250364001Y-54480531D03*
%TD*%
D22*
%TO.C,R6*%
X184238547Y-95542492D03*
X182238547Y-95542492D03*
%TD*%
D28*
%TO.C,J1*%
X265065975Y-97039423D03*
X258065975Y-97039423D03*
D29*
X255365975Y-94739423D03*
X263465975Y-99339423D03*
X260465975Y-99339423D03*
X256465975Y-99339423D03*
%TD*%
D30*
%TO.C,C2*%
X201122517Y-102579991D03*
X201122517Y-100504991D03*
%TD*%
D22*
%TO.C,R5*%
X188488548Y-95592136D03*
X186488548Y-95592136D03*
%TD*%
D18*
%TO.C,H14*%
X274694073Y-117014750D03*
%TD*%
D31*
%TO.C,R10*%
X206622514Y-97898990D03*
X208622514Y-97898990D03*
%TD*%
D18*
%TO.C,H12*%
X238839549Y-74434995D03*
%TD*%
%TO.C,H6*%
X200739542Y-46384998D03*
%TD*%
D27*
%TO.C,R8*%
X178304486Y-104459424D03*
X178304486Y-102459424D03*
%TD*%
D32*
%TO.C,U2*%
X187677517Y-104412137D03*
X188947517Y-104412137D03*
X190217517Y-104412137D03*
X191487517Y-104412137D03*
X192757517Y-104412137D03*
X194027517Y-104412137D03*
X195297517Y-104412137D03*
X196567517Y-104412137D03*
X196567517Y-99462137D03*
X195297517Y-99462137D03*
X194027517Y-99462137D03*
X192757517Y-99462137D03*
X191487517Y-99462137D03*
X190217517Y-99462137D03*
X188947517Y-99462137D03*
X187677517Y-99462137D03*
%TD*%
D31*
%TO.C,JP1*%
X206622517Y-95898992D03*
X208622517Y-95898992D03*
%TD*%
D18*
%TO.C,H4*%
X181689545Y-32666057D03*
%TD*%
%TO.C,H11*%
X238839549Y-55384995D03*
%TD*%
D16*
%TO.C,DISP1*%
X252674330Y-92332635D03*
X255214330Y-92332635D03*
X257754330Y-92332635D03*
X260294330Y-92332635D03*
X262834330Y-92332635D03*
%TD*%
D25*
%TO.C,H16*%
X265145326Y-54480079D03*
%TD*%
D18*
%TO.C,H7*%
X200739541Y-65434995D03*
%TD*%
D33*
%TO.C,BAT_HOLE-1*%
X265390409Y-57819423D03*
%TD*%
D27*
%TO.C,R11*%
X203222517Y-97898990D03*
X203222517Y-95898990D03*
%TD*%
D18*
%TO.C,H3*%
X162639550Y-83435488D03*
%TD*%
D19*
%TO.C,R4*%
X241489549Y-96959989D03*
X241489549Y-98959989D03*
%TD*%
D18*
%TO.C,H19*%
X257715972Y-116670626D03*
%TD*%
%TO.C,H8*%
X200739548Y-86959992D03*
%TD*%
D34*
%TO.C,PSW1*%
X256254580Y-57812138D03*
X259254580Y-57812138D03*
%TD*%
D15*
%TO.C,U1*%
X265374575Y-60373659D03*
D16*
X265374575Y-62913659D03*
X265374575Y-65453659D03*
X265374575Y-67993659D03*
X265374575Y-70533659D03*
X265374575Y-73073659D03*
X265374575Y-75613659D03*
X265374575Y-78153659D03*
X265374575Y-80693659D03*
X265374575Y-83233659D03*
X265374575Y-85773659D03*
X265374575Y-88313659D03*
X250134575Y-88313659D03*
X250134575Y-85773659D03*
X250134575Y-83233659D03*
X250134575Y-80693659D03*
X250134575Y-78153659D03*
X250134575Y-75613659D03*
X250134575Y-73073659D03*
X250134575Y-70533659D03*
X250134575Y-67993659D03*
X250134575Y-65453659D03*
X250134575Y-62913659D03*
X250134575Y-60373659D03*
%TD*%
%LPD*%
M02*
