%TF.GenerationSoftware,KiCad,Pcbnew,7.0.7-2.fc38*%
%TF.CreationDate,2023-10-08T12:30:22+05:30*%
%TF.ProjectId,tako_right,74616b6f-5f72-4696-9768-742e6b696361,rev?*%
%TF.SameCoordinates,Original*%
%TF.FileFunction,Profile,NP*%
%FSLAX46Y46*%
G04 Gerber Fmt 4.6, Leading zero omitted, Abs format (unit mm)*
G04 Created by KiCad (PCBNEW 7.0.7-2.fc38) date 2023-10-08 12:30:22*
%MOMM*%
%LPD*%
G01*
G04 APERTURE LIST*
%TA.AperFunction,Profile*%
%ADD10C,0.100000*%
%TD*%
%TA.AperFunction,Profile*%
%ADD11C,0.050000*%
%TD*%
G04 APERTURE END LIST*
D10*
X276294057Y-111364599D02*
X268643644Y-111364387D01*
X277248315Y-126235007D02*
G75*
G03*
X277819057Y-124214599I-3379215J2045407D01*
G01*
D11*
X247788747Y-36379085D02*
G75*
G03*
X202739289Y-26334575I-45050047J-96003415D01*
G01*
X153114941Y-86246058D02*
X153114943Y-101485645D01*
X248364002Y-51980529D02*
X248364002Y-37284666D01*
X153114986Y-101485645D02*
G75*
G03*
X153588342Y-102335003I998414J-155D01*
G01*
X265145268Y-52479935D02*
G75*
G03*
X263145135Y-54479892I-268J-1999865D01*
G01*
X153588342Y-102335002D02*
G75*
G03*
X181689856Y-110035990I28101808J47422902D01*
G01*
X207751735Y-110035651D02*
X181689856Y-110035990D01*
X153114948Y-46085744D02*
X153114940Y-60166058D01*
X248864006Y-52480527D02*
X250363944Y-52480355D01*
X252363945Y-54480488D02*
G75*
G03*
X250363944Y-52480355I-1999845J288D01*
G01*
X252864111Y-56230419D02*
X262644956Y-56229817D01*
D10*
X277819101Y-112889599D02*
G75*
G03*
X276294057Y-111364599I-1525001J-1D01*
G01*
D11*
X262966844Y-135740807D02*
G75*
G03*
X267799180Y-135879352I2491556J2560207D01*
G01*
X153438732Y-45349074D02*
G75*
G03*
X153114948Y-46085744I676268J-736726D01*
G01*
X153114941Y-86246058D02*
X153114940Y-60166058D01*
X267145259Y-54480041D02*
X267144942Y-94264804D01*
X248363973Y-51980529D02*
G75*
G03*
X248864006Y-52480527I500027J29D01*
G01*
X252363931Y-54480488D02*
X252364104Y-55730421D01*
X262644956Y-56229860D02*
G75*
G03*
X263144960Y-55729820I-156J500160D01*
G01*
D10*
X267144948Y-94264807D02*
X267144057Y-109839599D01*
D11*
X262966860Y-135740789D02*
G75*
G03*
X207751735Y-110035652I-55447800J-46948791D01*
G01*
X252364181Y-55730421D02*
G75*
G03*
X252864111Y-56230419I499919J-79D01*
G01*
X202739289Y-26334578D02*
G75*
G03*
X153438748Y-45349091I-89J-73419872D01*
G01*
X248363971Y-37284666D02*
G75*
G03*
X247788744Y-36379091I-1000171J166D01*
G01*
X267145296Y-54480041D02*
G75*
G03*
X265145268Y-52479904I-2000296J-159D01*
G01*
X263144960Y-55729820D02*
X263145135Y-54479892D01*
D10*
X267144101Y-109839599D02*
G75*
G03*
X268643644Y-111364387I1524999J-1D01*
G01*
X277248320Y-126235010D02*
X267799180Y-135879353D01*
X277819057Y-112889599D02*
X277819057Y-124214599D01*
M02*
