M48
; DRILL file {KiCad 7.0.7-2.fc38} date Sunday 08 October 2023 12:30:24 PM
; FORMAT={-:-/ absolute / inch / decimal}
; #@! TF.CreationDate,2023-10-08T12:30:24+05:30
; #@! TF.GenerationSoftware,Kicad,Pcbnew,7.0.7-2.fc38
; #@! TF.FileFunction,NonPlated,1,2,NPTH
FMAT,2
INCH
; #@! TA.AperFunction,NonPlated,NPTH,ComponentDrill
T1C0.0295
; #@! TA.AperFunction,NonPlated,NPTH,ComponentDrill
T2C0.0315
; #@! TA.AperFunction,NonPlated,NPTH,ComponentDrill
T3C0.0354
; #@! TA.AperFunction,NonPlated,NPTH,ComponentDrill
T4C0.1339
%
G90
G05
T1
X10.3835Y-4.1504
X10.4918Y-4.1504
T2
X10.1601Y-3.8204
X10.4357Y-3.8204
T3
X10.0888Y-2.2761
X10.2069Y-2.2761
T4
X6.4031Y-2.5349
X6.4031Y-1.7585
X6.4031Y-3.2849
X6.9543Y-3.7386
X7.1531Y-1.2861
X7.9031Y-2.5762
X7.9031Y-1.8262
X7.9031Y-3.4236
X8.6531Y-1.3058
X9.4031Y-2.1805
X9.4031Y-2.9305
X9.4031Y-1.4042
X9.4212Y-4.1828
X10.1463Y-4.5933
X10.8147Y-4.6069
T0
M30
