%TF.GenerationSoftware,KiCad,Pcbnew,7.0.7-2.fc38*%
%TF.CreationDate,2023-10-08T12:30:21+05:30*%
%TF.ProjectId,tako_right,74616b6f-5f72-4696-9768-742e6b696361,rev?*%
%TF.SameCoordinates,Original*%
%TF.FileFunction,Paste,Top*%
%TF.FilePolarity,Positive*%
%FSLAX46Y46*%
G04 Gerber Fmt 4.6, Leading zero omitted, Abs format (unit mm)*
G04 Created by KiCad (PCBNEW 7.0.7-2.fc38) date 2023-10-08 12:30:21*
%MOMM*%
%LPD*%
G01*
G04 APERTURE LIST*
G04 Aperture macros list*
%AMRoundRect*
0 Rectangle with rounded corners*
0 $1 Rounding radius*
0 $2 $3 $4 $5 $6 $7 $8 $9 X,Y pos of 4 corners*
0 Add a 4 corners polygon primitive as box body*
4,1,4,$2,$3,$4,$5,$6,$7,$8,$9,$2,$3,0*
0 Add four circle primitives for the rounded corners*
1,1,$1+$1,$2,$3*
1,1,$1+$1,$4,$5*
1,1,$1+$1,$6,$7*
1,1,$1+$1,$8,$9*
0 Add four rect primitives between the rounded corners*
20,1,$1+$1,$2,$3,$4,$5,0*
20,1,$1+$1,$4,$5,$6,$7,0*
20,1,$1+$1,$6,$7,$8,$9,0*
20,1,$1+$1,$8,$9,$2,$3,0*%
G04 Aperture macros list end*
%ADD10RoundRect,0.250000X0.337500X0.475000X-0.337500X0.475000X-0.337500X-0.475000X0.337500X-0.475000X0*%
%ADD11RoundRect,0.250000X-0.450000X0.350000X-0.450000X-0.350000X0.450000X-0.350000X0.450000X0.350000X0*%
%ADD12R,1.000000X1.550000*%
%ADD13RoundRect,0.250000X0.350000X0.450000X-0.350000X0.450000X-0.350000X-0.450000X0.350000X-0.450000X0*%
%ADD14RoundRect,0.150000X-0.825000X-0.150000X0.825000X-0.150000X0.825000X0.150000X-0.825000X0.150000X0*%
%ADD15RoundRect,0.312500X-0.312500X-0.312500X0.312500X-0.312500X0.312500X0.312500X-0.312500X0.312500X0*%
%ADD16RoundRect,0.250000X-0.337500X-0.475000X0.337500X-0.475000X0.337500X0.475000X-0.337500X0.475000X0*%
%ADD17RoundRect,0.250000X0.450000X-0.350000X0.450000X0.350000X-0.450000X0.350000X-0.450000X-0.350000X0*%
%ADD18RoundRect,0.250000X0.475000X-0.337500X0.475000X0.337500X-0.475000X0.337500X-0.475000X-0.337500X0*%
%ADD19RoundRect,0.250000X-0.350000X-0.450000X0.350000X-0.450000X0.350000X0.450000X-0.350000X0.450000X0*%
%ADD20RoundRect,0.150000X0.150000X-0.825000X0.150000X0.825000X-0.150000X0.825000X-0.150000X-0.825000X0*%
%ADD21RoundRect,0.312500X0.312500X0.312500X-0.312500X0.312500X-0.312500X-0.312500X0.312500X-0.312500X0*%
G04 APERTURE END LIST*
D10*
%TO.C,C3*%
X215026049Y-97598989D03*
X212951049Y-97598989D03*
%TD*%
D11*
%TO.C,R12*%
X243439963Y-96966057D03*
X243439963Y-98966057D03*
%TD*%
D12*
%TO.C,RSW1*%
X265965971Y-102795627D03*
X265965971Y-108045627D03*
X264265971Y-102795627D03*
X264265971Y-108045627D03*
%TD*%
D13*
%TO.C,R7*%
X192804486Y-95592133D03*
X190804486Y-95592133D03*
%TD*%
D14*
%TO.C,U3*%
X206147514Y-100032135D03*
X206147514Y-101302135D03*
X206147514Y-102572135D03*
X206147514Y-103842135D03*
X211097514Y-103842135D03*
X211097514Y-102572135D03*
X211097514Y-101302135D03*
X211097514Y-100032135D03*
%TD*%
D15*
%TO.C,BAT_HOLE+1*%
X250116908Y-57819421D03*
%TD*%
D16*
%TO.C,C1*%
X198822514Y-95898991D03*
X200897514Y-95898991D03*
%TD*%
D17*
%TO.C,R9*%
X182238550Y-100648990D03*
X182238550Y-98648990D03*
%TD*%
D13*
%TO.C,R6*%
X184238547Y-95542492D03*
X182238547Y-95542492D03*
%TD*%
D18*
%TO.C,C2*%
X201122517Y-102579991D03*
X201122517Y-100504991D03*
%TD*%
D13*
%TO.C,R5*%
X188488548Y-95592136D03*
X186488548Y-95592136D03*
%TD*%
D19*
%TO.C,R10*%
X206622514Y-97898990D03*
X208622514Y-97898990D03*
%TD*%
D17*
%TO.C,R8*%
X178304486Y-104459424D03*
X178304486Y-102459424D03*
%TD*%
D20*
%TO.C,U2*%
X187677517Y-104412137D03*
X188947517Y-104412137D03*
X190217517Y-104412137D03*
X191487517Y-104412137D03*
X192757517Y-104412137D03*
X194027517Y-104412137D03*
X195297517Y-104412137D03*
X196567517Y-104412137D03*
X196567517Y-99462137D03*
X195297517Y-99462137D03*
X194027517Y-99462137D03*
X192757517Y-99462137D03*
X191487517Y-99462137D03*
X190217517Y-99462137D03*
X188947517Y-99462137D03*
X187677517Y-99462137D03*
%TD*%
D19*
%TO.C,JP1*%
X206622517Y-95898992D03*
X208622517Y-95898992D03*
%TD*%
D21*
%TO.C,BAT_HOLE-1*%
X265390409Y-57819423D03*
%TD*%
D17*
%TO.C,R11*%
X203222517Y-97898990D03*
X203222517Y-95898990D03*
%TD*%
D11*
%TO.C,R4*%
X241489549Y-96959989D03*
X241489549Y-98959989D03*
%TD*%
M02*
