M48
; DRILL file {KiCad 7.0.7-2.fc38} date Sunday 08 October 2023 12:30:24 PM
; FORMAT={-:-/ absolute / inch / decimal}
; #@! TF.CreationDate,2023-10-08T12:30:24+05:30
; #@! TF.GenerationSoftware,Kicad,Pcbnew,7.0.7-2.fc38
; #@! TF.FileFunction,Plated,1,2,PTH
FMAT,2
INCH
; #@! TA.AperFunction,Plated,PTH,ViaDrill
T1C0.0157
; #@! TA.AperFunction,Plated,PTH,ComponentDrill
T2C0.0354
; #@! TA.AperFunction,Plated,PTH,ComponentDrill
T3C0.0430
; #@! TA.AperFunction,Plated,PTH,ComponentDrill
T4C0.0866
%
G90
G05
T1
X6.4031Y-2.1205
X6.4031Y-2.1992
X6.4031Y-2.8705
X6.4031Y-2.9492
X6.4031Y-3.6205
X6.4031Y-3.6992
X6.5774Y-3.2339
X6.5851Y-2.4941
X6.6331Y-3.1782
X6.6331Y-3.2896
X6.6408Y-2.5498
X6.6408Y-2.4384
X6.6888Y-3.2339
X6.6964Y-2.4941
X6.729Y-3.1087
X6.729Y-3.1874
X6.7502Y-2.437
X6.7502Y-2.3583
X6.8274Y-3.1087
X6.8274Y-3.1874
X6.829Y-2.3583
X6.829Y-2.437
X6.9484Y-4.0315
X7.0837Y-3.8716
X7.1157Y-4.0732
X7.1157Y-4.1519
X7.1531Y-1.6481
X7.1531Y-1.7268
X7.1531Y-2.4768
X7.1531Y-3.1481
X7.1531Y-2.3981
X7.1531Y-3.2268
X7.1747Y-3.6946
X7.1747Y-4.0496
X7.1749Y-4.1679
X7.2338Y-4.0732
X7.2338Y-4.1519
X7.296Y-3.9286
X7.297Y-4.1766
X7.3308Y-4.0724
X7.3373Y-4.2086
X7.3421Y-3.6946
X7.4373Y-4.2086
X7.4878Y-4.0174
X7.5069Y-2.8721
X7.5069Y-2.124
X7.5069Y-2.2028
X7.5069Y-2.9508
X7.512Y-3.6946
X7.5373Y-4.2086
X7.5665Y-4.0173
X7.5857Y-2.8721
X7.5857Y-2.124
X7.5857Y-2.2028
X7.5857Y-2.9508
X7.6373Y-4.2085
X7.6413Y-3.7637
X7.6453Y-4.0173
X7.65Y-3.6449
X7.724Y-4.0173
X7.7358Y-3.6035
X7.7373Y-4.2086
X7.7577Y-3.7664
X7.789Y-4.1185
X7.8027Y-4.0173
X7.8358Y-3.6035
X7.8373Y-4.2086
X7.9031Y-1.4118
X7.9031Y-1.4906
X7.9031Y-2.2406
X7.9031Y-2.1618
X7.9031Y-2.9118
X7.9031Y-2.9906
X7.9182Y-3.8954
X7.9358Y-3.6035
X7.9373Y-4.2086
X8.0358Y-3.6035
X8.0373Y-4.2086
X8.0429Y-3.937
X8.0429Y-4.089
X8.0704Y-3.7756
X8.1358Y-3.6035
X8.1373Y-4.2086
X8.2358Y-3.6035
X8.2373Y-4.2086
X8.2546Y-2.2012
X8.2546Y-2.1225
X8.255Y-2.8721
X8.255Y-2.9508
X8.3333Y-2.1225
X8.3333Y-2.2012
X8.3337Y-2.9508
X8.3337Y-2.8721
X8.3358Y-3.6035
X8.3373Y-4.2086
X8.354Y-3.7602
X8.4358Y-3.6035
X8.4373Y-4.2086
X8.4543Y-4.0383
X8.5153Y-4.0072
X8.5153Y-4.0702
X8.5358Y-3.6035
X8.5373Y-4.2086
X8.5941Y-4.0702
X8.5941Y-4.0072
X8.6358Y-3.6035
X8.6531Y-3.2465
X8.6531Y-3.1677
X8.6531Y-1.7465
X8.6531Y-1.6677
X8.6531Y-2.4965
X8.6531Y-2.4177
X8.7358Y-3.6035
X8.8358Y-3.6035
X8.9358Y-3.6035
X9.003Y-3.128
X9.003Y-3.2067
X9.003Y-2.3799
X9.003Y-2.4587
X9.0033Y-4.105
X9.0237Y-4.0289
X9.0358Y-3.6035
X9.0817Y-3.128
X9.0817Y-3.2067
X9.0817Y-2.3799
X9.0817Y-2.4587
X9.1358Y-3.6035
X9.2358Y-3.6035
X9.3358Y-3.6035
X9.4031Y-1.7661
X9.4031Y-1.8449
X9.4031Y-2.5949
X9.4031Y-3.2661
X9.4031Y-2.5161
X9.4031Y-3.3449
X9.4358Y-3.6035
X9.4846Y-4.0289
X9.5358Y-3.6035
X9.7712Y-4.4231
X9.7909Y-2.2762
X9.8106Y-4.3549
X9.9051Y-2.9146
X9.9051Y-2.7295
X9.9326Y-2.5669
X9.9326Y-2.4881
X9.9478Y-2.7782
X10.0389Y-2.4881
X10.0429Y-2.5669
X10.0478Y-2.8784
X10.1079Y-2.3232
X10.1981Y-2.7079
X10.2339Y-2.7447
X10.2339Y-3.4534
X10.2437Y-2.563
X10.2437Y-2.6463
X10.2437Y-2.4881
X10.2437Y-2.4101
X10.2791Y-2.3764
X10.2984Y-2.9146
X10.2988Y-3.5275
X10.4116Y-4.9147
X10.472Y-4.8561
T3
X9.8478Y-2.3769
X9.8478Y-2.4769
X9.8478Y-2.5769
X9.8478Y-2.6769
X9.8478Y-2.7769
X9.8478Y-2.8769
X9.8478Y-2.9769
X9.8478Y-3.0769
X9.8478Y-3.1769
X9.8478Y-3.2769
X9.8478Y-3.3769
X9.8478Y-3.4769
X9.9478Y-3.6351
X10.0478Y-3.6351
X10.1478Y-3.6351
X10.2478Y-3.6351
X10.3478Y-3.6351
X10.4478Y-2.3769
X10.4478Y-2.4769
X10.4478Y-2.5769
X10.4478Y-2.6769
X10.4478Y-2.7769
X10.4478Y-2.8769
X10.4478Y-2.9769
X10.4478Y-3.0769
X10.4478Y-3.1769
X10.4478Y-3.2769
X10.4478Y-3.3769
X10.4478Y-3.4769
T4
X9.8569Y-2.1449
X9.8569Y-3.8204
X10.4388Y-2.1449
T2
G00X10.0617Y-3.7299
M15
G01X10.0459Y-3.7299
M16
G05
G00X10.105Y-3.911
M15
G01X10.0892Y-3.911
M16
G05
G00X10.2624Y-3.911
M15
G01X10.2467Y-3.911
M16
G05
G00X10.3806Y-3.911
M15
G01X10.3648Y-3.911
M16
G05
T0
M30
